SplineFontDB: 3.0
FontName: FiraMath-Thin
FullName: Fira Math Thin
FamilyName: Fira Math
Weight: Thin
Copyright: 
Version: 
ItalicAngle: 0
UnderlinePosition: -100
UnderlineWidth: 50
Ascent: 800
Descent: 200
InvalidEm: 0
sfntRevision: 0x00000000
LayerCount: 2
Layer: 0 0 "Back" 1
Layer: 1 0 "Fore" 0
XUID: [1021 259 345145688 27445]
OS2Version: 0
OS2_WeightWidthSlopeOnly: 0
OS2_UseTypoMetrics: 1
CreationTime: 1527825812
OS2TypoAscent: 0
OS2TypoAOffset: 1
OS2TypoDescent: 0
OS2TypoDOffset: 1
OS2TypoLinegap: 0
OS2WinAscent: 0
OS2WinAOffset: 1
OS2WinDescent: 0
OS2WinDOffset: 1
HheadAscent: 0
HheadAOffset: 1
HheadDescent: 0
HheadDOffset: 1
OS2Vendor: 'PfEd'
MarkAttachClasses: 1
DEI: 91125
LangName: 1033
MATH:ScriptPercentScaleDown: 80
MATH:ScriptScriptPercentScaleDown: 60
MATH:DelimitedSubFormulaMinHeight: 1500
MATH:DisplayOperatorMinHeight: 1500
MATH:MathLeading: 150 
MATH:AxisHeight: 280 
MATH:AccentBaseHeight: 527 
MATH:FlattenedAccentBaseHeight: 689 
MATH:SubscriptShiftDown: 350 
MATH:SubscriptTopMax: 527 
MATH:SubscriptBaselineDropMin: 250 
MATH:SuperscriptShiftUp: 400 
MATH:SuperscriptShiftUpCramped: 270 
MATH:SuperscriptBottomMin: 130 
MATH:SuperscriptBaselineDropMax: 360 
MATH:SubSuperscriptGapMin: 200 
MATH:SuperscriptBottomMaxWithSubscript: 527 
MATH:SpaceAfterScript: 41 
MATH:UpperLimitGapMin: 150 
MATH:UpperLimitBaselineRiseMin: 150 
MATH:LowerLimitGapMin: 150 
MATH:LowerLimitBaselineDropMin: 600 
MATH:StackTopShiftUp: 450 
MATH:StackTopDisplayStyleShiftUp: 580 
MATH:StackBottomShiftDown: 480 
MATH:StackBottomDisplayStyleShiftDown: 700 
MATH:StackGapMin: 200 
MATH:StackDisplayStyleGapMin: 500 
MATH:StretchStackTopShiftUp: 300 
MATH:StretchStackBottomShiftDown: 600 
MATH:StretchStackGapAboveMin: 150 
MATH:StretchStackGapBelowMin: 150 
MATH:FractionNumeratorShiftUp: 450 
MATH:FractionNumeratorDisplayStyleShiftUp: 580 
MATH:FractionDenominatorShiftDown: 480 
MATH:FractionDenominatorDisplayStyleShiftDown: 700 
MATH:FractionNumeratorGapMin: 80 

StartChar: uni0021
Encoding: 33 33 1
Width: 238
Flags: W
LayerCount: 2
Fore
SplineSet
129 681 m 1
 129 202 l 1
 108 202 l 1
 108 681 l 1
 129 681 l 1
119 38 m 0
 134 38 143 28 143 14 c 0
 143 2 134 -8 119 -8 c 0
 105 -8 96 2 96 14 c 0
 96 28 105 38 119 38 c 0
EndSplineSet
EndChar

StartChar: uni0022
Encoding: 34 34 2
Width: 327
Flags: W
LayerCount: 2
Fore
SplineSet
86 441 m 1
 83 681 l 1
 106 681 l 1
 103 441 l 1
 86 441 l 1
224 441 m 1
 221 681 l 1
 245 681 l 1
 242 441 l 1
 224 441 l 1
EndSplineSet
EndChar

StartChar: uni0023
Encoding: 35 35 3
Width: 488
Flags: W
LayerCount: 2
Fore
SplineSet
473 460 m 1
 390 460 l 1
 359 220 l 1
 436 220 l 1
 436 200 l 1
 356 200 l 1
 330 0 l 1
 308 0 l 1
 334 200 l 1
 120 200 l 1
 93 0 l 1
 71 0 l 1
 98 200 l 1
 15 200 l 1
 15 220 l 1
 100 220 l 1
 132 460 l 1
 52 460 l 1
 52 479 l 1
 135 479 l 1
 159 662 l 1
 181 662 l 1
 157 479 l 1
 371 479 l 1
 395 662 l 1
 417 662 l 1
 393 479 l 1
 473 479 l 1
 473 460 l 1
122 220 m 1
 337 220 l 1
 368 460 l 1
 154 460 l 1
 122 220 l 1
EndSplineSet
EndChar

StartChar: uni0024
Encoding: 36 36 4
Width: 523
Flags: W
LayerCount: 2
Fore
SplineSet
454 177 m 0
 454 71 378 -3 267 -10 c 1
 267 -146 l 1
 248 -146 l 1
 248 -10 l 1
 163 -9 104 23 54 68 c 1
 68 83 l 1
 115 41 167 11 250 11 c 0
 359 11 432 76 432 176 c 0
 432 272 382 308 259 347 c 0
 125 390 79 430 79 517 c 0
 79 602 146 667 249 670 c 1
 249 811 l 1
 269 811 l 1
 269 670 l 1
 343 667 389 642 433 603 c 1
 418 587 l 1
 372 630 326 650 256 650 c 0
 162 650 101 594 101 517 c 0
 101 437 144 405 267 367 c 0
 396 326 454 284 454 177 c 0
EndSplineSet
EndChar

StartChar: uni0025
Encoding: 37 37 5
Width: 760
Flags: W
LayerCount: 2
Fore
SplineSet
606 695 m 1
 624 684 l 1
 163 -15 l 1
 144 -4 l 1
 606 695 l 1
198 673 m 0
 279 673 332 614 332 519 c 0
 332 424 282 361 198 361 c 0
 116 361 63 422 63 516 c 0
 63 612 113 673 198 673 c 0
198 654 m 0
 121 654 86 595 86 516 c 0
 86 440 122 380 198 380 c 0
 274 380 310 440 310 519 c 0
 310 596 273 654 198 654 c 0
562 302 m 0
 644 302 697 243 697 148 c 0
 697 53 647 -10 562 -10 c 0
 481 -10 428 51 428 145 c 0
 428 241 478 302 562 302 c 0
562 283 m 0
 486 283 450 224 450 145 c 0
 450 69 486 9 562 9 c 0
 639 9 674 69 674 148 c 0
 674 225 638 283 562 283 c 0
EndSplineSet
EndChar

StartChar: uni0026
Encoding: 38 38 6
Width: 715
Flags: W
LayerCount: 2
Fore
SplineSet
302 692 m 0
 390 692 450 632 450 548 c 0
 450 467 394 421 285 362 c 1
 522 140 l 1
 556 207 577 271 593 354 c 1
 615 348 l 1
 597 262 573 192 536 126 c 1
 666 5 l 1
 648 -7 l 1
 525 107 l 1
 475 38 409 -10 300 -10 c 0
 190 -10 104 62 104 165 c 0
 104 258 159 313 252 365 c 1
 180 434 148 472 148 544 c 0
 148 628 213 692 302 692 c 0
302 672 m 0
 223 672 171 615 171 545 c 0
 171 488 184 458 271 376 c 1
 376 431 428 476 428 548 c 0
 428 626 373 672 302 672 c 0
267 352 m 1
 176 302 127 248 127 165 c 0
 127 76 199 11 300 11 c 0
 399 11 461 52 510 121 c 1
 267 352 l 1
EndSplineSet
EndChar

StartChar: uni0027
Encoding: 39 39 7
Width: 189
Flags: W
LayerCount: 2
Fore
SplineSet
86 441 m 1
 83 681 l 1
 106 681 l 1
 103 441 l 1
 86 441 l 1
EndSplineSet
EndChar

StartChar: uni0028
Encoding: 40 40 8
Width: 325
Flags: W
LayerCount: 2
Fore
SplineSet
241 829 m 1
 256 820 l 1
 167 689 91 572 91 350 c 0
 91 128 167 11 256 -120 c 1
 241 -129 l 1
 147 5 69 122 69 350 c 0
 69 578 147 695 241 829 c 1
EndSplineSet
EndChar

StartChar: uni0029
Encoding: 41 41 9
Width: 325
Flags: W
LayerCount: 2
Fore
SplineSet
84 829 m 1
 178 695 256 578 256 350 c 0
 256 122 178 5 84 -129 c 1
 69 -120 l 1
 158 11 234 128 234 350 c 0
 234 572 158 689 69 820 c 1
 84 829 l 1
EndSplineSet
EndChar

StartChar: uni002A
Encoding: 42 42 10
Width: 432
Flags: W
LayerCount: 2
Fore
SplineSet
382 603 m 1
 230 557 l 1
 325 429 l 1
 307 416 l 1
 216 546 l 1
 124 416 l 1
 106 429 l 1
 202 556 l 1
 49 603 l 1
 56 623 l 1
 207 572 l 1
 205 732 l 1
 227 732 l 1
 226 572 l 1
 376 623 l 1
 382 603 l 1
EndSplineSet
EndChar

StartChar: uni002B
Encoding: 43 43 11
Width: 485
Flags: W
LayerCount: 2
Fore
SplineSet
254 496 m 1
 254 341 l 1
 407 341 l 1
 407 320 l 1
 254 320 l 1
 254 165 l 1
 232 165 l 1
 232 320 l 1
 78 320 l 1
 78 341 l 1
 232 341 l 1
 232 496 l 1
 254 496 l 1
EndSplineSet
EndChar

StartChar: uni002C
Encoding: 44 44 12
Width: 163
Flags: W
LayerCount: 2
Fore
SplineSet
81 38 m 0
 96 38 105 28 105 14 c 0
 105 4 100 -7 96 -17 c 2
 52 -130 l 1
 35 -130 l 1
 73 -6 l 1
 63 -3 58 5 58 14 c 0
 58 28 67 38 81 38 c 0
EndSplineSet
EndChar

StartChar: uni002D
Encoding: 45 45 13
Width: 399
Flags: W
LayerCount: 2
Fore
SplineSet
78 302 m 1
 78 323 l 1
 321 323 l 1
 321 302 l 1
 78 302 l 1
EndSplineSet
EndChar

StartChar: uni002E
Encoding: 46 46 14
Width: 163
Flags: W
LayerCount: 2
Fore
SplineSet
81 38 m 0
 96 38 105 28 105 14 c 0
 105 2 96 -8 81 -8 c 0
 67 -8 58 2 58 14 c 0
 58 28 67 38 81 38 c 0
EndSplineSet
EndChar

StartChar: uni002F
Encoding: 47 47 15
Width: 520
Flags: W
LayerCount: 2
Fore
SplineSet
366 798 m 1
 386 792 l 1
 154 -95 l 1
 134 -89 l 1
 366 798 l 1
EndSplineSet
EndChar

StartChar: uni0030
Encoding: 48 48 16
Width: 541
Flags: W
LayerCount: 2
Fore
SplineSet
271 673 m 0
 397 673 465 559 465 330 c 0
 465 104 397 -10 271 -10 c 0
 144 -10 76 105 76 332 c 0
 76 559 144 673 271 673 c 0
271 652 m 0
 160 652 99 547 99 332 c 0
 99 117 159 11 271 11 c 0
 383 11 442 116 442 330 c 0
 442 545 384 652 271 652 c 0
EndSplineSet
EndChar

StartChar: uni0031
Encoding: 49 49 17
Width: 393
Flags: W
LayerCount: 2
Fore
SplineSet
260 661 m 1
 260 0 l 1
 238 0 l 1
 238 635 l 1
 64 525 l 1
 53 542 l 1
 242 661 l 1
 260 661 l 1
EndSplineSet
EndChar

StartChar: uni0032
Encoding: 50 50 18
Width: 464
Flags: W
LayerCount: 2
Fore
SplineSet
221 673 m 0
 328 673 390 600 390 506 c 0
 390 369 319 292 75 22 c 1
 405 22 l 1
 401 0 l 1
 47 0 l 1
 47 21 l 1
 305 305 367 378 367 504 c 0
 367 592 311 652 221 652 c 0
 150 652 101 621 60 572 c 1
 43 583 l 1
 93 643 146 673 221 673 c 0
EndSplineSet
EndChar

StartChar: uni0033
Encoding: 51 51 19
Width: 474
Flags: W
LayerCount: 2
Fore
SplineSet
217 673 m 0
 321 673 385 606 385 512 c 0
 385 413 322 361 250 353 c 1
 333 351 403 292 403 182 c 0
 403 69 326 -10 208 -10 c 0
 131 -10 77 17 28 73 c 1
 43 85 l 1
 93 30 141 11 208 11 c 0
 316 11 380 81 380 181 c 0
 380 291 312 342 212 342 c 2
 174 342 l 1
 177 362 l 1
 211 362 l 2
 285 362 362 407 362 511 c 0
 362 597 305 652 216 652 c 0
 158 652 109 634 60 586 c 1
 46 600 l 1
 94 649 147 673 217 673 c 0
EndSplineSet
EndChar

StartChar: uni0034
Encoding: 52 52 20
Width: 503
Flags: W
LayerCount: 2
Fore
SplineSet
463 207 m 1
 463 187 l 1
 370 187 l 1
 370 0 l 1
 348 0 l 1
 348 187 l 1
 51 187 l 1
 51 205 l 1
 257 673 l 1
 276 665 l 1
 75 207 l 1
 348 207 l 1
 351 418 l 1
 370 418 l 1
 370 207 l 1
 463 207 l 1
EndSplineSet
EndChar

StartChar: uni0035
Encoding: 53 53 21
Width: 474
Flags: W
LayerCount: 2
Fore
SplineSet
393 661 m 1
 389 641 l 1
 109 641 l 1
 109 376 l 1
 139 397 177 415 232 415 c 0
 345 415 414 339 414 214 c 0
 414 84 341 -10 217 -10 c 0
 143 -10 87 18 43 65 c 1
 59 79 l 1
 100 35 149 11 218 11 c 0
 326 11 391 93 391 214 c 0
 391 332 328 394 232 394 c 0
 178 394 146 381 105 354 c 1
 87 354 l 1
 87 661 l 1
 393 661 l 1
EndSplineSet
EndChar

StartChar: uni0036
Encoding: 54 54 22
Width: 513
Flags: W
LayerCount: 2
Fore
SplineSet
283 427 m 0
 378 427 451 361 451 222 c 0
 451 76 381 -10 274 -10 c 0
 129 -10 76 126 76 288 c 0
 76 524 160 673 303 673 c 0
 349 673 382 658 412 636 c 1
 399 619 l 1
 371 641 342 652 302 652 c 0
 173 652 103 505 99 310 c 1
 140 375 198 427 283 427 c 0
274 11 m 0
 375 11 429 98 429 221 c 0
 429 347 367 406 282 406 c 0
 201 406 140 352 99 278 c 1
 102 125 150 11 274 11 c 0
EndSplineSet
EndChar

StartChar: uni0037
Encoding: 55 55 23
Width: 432
Flags: W
LayerCount: 2
Fore
SplineSet
389 661 m 1
 389 643 l 1
 114 -6 l 1
 93 2 l 1
 365 641 l 1
 38 641 l 1
 38 661 l 1
 389 661 l 1
EndSplineSet
EndChar

StartChar: uni0038
Encoding: 56 56 24
Width: 526
Flags: W
LayerCount: 2
Fore
SplineSet
308 345 m 1
 418 302 463 258 463 167 c 0
 463 59 382 -10 263 -10 c 0
 139 -10 63 62 63 168 c 0
 63 260 117 324 217 362 c 1
 130 398 93 438 93 513 c 0
 93 613 173 673 263 673 c 0
 353 673 434 618 434 512 c 0
 434 438 397 391 308 345 c 1
116 512 m 0
 116 446 145 410 242 371 c 2
 289 353 l 1
 375 397 412 441 412 511 c 0
 412 604 345 652 263 652 c 0
 182 652 116 601 116 512 c 0
263 12 m 0
 367 12 440 68 440 167 c 0
 440 258 390 294 281 337 c 2
 241 352 l 1
 132 312 86 257 86 168 c 0
 86 68 157 12 263 12 c 0
EndSplineSet
EndChar

StartChar: uni0039
Encoding: 57 57 25
Width: 508
Flags: W
LayerCount: 2
Fore
SplineSet
250 673 m 0
 382 673 437 569 437 397 c 0
 437 149 322 48 126 -15 c 1
 119 3 l 1
 300 61 405 154 415 365 c 1
 369 294 310 255 236 255 c 0
 136 255 61 333 61 459 c 0
 61 591 140 673 250 673 c 0
238 276 m 0
 314 276 368 318 415 394 c 1
 413 558 368 652 250 652 c 0
 152 652 85 582 85 458 c 0
 85 344 147 276 238 276 c 0
EndSplineSet
EndChar

StartChar: uni003A
Encoding: 58 58 26
Width: 163
Flags: W
LayerCount: 2
Fore
SplineSet
81 453 m 0
 96 453 105 442 105 429 c 0
 105 417 96 406 81 406 c 0
 67 406 58 417 58 429 c 0
 58 442 67 453 81 453 c 0
81 38 m 0
 96 38 105 28 105 14 c 0
 105 2 96 -8 81 -8 c 0
 67 -8 58 2 58 14 c 0
 58 28 67 38 81 38 c 0
EndSplineSet
EndChar

StartChar: uni003B
Encoding: 59 59 27
Width: 163
Flags: W
LayerCount: 2
Fore
SplineSet
81 453 m 0
 96 453 105 442 105 429 c 0
 105 417 96 406 81 406 c 0
 67 406 58 417 58 429 c 0
 58 442 67 453 81 453 c 0
81 38 m 0
 96 38 105 28 105 14 c 0
 105 4 100 -7 96 -17 c 2
 52 -130 l 1
 35 -130 l 1
 73 -6 l 1
 63 -3 58 5 58 14 c 0
 58 28 67 38 81 38 c 0
EndSplineSet
EndChar

StartChar: uni003C
Encoding: 60 60 28
Width: 495
Flags: W
LayerCount: 2
Fore
SplineSet
406 503 m 1
 415 484 l 1
 104 333 l 1
 415 178 l 1
 406 159 l 1
 79 325 l 1
 79 341 l 1
 406 503 l 1
EndSplineSet
EndChar

StartChar: uni003D
Encoding: 61 61 29
Width: 485
Flags: W
LayerCount: 2
Fore
SplineSet
78 399 m 1
 78 420 l 1
 407 420 l 1
 407 399 l 1
 78 399 l 1
78 241 m 1
 78 263 l 1
 407 263 l 1
 407 241 l 1
 78 241 l 1
EndSplineSet
EndChar

StartChar: uni003E
Encoding: 62 62 30
Width: 495
Flags: W
LayerCount: 2
Fore
SplineSet
88 503 m 1
 415 341 l 1
 415 325 l 1
 88 159 l 1
 79 178 l 1
 390 333 l 1
 79 484 l 1
 88 503 l 1
EndSplineSet
EndChar

StartChar: uni003F
Encoding: 63 63 31
Width: 441
Flags: W
LayerCount: 2
Fore
SplineSet
232 691 m 0
 326 691 385 631 385 555 c 0
 385 408 201 428 201 271 c 2
 201 202 l 1
 180 202 l 1
 180 273 l 2
 180 440 362 418 362 555 c 0
 362 624 310 671 232 671 c 0
 163 671 119 646 72 594 c 1
 56 606 l 1
 106 664 158 691 232 691 c 0
192 38 m 0
 207 38 215 28 215 14 c 0
 215 2 207 -8 192 -8 c 0
 178 -8 169 2 169 14 c 0
 169 28 178 38 192 38 c 0
EndSplineSet
EndChar

StartChar: uni0040
Encoding: 64 64 32
Width: 1020
Flags: W
LayerCount: 2
Fore
SplineSet
527 692 m 0
 788 692 920 511 920 309 c 0
 920 80 833 15 755 15 c 0
 692 15 649 61 639 137 c 1
 608 59 558 17 488 17 c 0
 400 17 326 88 326 232 c 0
 326 402 417 477 523 477 c 0
 575 477 621 461 655 443 c 1
 655 184 l 2
 655 84 694 34 755 34 c 0
 825 34 897 92 897 308 c 0
 897 503 769 671 527 671 c 0
 285 671 123 478 123 240 c 0
 123 -21 291 -176 525 -176 c 0
 597 -176 656 -164 709 -144 c 1
 715 -164 l 1
 662 -183 605 -197 525 -197 c 0
 281 -197 100 -35 100 240 c 0
 100 488 271 692 527 692 c 0
490 37 m 0
 559 37 611 93 633 168 c 1
 633 430 l 1
 602 445 568 456 524 456 c 0
 422 456 349 379 349 232 c 0
 349 102 408 37 490 37 c 0
EndSplineSet
EndChar

StartChar: uni0041
Encoding: 65 65 33
Width: 557
Flags: W
LayerCount: 2
Fore
SplineSet
505 0 m 1
 435 203 l 1
 121 203 l 1
 51 0 l 1
 28 0 l 1
 265 681 l 1
 292 681 l 1
 530 0 l 1
 505 0 l 1
128 224 m 1
 428 224 l 1
 278 663 l 1
 128 224 l 1
EndSplineSet
EndChar

StartChar: uni0042
Encoding: 66 66 34
Width: 587
Flags: W
LayerCount: 2
Fore
SplineSet
362 361 m 1
 450 356 525 301 525 184 c 0
 525 61 438 0 299 0 c 2
 123 0 l 1
 123 681 l 1
 264 681 l 2
 408 681 490 624 490 513 c 0
 490 424 438 374 362 361 c 1
267 660 m 2
 146 660 l 1
 146 370 l 1
 316 370 l 2
 406 370 467 427 467 512 c 0
 467 611 396 660 267 660 c 2
300 21 m 2
 422 21 502 71 502 184 c 0
 502 294 426 350 321 350 c 2
 146 350 l 1
 146 21 l 1
 300 21 l 2
EndSplineSet
EndChar

StartChar: uni0043
Encoding: 67 67 35
Width: 538
Flags: W
LayerCount: 2
Fore
SplineSet
344 691 m 0
 419 691 463 668 505 633 c 1
 492 617 l 1
 449 651 411 670 346 670 c 0
 208 670 101 570 101 340 c 0
 101 123 205 12 342 12 c 0
 419 12 461 39 499 71 c 1
 513 54 l 1
 472 19 421 -10 342 -10 c 0
 189 -10 78 113 78 340 c 0
 78 577 195 691 344 691 c 0
EndSplineSet
EndChar

StartChar: uni0044
Encoding: 68 68 36
Width: 619
Flags: W
LayerCount: 2
Fore
SplineSet
245 681 m 2
 390 681 542 627 542 348 c 0
 542 63 384 0 249 0 c 2
 123 0 l 1
 123 681 l 1
 245 681 l 2
243 660 m 2
 146 660 l 1
 146 21 l 1
 250 21 l 2
 380 21 518 82 518 348 c 0
 518 617 376 660 243 660 c 2
EndSplineSet
EndChar

StartChar: uni0045
Encoding: 69 69 37
Width: 494
Flags: W
LayerCount: 2
Fore
SplineSet
444 681 m 1
 441 660 l 1
 146 660 l 1
 146 370 l 1
 400 370 l 1
 400 349 l 1
 146 349 l 1
 146 21 l 1
 451 21 l 1
 451 0 l 1
 123 0 l 1
 123 681 l 1
 444 681 l 1
EndSplineSet
EndChar

StartChar: uni0046
Encoding: 70 70 38
Width: 471
Flags: W
LayerCount: 2
Fore
SplineSet
123 0 m 1
 123 681 l 1
 439 681 l 1
 436 660 l 1
 146 660 l 1
 146 356 l 1
 396 356 l 1
 396 335 l 1
 146 335 l 1
 146 0 l 1
 123 0 l 1
EndSplineSet
EndChar

StartChar: uni0047
Encoding: 71 71 39
Width: 605
Flags: W
LayerCount: 2
Fore
SplineSet
348 691 m 0
 417 691 465 672 516 632 c 1
 503 616 l 1
 455 653 409 670 348 670 c 0
 228 670 101 576 101 345 c 0
 101 122 202 12 353 12 c 0
 419 12 467 28 510 53 c 1
 510 333 l 1
 365 333 l 1
 362 354 l 1
 533 354 l 1
 533 41 l 1
 480 10 418 -10 353 -10 c 0
 189 -10 78 110 78 345 c 0
 78 583 215 691 348 691 c 0
EndSplineSet
EndChar

StartChar: uni0048
Encoding: 72 72 40
Width: 660
Flags: W
LayerCount: 2
Fore
SplineSet
514 0 m 1
 514 349 l 1
 146 349 l 1
 146 0 l 1
 123 0 l 1
 123 681 l 1
 146 681 l 1
 146 371 l 1
 514 371 l 1
 514 681 l 1
 537 681 l 1
 537 0 l 1
 514 0 l 1
EndSplineSet
EndChar

StartChar: uni0049
Encoding: 73 73 41
Width: 268
Flags: W
LayerCount: 2
Fore
SplineSet
146 681 m 1
 146 0 l 1
 123 0 l 1
 123 681 l 1
 146 681 l 1
EndSplineSet
EndChar

StartChar: uni004A
Encoding: 74 74 42
Width: 277
Flags: W
LayerCount: 2
Fore
SplineSet
161 681 m 1
 161 87 l 2
 161 -13 138 -53 30 -100 c 1
 23 -83 l 1
 116 -40 138 -4 138 89 c 2
 138 681 l 1
 161 681 l 1
EndSplineSet
EndChar

StartChar: uni004B
Encoding: 75 75 43
Width: 510
Flags: W
LayerCount: 2
Fore
SplineSet
146 681 m 1
 146 0 l 1
 123 0 l 1
 123 681 l 1
 146 681 l 1
490 681 m 1
 178 367 l 1
 506 0 l 1
 478 0 l 1
 149 367 l 1
 463 681 l 1
 490 681 l 1
EndSplineSet
EndChar

StartChar: uni004C
Encoding: 76 76 44
Width: 456
Flags: W
LayerCount: 2
Fore
SplineSet
146 681 m 1
 146 22 l 1
 434 22 l 1
 430 0 l 1
 123 0 l 1
 123 681 l 1
 146 681 l 1
EndSplineSet
EndChar

StartChar: uni004D
Encoding: 77 77 45
Width: 762
Flags: W
LayerCount: 2
Fore
SplineSet
609 681 m 1
 684 0 l 1
 662 0 l 1
 623 345 l 2
 611 458 596 592 589 660 c 1
 392 84 l 1
 370 84 l 1
 170 660 l 1
 165 605 148 463 137 354 c 2
 100 0 l 1
 78 0 l 1
 151 681 l 1
 185 681 l 1
 381 112 l 1
 575 681 l 1
 609 681 l 1
EndSplineSet
EndChar

StartChar: uni004E
Encoding: 78 78 46
Width: 661
Flags: W
LayerCount: 2
Fore
SplineSet
538 681 m 1
 538 0 l 1
 510 0 l 1
 142 656 l 1
 144 621 145 576 145 477 c 2
 145 0 l 1
 123 0 l 1
 123 681 l 1
 152 681 l 1
 519 26 l 1
 518 66 516 127 516 205 c 2
 516 681 l 1
 538 681 l 1
EndSplineSet
EndChar

StartChar: uni004F
Encoding: 79 79 47
Width: 689
Flags: W
LayerCount: 2
Fore
SplineSet
344 691 m 0
 505 691 611 569 611 340 c 0
 611 119 511 -10 344 -10 c 0
 185 -10 78 115 78 339 c 0
 78 563 187 691 344 691 c 0
344 670 m 0
 200 670 101 554 101 339 c 0
 101 127 199 12 344 12 c 0
 498 12 588 127 588 340 c 0
 588 557 492 670 344 670 c 0
EndSplineSet
EndChar

StartChar: uni0050
Encoding: 80 80 48
Width: 558
Flags: W
LayerCount: 2
Fore
SplineSet
261 681 m 2
 416 681 501 623 501 484 c 0
 501 337 401 282 256 282 c 2
 146 282 l 1
 146 0 l 1
 123 0 l 1
 123 681 l 1
 261 681 l 2
258 303 m 2
 388 303 477 348 477 483 c 0
 477 612 402 660 261 660 c 2
 146 660 l 1
 146 303 l 1
 258 303 l 2
EndSplineSet
EndChar

StartChar: uni0051
Encoding: 81 81 49
Width: 689
Flags: W
LayerCount: 2
Fore
SplineSet
413 6 m 1
 495 4 572 -11 630 -62 c 1
 614 -81 l 1
 545 -23 471 -8 344 -8 c 0
 185 -8 78 115 78 339 c 0
 78 563 187 691 344 691 c 0
 505 691 611 569 611 340 c 0
 611 134 529 29 413 6 c 1
101 339 m 0
 101 127 199 12 344 12 c 0
 498 12 588 127 588 340 c 0
 588 557 492 670 344 670 c 0
 200 670 101 554 101 339 c 0
EndSplineSet
EndChar

StartChar: uni0052
Encoding: 82 82 50
Width: 572
Flags: W
LayerCount: 2
Fore
SplineSet
501 0 m 1
 313 324 l 1
 146 324 l 1
 146 0 l 1
 123 0 l 1
 123 681 l 1
 272 681 l 2
 431 681 496 616 496 504 c 0
 496 393 428 343 337 327 c 1
 528 0 l 1
 501 0 l 1
146 345 m 1
 287 345 l 2
 398 345 473 393 473 504 c 0
 473 602 420 660 269 660 c 2
 146 660 l 1
 146 345 l 1
EndSplineSet
EndChar

StartChar: uni0053
Encoding: 83 83 51
Width: 536
Flags: W
LayerCount: 2
Fore
SplineSet
265 691 m 0
 348 691 397 664 445 622 c 1
 430 605 l 1
 383 649 336 670 265 670 c 0
 166 670 103 613 103 534 c 0
 103 451 148 417 274 378 c 0
 407 337 466 293 466 182 c 0
 466 68 381 -10 258 -10 c 0
 168 -10 108 23 54 72 c 1
 69 87 l 1
 118 42 171 12 257 12 c 0
 369 12 444 78 444 181 c 0
 444 281 393 318 266 358 c 0
 128 401 80 443 80 534 c 0
 80 623 153 691 265 691 c 0
EndSplineSet
EndChar

StartChar: uni0054
Encoding: 84 84 52
Width: 476
Flags: W
LayerCount: 2
Fore
SplineSet
463 681 m 1
 459 659 l 1
 249 659 l 1
 249 0 l 1
 226 0 l 1
 226 659 l 1
 16 659 l 1
 16 681 l 1
 463 681 l 1
EndSplineSet
EndChar

StartChar: uni0055
Encoding: 85 85 53
Width: 640
Flags: W
LayerCount: 2
Fore
SplineSet
528 681 m 1
 528 207 l 2
 528 82 467 -10 321 -10 c 0
 173 -10 113 82 113 207 c 2
 113 681 l 1
 136 681 l 1
 136 210 l 2
 136 93 188 12 321 12 c 0
 454 12 505 95 505 210 c 2
 505 681 l 1
 528 681 l 1
EndSplineSet
EndChar

StartChar: uni0056
Encoding: 86 86 54
Width: 534
Flags: W
LayerCount: 2
Fore
SplineSet
506 681 m 1
 281 0 l 1
 253 0 l 1
 28 681 l 1
 52 681 l 1
 267 21 l 1
 482 681 l 1
 506 681 l 1
EndSplineSet
EndChar

StartChar: uni0057
Encoding: 87 87 55
Width: 790
Flags: W
LayerCount: 2
Fore
SplineSet
752 681 m 1
 593 0 l 1
 567 0 l 1
 395 659 l 1
 223 0 l 1
 197 0 l 1
 38 681 l 1
 62 681 l 1
 212 24 l 1
 381 681 l 1
 409 681 l 1
 580 24 l 1
 729 681 l 1
 752 681 l 1
EndSplineSet
EndChar

StartChar: uni0058
Encoding: 88 88 56
Width: 486
Flags: W
LayerCount: 2
Fore
SplineSet
254 370 m 1
 469 0 l 1
 444 0 l 1
 240 355 l 1
 41 0 l 1
 16 0 l 1
 227 369 l 1
 41 681 l 1
 67 681 l 1
 240 384 l 1
 413 681 l 1
 437 681 l 1
 254 370 l 1
EndSplineSet
EndChar

StartChar: uni0059
Encoding: 89 89 57
Width: 494
Flags: W
LayerCount: 2
Fore
SplineSet
473 681 m 1
 260 271 l 1
 260 0 l 1
 237 0 l 1
 237 270 l 1
 21 681 l 1
 47 681 l 1
 249 292 l 1
 447 681 l 1
 473 681 l 1
EndSplineSet
EndChar

StartChar: uni005A
Encoding: 90 90 58
Width: 509
Flags: W
LayerCount: 2
Fore
SplineSet
459 681 m 1
 459 662 l 1
 69 22 l 1
 446 22 l 1
 443 0 l 1
 41 0 l 1
 41 21 l 1
 432 660 l 1
 79 660 l 1
 79 681 l 1
 459 681 l 1
EndSplineSet
EndChar

StartChar: uni005B
Encoding: 91 91 59
Width: 312
Flags: W
LayerCount: 2
Fore
SplineSet
229 796 m 1
 229 778 l 1
 123 778 l 1
 123 -88 l 1
 229 -88 l 1
 229 -106 l 1
 103 -106 l 1
 103 796 l 1
 229 796 l 1
EndSplineSet
EndChar

StartChar: uni005C
Encoding: 92 92 60
Width: 520
Flags: W
LayerCount: 2
Fore
SplineSet
154 798 m 1
 386 -89 l 1
 366 -95 l 1
 134 792 l 1
 154 798 l 1
EndSplineSet
EndChar

StartChar: uni005D
Encoding: 93 93 61
Width: 312
Flags: W
LayerCount: 2
Fore
SplineSet
209 796 m 1
 209 -106 l 1
 83 -106 l 1
 83 -88 l 1
 189 -88 l 1
 189 778 l 1
 83 778 l 1
 83 796 l 1
 209 796 l 1
EndSplineSet
EndChar

StartChar: uni005E
Encoding: 94 94 62
Width: 524
Flags: W
LayerCount: 2
Fore
SplineSet
269 823 m 1
 446 527 l 1
 418 527 l 1
 261 796 l 1
 104 527 l 1
 76 527 l 1
 253 823 l 1
 269 823 l 1
EndSplineSet
EndChar

StartChar: uni005F
Encoding: 95 95 63
Width: 520
Flags: W
LayerCount: 2
Fore
SplineSet
42 -100 m 1
 42 -79 l 1
 478 -79 l 1
 478 -100 l 1
 42 -100 l 1
EndSplineSet
EndChar

StartChar: uni0060
Encoding: 96 96 64
Width: 246
Flags: W
LayerCount: 2
Fore
SplineSet
40 761 m 1
 216 670 l 1
 208 654 l 1
 30 738 l 1
 40 761 l 1
EndSplineSet
EndChar

StartChar: uni0061
Encoding: 97 97 65
Width: 528
Flags: W
LayerCount: 2
Fore
SplineSet
410 110 m 2
 410 41 423 18 457 6 c 1
 451 -10 l 1
 410 3 392 29 391 91 c 1
 354 25 299 -10 222 -10 c 0
 124 -10 66 52 66 144 c 0
 66 250 147 308 270 308 c 2
 388 308 l 1
 388 370 l 2
 388 460 355 509 255 509 c 0
 209 509 163 497 112 476 c 1
 105 495 l 1
 158 517 205 529 255 529 c 0
 365 529 410 474 410 372 c 2
 410 110 l 2
222 11 m 0
 303 11 354 52 388 119 c 1
 388 288 l 1
 274 288 l 2
 160 288 90 239 90 144 c 0
 90 62 140 11 222 11 c 0
EndSplineSet
EndChar

StartChar: uni0062
Encoding: 98 98 66
Width: 564
Flags: W
LayerCount: 2
Fore
SplineSet
308 529 m 0
 427 529 491 434 491 264 c 0
 491 95 426 -10 302 -10 c 0
 227 -10 173 31 139 81 c 1
 137 0 l 1
 118 0 l 1
 118 733 l 1
 140 736 l 1
 140 436 l 1
 179 490 232 529 308 529 c 0
301 11 m 0
 410 11 469 103 469 264 c 0
 469 424 413 509 308 509 c 0
 231 509 184 469 140 410 c 1
 140 106 l 1
 178 50 230 11 301 11 c 0
EndSplineSet
EndChar

StartChar: uni0063
Encoding: 99 99 67
Width: 464
Flags: W
LayerCount: 2
Fore
SplineSet
283 529 m 0
 339 529 379 514 418 479 c 1
 405 464 l 1
 372 493 335 509 284 509 c 0
 174 509 96 421 96 257 c 0
 96 95 175 11 283 11 c 0
 337 11 377 30 410 59 c 1
 423 44 l 1
 387 12 342 -10 284 -10 c 0
 159 -10 73 87 73 257 c 0
 73 426 156 529 283 529 c 0
EndSplineSet
EndChar

StartChar: uni0064
Encoding: 100 100 68
Width: 569
Flags: W
LayerCount: 2
Fore
SplineSet
429 736 m 1
 451 733 l 1
 451 0 l 1
 432 0 l 1
 429 89 l 1
 400 36 351 -10 265 -10 c 0
 149 -10 73 89 73 258 c 0
 73 418 148 529 275 529 c 0
 356 529 402 487 429 446 c 1
 429 736 l 1
266 11 m 0
 347 11 394 54 429 123 c 1
 429 418 l 1
 399 465 352 509 276 509 c 0
 168 509 95 413 96 258 c 0
 96 101 162 11 266 11 c 0
EndSplineSet
EndChar

StartChar: uni0065
Encoding: 101 101 69
Width: 526
Flags: W
LayerCount: 2
Fore
SplineSet
461 284 m 0
 461 270 460 257 459 246 c 1
 96 246 l 1
 101 87 175 11 280 11 c 0
 342 11 382 31 427 68 c 1
 439 51 l 1
 394 13 347 -10 280 -10 c 0
 154 -10 73 87 73 255 c 0
 73 426 152 529 272 529 c 0
 400 529 461 429 461 284 c 0
439 265 m 1
 439 292 l 2
 439 418 388 509 274 509 c 0
 175 509 99 430 96 265 c 1
 439 265 l 1
EndSplineSet
EndChar

StartChar: uni0066
Encoding: 102 102 70
Width: 307
Flags: W
LayerCount: 2
Fore
SplineSet
246 716 m 0
 184 716 143 686 143 614 c 2
 143 519 l 1
 290 519 l 1
 286 499 l 1
 143 499 l 1
 143 0 l 1
 121 0 l 1
 121 499 l 1
 31 499 l 1
 31 519 l 1
 121 519 l 1
 121 617 l 2
 121 695 171 737 244 737 c 0
 286 737 327 725 360 706 c 1
 352 689 l 1
 319 706 285 716 246 716 c 0
EndSplineSet
EndChar

StartChar: uni0067
Encoding: 103 103 71
Width: 495
Flags: W
LayerCount: 2
Fore
SplineSet
463 550 m 1
 471 526 l 1
 440 518 396 512 318 512 c 1
 382 490 422 440 422 356 c 0
 422 254 354 190 245 190 c 0
 217 190 192 196 171 204 c 1
 139 186 119 161 119 129 c 0
 119 91 147 64 218 64 c 2
 305 64 l 2
 403 64 458 15 458 -57 c 0
 458 -145 393 -197 251 -197 c 0
 107 -197 44 -159 44 -58 c 1
 66 -58 l 1
 68 -146 117 -176 251 -176 c 0
 381 -176 436 -132 436 -58 c 0
 436 5 387 43 304 43 c 2
 216 43 l 2
 137 43 96 78 96 126 c 0
 96 163 120 191 153 212 c 1
 97 241 66 287 66 358 c 0
 66 461 135 529 243 529 c 0
 393 528 422 537 463 550 c 1
244 509 m 0
 142 509 88 446 88 358 c 0
 88 260 160 210 245 210 c 0
 341 210 399 263 399 356 c 0
 399 453 340 509 244 509 c 0
EndSplineSet
EndChar

StartChar: uni0068
Encoding: 104 104 72
Width: 581
Flags: W
LayerCount: 2
Fore
SplineSet
330 529 m 0
 424 529 469 469 469 369 c 2
 469 0 l 1
 447 0 l 1
 447 367 l 2
 447 459 409 509 330 509 c 0
 246 509 189 459 140 384 c 1
 140 0 l 1
 118 0 l 1
 118 733 l 1
 140 736 l 1
 140 414 l 1
 187 484 248 529 330 529 c 0
EndSplineSet
EndChar

StartChar: uni0069
Encoding: 105 105 73
Width: 258
Flags: W
LayerCount: 2
Fore
SplineSet
129 724 m 0
 143 724 150 714 150 704 c 0
 150 694 143 685 129 685 c 0
 117 685 109 694 109 704 c 0
 109 714 117 724 129 724 c 0
140 519 m 1
 140 0 l 1
 118 0 l 1
 118 519 l 1
 140 519 l 1
EndSplineSet
EndChar

StartChar: uni006A
Encoding: 106 106 74
Width: 258
Flags: W
LayerCount: 2
Fore
SplineSet
129 724 m 0
 143 724 150 714 150 704 c 0
 150 694 143 685 129 685 c 0
 117 685 109 694 109 704 c 0
 109 714 117 724 129 724 c 0
141 519 m 1
 141 6 l 2
 141 -122 105 -155 28 -195 c 1
 22 -178 l 1
 90 -142 119 -111 119 7 c 2
 119 519 l 1
 141 519 l 1
EndSplineSet
EndChar

StartChar: uni006B
Encoding: 107 107 75
Width: 463
Flags: W
LayerCount: 2
Fore
SplineSet
140 736 m 1
 140 0 l 1
 118 0 l 1
 118 733 l 1
 140 736 l 1
420 519 m 1
 174 284 l 1
 445 0 l 1
 418 0 l 1
 146 284 l 1
 392 519 l 1
 420 519 l 1
EndSplineSet
EndChar

StartChar: uni006C
Encoding: 108 108 76
Width: 285
Flags: W
LayerCount: 2
Fore
SplineSet
185 -10 m 0
 142 -10 113 16 113 72 c 2
 113 733 l 1
 135 736 l 1
 135 73 l 2
 135 32 152 11 186 11 c 0
 200 11 214 14 226 19 c 1
 232 0 l 1
 219 -5 203 -10 185 -10 c 0
EndSplineSet
EndChar

StartChar: uni006D
Encoding: 109 109 77
Width: 848
Flags: W
LayerCount: 2
Fore
SplineSet
606 529 m 0
 690 529 735 469 735 369 c 2
 735 0 l 1
 713 0 l 1
 713 367 l 2
 713 459 676 509 606 509 c 0
 535 509 480 459 437 384 c 1
 437 0 l 1
 415 0 l 1
 415 369 l 2
 415 459 379 509 308 509 c 0
 238 509 183 459 140 384 c 1
 140 0 l 1
 118 0 l 1
 118 519 l 1
 137 519 l 1
 139 414 l 1
 181 484 240 529 309 529 c 0
 381 529 425 485 435 410 c 1
 477 482 535 529 606 529 c 0
EndSplineSet
EndChar

StartChar: uni006E
Encoding: 110 110 78
Width: 581
Flags: W
LayerCount: 2
Fore
SplineSet
330 529 m 0
 425 529 469 471 469 369 c 2
 469 0 l 1
 447 0 l 1
 447 367 l 2
 447 461 409 509 330 509 c 0
 246 509 189 459 140 384 c 1
 140 0 l 1
 118 0 l 1
 118 519 l 1
 137 519 l 1
 139 413 l 1
 186 483 248 529 330 529 c 0
EndSplineSet
EndChar

StartChar: uni006F
Encoding: 111 111 79
Width: 560
Flags: W
LayerCount: 2
Fore
SplineSet
281 529 m 0
 408 529 488 434 488 262 c 0
 488 89 406 -10 280 -10 c 0
 151 -10 73 91 73 259 c 0
 73 431 156 529 281 529 c 0
281 509 m 0
 169 509 96 422 96 259 c 0
 96 101 165 11 280 11 c 0
 393 11 465 99 465 262 c 0
 465 421 396 509 281 509 c 0
EndSplineSet
EndChar

StartChar: uni0070
Encoding: 112 112 80
Width: 564
Flags: W
LayerCount: 2
Fore
SplineSet
308 529 m 0
 426 529 491 435 491 264 c 0
 491 94 426 -10 303 -10 c 0
 228 -10 174 31 140 80 c 1
 140 -192 l 1
 118 -196 l 1
 118 519 l 1
 137 519 l 1
 139 434 l 1
 177 489 231 529 308 529 c 0
302 11 m 0
 410 11 469 103 469 264 c 0
 469 424 413 509 308 509 c 0
 231 509 184 469 140 410 c 1
 140 106 l 1
 179 50 230 11 302 11 c 0
EndSplineSet
EndChar

StartChar: uni0071
Encoding: 113 113 81
Width: 569
Flags: W
LayerCount: 2
Fore
SplineSet
432 519 m 1
 451 519 l 1
 451 -196 l 1
 429 -192 l 1
 429 88 l 1
 401 37 352 -10 265 -10 c 0
 149 -10 73 89 73 258 c 0
 73 418 147 529 275 529 c 0
 357 529 403 486 430 446 c 1
 432 519 l 1
266 11 m 0
 347 11 393 53 429 121 c 1
 429 418 l 1
 400 465 353 509 276 509 c 0
 167 509 95 413 96 258 c 0
 96 101 162 11 266 11 c 0
EndSplineSet
EndChar

StartChar: uni0072
Encoding: 114 114 82
Width: 362
Flags: W
LayerCount: 2
Fore
SplineSet
294 529 m 0
 317 529 333 526 345 523 c 1
 340 504 l 1
 327 507 312 509 294 509 c 0
 216 509 173 456 140 344 c 1
 140 0 l 1
 118 0 l 1
 118 519 l 1
 137 519 l 1
 138 390 l 1
 167 485 215 529 294 529 c 0
EndSplineSet
EndChar

StartChar: uni0073
Encoding: 115 115 83
Width: 450
Flags: W
LayerCount: 2
Fore
SplineSet
224 529 m 0
 286 529 332 511 378 474 c 1
 365 458 l 1
 321 492 283 509 225 509 c 0
 147 509 89 467 89 401 c 0
 89 340 128 313 231 285 c 0
 348 253 392 220 392 134 c 0
 392 48 322 -10 223 -10 c 0
 142 -10 92 19 48 56 c 1
 61 71 l 1
 106 34 149 11 223 11 c 0
 306 11 369 55 369 134 c 0
 369 209 334 236 221 267 c 0
 111 296 66 331 66 401 c 0
 66 477 136 529 224 529 c 0
EndSplineSet
EndChar

StartChar: uni0074
Encoding: 116 116 84
Width: 331
Flags: W
LayerCount: 2
Fore
SplineSet
317 37 m 1
 327 20 l 1
 299 3 267 -10 226 -10 c 0
 156 -10 113 33 113 117 c 2
 113 499 l 1
 28 499 l 1
 28 519 l 1
 113 519 l 1
 113 650 l 1
 135 652 l 1
 135 519 l 1
 279 519 l 1
 276 499 l 1
 135 499 l 1
 135 118 l 2
 135 48 167 11 227 11 c 0
 263 11 291 22 317 37 c 1
EndSplineSet
EndChar

StartChar: uni0075
Encoding: 117 117 85
Width: 576
Flags: W
LayerCount: 2
Fore
SplineSet
459 519 m 1
 459 0 l 1
 439 0 l 1
 439 106 l 1
 403 41 345 -10 259 -10 c 0
 167 -10 113 46 113 149 c 2
 113 519 l 1
 135 519 l 1
 135 151 l 2
 135 56 181 11 262 11 c 0
 342 11 396 61 437 133 c 1
 437 519 l 1
 459 519 l 1
EndSplineSet
EndChar

StartChar: uni0076
Encoding: 118 118 86
Width: 447
Flags: W
LayerCount: 2
Fore
SplineSet
424 519 m 1
 243 0 l 1
 214 0 l 1
 23 519 l 1
 48 519 l 1
 228 19 l 1
 400 519 l 1
 424 519 l 1
EndSplineSet
EndChar

StartChar: uni0077
Encoding: 119 119 87
Width: 680
Flags: W
LayerCount: 2
Fore
SplineSet
647 519 m 1
 511 0 l 1
 482 0 l 1
 341 497 l 1
 200 0 l 1
 171 0 l 1
 33 519 l 1
 57 519 l 1
 186 21 l 1
 328 519 l 1
 355 519 l 1
 496 21 l 1
 624 519 l 1
 647 519 l 1
EndSplineSet
EndChar

StartChar: uni0078
Encoding: 120 120 88
Width: 433
Flags: W
LayerCount: 2
Fore
SplineSet
229 279 m 1
 415 0 l 1
 389 0 l 1
 215 265 l 1
 43 0 l 1
 18 0 l 1
 202 278 l 1
 43 519 l 1
 69 519 l 1
 216 292 l 1
 364 519 l 1
 390 519 l 1
 229 279 l 1
EndSplineSet
EndChar

StartChar: uni0079
Encoding: 121 121 89
Width: 444
Flags: W
LayerCount: 2
Fore
SplineSet
421 519 m 1
 240 -1 l 2
 200 -116 169 -163 59 -195 c 1
 56 -177 l 1
 159 -146 181 -103 219 0 c 1
 211 0 l 1
 23 519 l 1
 47 519 l 1
 225 17 l 1
 396 519 l 1
 421 519 l 1
EndSplineSet
EndChar

StartChar: uni007A
Encoding: 122 122 90
Width: 405
Flags: W
LayerCount: 2
Fore
SplineSet
374 519 m 1
 374 501 l 1
 59 21 l 1
 366 21 l 1
 364 0 l 1
 31 0 l 1
 31 18 l 1
 346 499 l 1
 58 499 l 1
 58 519 l 1
 374 519 l 1
EndSplineSet
EndChar

StartChar: uni007B
Encoding: 123 123 91
Width: 328
Flags: W
LayerCount: 2
Fore
SplineSet
244 818 m 1
 244 800 l 1
 188 800 164 771 164 712 c 2
 164 441 l 2
 164 379 139 356 88 349 c 1
 139 342 164 319 164 257 c 2
 164 -14 l 2
 164 -73 188 -102 244 -102 c 1
 244 -120 l 1
 183 -120 144 -90 144 -17 c 2
 144 266 l 2
 144 319 111 338 64 338 c 1
 64 360 l 1
 111 360 144 379 144 432 c 2
 144 715 l 2
 144 788 183 818 244 818 c 1
EndSplineSet
EndChar

StartChar: uni007C
Encoding: 124 124 92
Width: 413
Flags: W
LayerCount: 2
Fore
SplineSet
217 801 m 1
 217 -98 l 1
 195 -98 l 1
 195 801 l 1
 217 801 l 1
EndSplineSet
EndChar

StartChar: uni007D
Encoding: 125 125 93
Width: 328
Flags: W
LayerCount: 2
Fore
SplineSet
84 818 m 1
 145 818 184 788 184 715 c 2
 184 432 l 2
 184 379 217 360 264 360 c 1
 264 338 l 1
 217 338 184 319 184 266 c 2
 184 -17 l 2
 184 -90 145 -120 84 -120 c 1
 84 -102 l 1
 140 -102 164 -73 164 -14 c 2
 164 257 l 2
 164 319 189 342 240 349 c 1
 189 356 164 379 164 441 c 2
 164 712 l 2
 164 771 140 800 84 800 c 1
 84 818 l 1
EndSplineSet
EndChar

StartChar: uni007E
Encoding: 126 126 94
Width: 457
Flags: W
LayerCount: 2
Fore
SplineSet
305 280 m 0
 253 280 202 335 155 335 c 0
 121 335 105 317 86 293 c 1
 71 302 l 1
 93 334 115 357 155 357 c 0
 210 357 257 302 305 302 c 0
 337 302 353 319 371 343 c 1
 386 335 l 1
 365 303 343 280 305 280 c 0
EndSplineSet
EndChar

StartChar: uni00A1
Encoding: 161 161 96
Width: 238
Flags: W
LayerCount: 2
Fore
SplineSet
119 453 m 0
 133 453 143 442 143 430 c 0
 143 417 133 406 119 406 c 0
 104 406 96 417 96 430 c 0
 96 442 104 453 119 453 c 0
130 252 m 1
 130 -192 l 1
 109 -192 l 1
 109 252 l 1
 130 252 l 1
EndSplineSet
EndChar

StartChar: uni00A2
Encoding: 162 162 97
Width: 464
Flags: W
LayerCount: 2
Fore
SplineSet
423 44 m 1
 388 13 346 -8 291 -10 c 1
 291 -146 l 1
 271 -146 l 1
 271 -10 l 1
 153 -3 73 93 73 257 c 0
 73 422 152 523 273 529 c 1
 273 676 l 1
 292 676 l 1
 292 529 l 1
 343 527 381 512 418 479 c 1
 405 464 l 1
 372 493 335 509 284 509 c 0
 174 509 96 421 96 257 c 0
 96 95 175 11 283 11 c 0
 337 11 377 30 410 59 c 1
 423 44 l 1
EndSplineSet
EndChar

StartChar: uni00A3
Encoding: 163 163 98
Width: 498
Flags: W
LayerCount: 2
Fore
SplineSet
167 137 m 2
 167 70 144 44 95 21 c 1
 434 21 l 1
 431 0 l 1
 63 0 l 1
 63 21 l 1
 121 48 145 72 145 135 c 2
 145 343 l 1
 83 343 l 1
 83 364 l 1
 145 364 l 1
 145 505 l 2
 145 598 196 673 300 673 c 0
 362 673 405 650 443 606 c 1
 428 592 l 1
 394 631 358 652 300 652 c 0
 211 652 167 588 167 505 c 2
 167 364 l 1
 384 364 l 1
 384 343 l 1
 167 343 l 1
 167 137 l 2
EndSplineSet
EndChar

StartChar: uni00A4
Encoding: 164 164 99
Width: 560
Flags: W
LayerCount: 2
Fore
SplineSet
453 340 m 0
 453 290 436 246 407 213 c 1
 487 134 l 1
 472 119 l 1
 391 199 l 1
 363 175 325 161 280 161 c 0
 236 161 198 175 169 199 c 1
 88 119 l 1
 73 134 l 1
 154 214 l 1
 125 246 108 291 108 340 c 0
 108 389 124 432 152 465 c 1
 73 544 l 1
 88 559 l 1
 167 479 l 1
 196 505 235 520 280 520 c 0
 326 520 364 505 393 480 c 1
 472 559 l 1
 487 544 l 1
 408 465 l 1
 437 433 453 389 453 340 c 0
130 340 m 0
 130 247 186 181 280 181 c 0
 377 181 431 248 431 340 c 0
 431 432 379 500 280 500 c 0
 184 500 130 432 130 340 c 0
EndSplineSet
EndChar

StartChar: uni00A5
Encoding: 165 165 100
Width: 485
Flags: W
LayerCount: 2
Fore
SplineSet
464 661 m 1
 265 329 l 1
 388 329 l 1
 388 308 l 1
 255 308 l 1
 255 190 l 1
 388 190 l 1
 388 168 l 1
 255 168 l 1
 255 0 l 1
 233 0 l 1
 233 168 l 1
 101 168 l 1
 101 190 l 1
 233 190 l 1
 233 308 l 1
 101 308 l 1
 101 329 l 1
 223 329 l 1
 21 661 l 1
 48 661 l 1
 244 331 l 1
 438 661 l 1
 464 661 l 1
EndSplineSet
EndChar

StartChar: uni00A6
Encoding: 166 166 101
Width: 413
Flags: W
LayerCount: 2
Fore
SplineSet
217 801 m 1
 217 443 l 1
 195 443 l 1
 195 801 l 1
 217 801 l 1
217 262 m 1
 217 -98 l 1
 195 -98 l 1
 195 262 l 1
 217 262 l 1
EndSplineSet
EndChar

StartChar: uni00A7
Encoding: 167 167 102
Width: 532
Flags: W
LayerCount: 2
Fore
SplineSet
352 160 m 1
 392 137 409 109 409 62 c 0
 409 -15 344 -64 257 -64 c 0
 192 -64 147 -48 102 -20 c 1
 114 -2 l 1
 156 -30 200 -43 257 -43 c 0
 337 -43 386 0 386 61 c 0
 386 117 363 142 257 178 c 0
 143 217 99 245 99 322 c 0
 99 372 127 413 184 451 c 1
 140 476 126 504 126 547 c 0
 126 623 192 672 271 672 c 0
 335 672 375 655 417 629 c 1
 405 612 l 1
 362 639 325 652 272 652 c 0
 200 652 148 607 148 548 c 0
 148 492 173 468 286 430 c 0
 393 393 432 358 432 285 c 0
 432 233 407 194 352 160 c 1
122 322 m 0
 122 259 152 234 263 196 c 0
 292 186 315 178 335 168 c 1
 388 201 410 236 410 284 c 0
 410 344 387 375 280 411 c 0
 248 422 222 432 201 442 c 1
 146 406 122 369 122 322 c 0
EndSplineSet
EndChar

StartChar: uni00A8
Encoding: 168 168 103
Width: 265
Flags: W
LayerCount: 2
Fore
SplineSet
50 712 m 0
 62 712 70 703 70 692 c 0
 70 681 62 673 50 673 c 0
 38 673 30 681 30 692 c 0
 30 703 38 712 50 712 c 0
216 712 m 0
 228 712 235 703 235 692 c 0
 235 681 228 673 216 673 c 0
 203 673 195 681 195 692 c 0
 195 703 203 712 216 712 c 0
EndSplineSet
EndChar

StartChar: uni00A9
Encoding: 169 169 104
Width: 810
Flags: W
LayerCount: 2
Fore
SplineSet
405 722 m 0
 565 722 683 605 683 435 c 0
 683 268 565 148 405 148 c 0
 245 148 127 265 127 435 c 0
 127 602 245 722 405 722 c 0
406 701 m 0
 257 701 149 591 149 435 c 0
 149 276 257 169 406 169 c 0
 553 169 661 279 661 435 c 0
 661 594 553 701 406 701 c 0
404 606 m 0
 443 606 468 595 491 577 c 1
 480 562 l 1
 460 577 440 586 404 586 c 0
 357 586 295 551 295 437 c 0
 295 330 343 285 405 285 c 0
 446 285 470 298 490 314 c 1
 500 297 l 1
 479 280 448 265 405 265 c 0
 328 265 272 324 272 437 c 0
 272 558 343 606 404 606 c 0
EndSplineSet
EndChar

StartChar: uni00AA
Encoding: 170 170 105
Width: 500
Flags: W
LayerCount: 2
Fore
SplineSet
218 277 m 0
 139 277 92 323 92 393 c 0
 92 473 158 517 256 517 c 2
 349 517 l 1
 349 561 l 2
 349 627 324 661 244 661 c 0
 208 661 171 652 131 637 c 1
 124 656 l 1
 166 672 203 681 244 681 c 0
 334 681 371 641 371 563 c 2
 371 367 l 2
 371 316 382 301 407 292 c 1
 402 277 l 1
 369 286 353 305 352 349 c 1
 321 302 278 277 218 277 c 0
260 496 m 2
 171 496 116 463 116 393 c 0
 116 332 156 297 218 297 c 0
 281 297 321 328 349 377 c 1
 349 496 l 1
 260 496 l 2
91 21 m 1
 421 21 l 1
 421 0 l 1
 91 0 l 1
 91 21 l 1
EndSplineSet
EndChar

StartChar: uni00AB
Encoding: 171 171 106
Width: 533
Flags: W
LayerCount: 2
Fore
SplineSet
240 503 m 1
 255 494 l 1
 115 288 l 1
 255 83 l 1
 240 74 l 1
 89 281 l 1
 89 295 l 1
 240 503 l 1
429 503 m 1
 444 494 l 1
 304 288 l 1
 444 83 l 1
 429 74 l 1
 278 281 l 1
 278 295 l 1
 429 503 l 1
EndSplineSet
EndChar

StartChar: uni00AC
Encoding: 172 172 107
Width: 495
Flags: W
LayerCount: 2
Fore
SplineSet
417 331 m 1
 417 198 l 1
 394 198 l 1
 394 309 l 1
 78 309 l 1
 78 331 l 1
 417 331 l 1
EndSplineSet
EndChar

StartChar: uni00AD
Encoding: 173 173 108
Width: 399
Flags: W
LayerCount: 2
Fore
SplineSet
78 302 m 1
 78 323 l 1
 321 323 l 1
 321 302 l 1
 78 302 l 1
EndSplineSet
EndChar

StartChar: uni00AE
Encoding: 174 174 109
Width: 637
Flags: W
LayerCount: 2
Fore
SplineSet
318 721 m 0
 446 721 541 628 541 502 c 0
 541 379 449 278 318 278 c 0
 191 278 96 372 96 498 c 0
 96 620 188 721 318 721 c 0
318 297 m 0
 436 297 521 389 521 502 c 0
 521 616 435 702 318 702 c 0
 201 702 116 611 116 498 c 0
 116 383 204 297 318 297 c 0
407 560 m 0
 407 519 382 498 344 490 c 1
 418 369 l 1
 391 369 l 1
 322 487 l 1
 267 487 l 1
 267 369 l 1
 245 369 l 1
 245 638 l 1
 305 638 l 2
 373 638 407 612 407 560 c 0
267 618 m 1
 267 506 l 1
 320 506 l 2
 359 506 385 521 385 560 c 0
 385 603 357 618 309 618 c 2
 267 618 l 1
EndSplineSet
EndChar

StartChar: uni00AF
Encoding: 175 175 110
Width: 267
Flags: W
LayerCount: 2
Fore
SplineSet
237 685 m 1
 30 685 l 1
 30 706 l 1
 237 706 l 1
 237 685 l 1
EndSplineSet
EndChar

StartChar: uni00B0
Encoding: 176 176 111
Width: 520
Flags: W
LayerCount: 2
Fore
SplineSet
219 411 m 0
 148 411 84 464 84 552 c 0
 84 635 148 691 219 691 c 0
 298 691 355 636 355 551 c 0
 355 467 298 411 219 411 c 0
219 432 m 0
 290 432 333 480 333 551 c 0
 333 623 290 671 219 671 c 0
 155 671 107 623 107 552 c 0
 107 480 155 432 219 432 c 0
EndSplineSet
EndChar

StartChar: uni00B1
Encoding: 177 177 112
Width: 485
Flags: W
LayerCount: 2
Fore
SplineSet
254 496 m 1
 254 341 l 1
 407 341 l 1
 407 320 l 1
 254 320 l 1
 254 165 l 1
 232 165 l 1
 232 320 l 1
 78 320 l 1
 78 341 l 1
 232 341 l 1
 232 496 l 1
 254 496 l 1
78 0 m 1
 78 21 l 1
 407 21 l 1
 407 0 l 1
 78 0 l 1
EndSplineSet
EndChar

StartChar: uni00B2
Encoding: 178 178 113
Width: 400
Flags: W
LayerCount: 2
Fore
SplineSet
198 738 m 0
 268 738 309 693 309 633 c 0
 309 548 265 502 111 343 c 1
 321 343 l 1
 317 322 l 1
 84 322 l 1
 84 342 l 1
 249 513 286 557 286 632 c 0
 286 685 253 718 198 718 c 0
 152 718 121 699 96 670 c 1
 79 682 l 1
 113 721 150 738 198 738 c 0
EndSplineSet
EndChar

StartChar: uni00B3
Encoding: 179 179 114
Width: 400
Flags: W
LayerCount: 2
Fore
SplineSet
201 740 m 0
 269 740 314 698 314 639 c 0
 314 581 275 547 226 541 c 1
 280 539 324 503 324 436 c 0
 324 365 273 315 194 315 c 0
 144 315 107 333 75 368 c 1
 90 379 l 1
 122 346 154 335 193 335 c 0
 264 335 302 377 302 435 c 0
 302 502 260 530 197 530 c 2
 172 530 l 1
 175 549 l 1
 195 549 l 2
 241 549 292 575 292 638 c 0
 292 689 255 720 200 720 c 0
 162 720 133 709 99 681 c 1
 86 694 l 1
 120 724 152 740 201 740 c 0
EndSplineSet
EndChar

StartChar: uni00B4
Encoding: 180 180 115
Width: 246
Flags: W
LayerCount: 2
Fore
SplineSet
206 761 m 1
 216 738 l 1
 38 654 l 1
 30 670 l 1
 206 761 l 1
EndSplineSet
EndChar

StartChar: uni00B5
Encoding: 181 181 116
Width: 582
Flags: W
LayerCount: 2
Fore
SplineSet
485 -3 m 1
 465 -5 l 1
 449 38 441 69 438 123 c 1
 400 49 345 -10 258 -10 c 0
 191 -10 152 22 136 74 c 1
 139 21 140 -16 140 -64 c 2
 140 -192 l 1
 118 -194 l 1
 118 519 l 1
 140 519 l 1
 140 142 l 2
 140 45 196 11 258 11 c 0
 337 11 394 68 434 152 c 1
 434 519 l 1
 456 519 l 1
 456 170 l 2
 456 97 467 47 485 -3 c 1
EndSplineSet
EndChar

StartChar: uni00B6
Encoding: 182 182 117
Width: 686
Flags: W
LayerCount: 2
Fore
SplineSet
333 681 m 2
 517 681 l 1
 517 -192 l 1
 495 -196 l 1
 495 662 l 1
 353 662 l 1
 353 -192 l 1
 331 -196 l 1
 331 306 l 1
 170 309 116 395 116 494 c 0
 116 614 197 681 333 681 c 2
EndSplineSet
EndChar

StartChar: uni00B7
Encoding: 183 183 118
Width: 163
Flags: W
LayerCount: 2
Fore
SplineSet
81 350 m 0
 96 350 105 339 105 326 c 0
 105 314 96 303 81 303 c 0
 67 303 58 314 58 326 c 0
 58 339 67 350 81 350 c 0
EndSplineSet
EndChar

StartChar: uni00B8
Encoding: 184 184 119
Width: 212
Flags: W
LayerCount: 2
Fore
SplineSet
92 9 m 1
 91 -74 l 1
 151 -77 182 -99 182 -140 c 0
 182 -187 142 -212 98 -212 c 0
 67 -212 47 -204 30 -194 c 1
 40 -177 l 1
 54 -186 72 -192 98 -192 c 0
 130 -192 159 -176 159 -140 c 0
 159 -107 132 -91 70 -90 c 1
 76 9 l 1
 92 9 l 1
EndSplineSet
EndChar

StartChar: uni00B9
Encoding: 185 185 120
Width: 400
Flags: W
LayerCount: 2
Fore
SplineSet
241 732 m 1
 241 322 l 1
 219 322 l 1
 219 707 l 1
 109 642 l 1
 98 658 l 1
 224 732 l 1
 241 732 l 1
EndSplineSet
EndChar

StartChar: uni00BA
Encoding: 186 186 121
Width: 500
Flags: W
LayerCount: 2
Fore
SplineSet
249 681 m 0
 352 681 416 611 416 481 c 0
 416 351 350 277 248 277 c 0
 144 277 81 352 81 479 c 0
 81 607 148 681 249 681 c 0
250 661 m 0
 161 661 104 599 104 479 c 0
 104 363 159 297 248 297 c 0
 338 297 393 361 393 481 c 0
 393 598 340 661 250 661 c 0
84 0 m 1
 84 21 l 1
 413 21 l 1
 413 0 l 1
 84 0 l 1
EndSplineSet
EndChar

StartChar: uni00BB
Encoding: 187 187 122
Width: 524
Flags: W
LayerCount: 2
Fore
SplineSet
104 503 m 1
 255 295 l 1
 255 281 l 1
 104 74 l 1
 89 83 l 1
 230 288 l 1
 90 494 l 1
 104 503 l 1
284 503 m 1
 435 295 l 1
 435 281 l 1
 284 74 l 1
 269 83 l 1
 410 288 l 1
 269 494 l 1
 284 503 l 1
EndSplineSet
EndChar

StartChar: uni00BC
Encoding: 188 188 123
Width: 892
Flags: W
LayerCount: 2
Fore
SplineSet
641 742 m 1
 659 733 l 1
 251 -66 l 1
 233 -57 l 1
 641 742 l 1
241 271 m 1
 219 271 l 1
 219 656 l 1
 109 591 l 1
 98 607 l 1
 224 681 l 1
 241 681 l 1
 241 271 l 1
827 132 m 1
 827 112 l 1
 769 112 l 1
 769 0 l 1
 747 0 l 1
 747 112 l 1
 556 112 l 1
 556 130 l 1
 688 418 l 1
 706 411 l 1
 578 132 l 1
 747 132 l 1
 750 259 l 1
 769 259 l 1
 769 132 l 1
 827 132 l 1
EndSplineSet
EndChar

StartChar: uni00BD
Encoding: 189 189 124
Width: 892
Flags: W
LayerCount: 2
Fore
SplineSet
641 742 m 1
 659 733 l 1
 251 -66 l 1
 233 -57 l 1
 641 742 l 1
241 681 m 1
 241 271 l 1
 219 271 l 1
 219 656 l 1
 109 591 l 1
 98 607 l 1
 224 681 l 1
 241 681 l 1
690 416 m 0
 760 416 801 371 801 311 c 0
 801 226 757 180 603 21 c 1
 813 21 l 1
 809 0 l 1
 576 0 l 1
 576 20 l 1
 741 191 778 235 778 310 c 0
 778 363 745 396 690 396 c 0
 644 396 613 377 588 348 c 1
 571 360 l 1
 605 399 642 416 690 416 c 0
EndSplineSet
EndChar

StartChar: uni00BE
Encoding: 190 190 125
Width: 892
Flags: W
LayerCount: 2
Fore
SplineSet
641 742 m 1
 659 733 l 1
 251 -66 l 1
 233 -57 l 1
 641 742 l 1
324 385 m 0
 324 314 273 264 194 264 c 0
 144 264 107 282 75 317 c 1
 90 328 l 1
 122 295 154 284 193 284 c 0
 264 284 302 326 302 384 c 0
 302 451 260 479 197 479 c 2
 172 479 l 1
 175 498 l 1
 195 498 l 2
 241 498 292 524 292 587 c 0
 292 638 255 669 200 669 c 0
 162 669 133 658 99 630 c 1
 86 643 l 1
 120 673 152 689 201 689 c 0
 269 689 314 647 314 588 c 0
 314 530 275 496 226 490 c 1
 280 488 324 452 324 385 c 0
827 132 m 1
 827 112 l 1
 769 112 l 1
 769 0 l 1
 747 0 l 1
 747 112 l 1
 556 112 l 1
 556 130 l 1
 688 418 l 1
 706 411 l 1
 578 132 l 1
 747 132 l 1
 750 259 l 1
 769 259 l 1
 769 132 l 1
 827 132 l 1
EndSplineSet
EndChar

StartChar: uni00BF
Encoding: 191 191 126
Width: 441
Flags: W
LayerCount: 2
Fore
SplineSet
249 406 m 0
 234 406 225 417 225 430 c 0
 225 442 234 453 249 453 c 0
 263 453 272 442 272 430 c 0
 272 417 263 406 249 406 c 0
209 -197 m 0
 115 -197 56 -136 56 -69 c 0
 56 78 239 63 239 206 c 2
 239 252 l 1
 261 252 l 1
 261 204 l 2
 261 50 79 67 79 -69 c 0
 79 -129 131 -176 209 -176 c 0
 277 -176 322 -152 369 -99 c 1
 385 -112 l 1
 335 -169 282 -197 209 -197 c 0
EndSplineSet
EndChar

StartChar: uni00C0
Encoding: 192 192 127
Width: 557
Flags: W
LayerCount: 2
Fore
SplineSet
373 779 m 1
 366 764 l 1
 187 838 l 1
 199 861 l 1
 373 779 l 1
505 0 m 1
 435 203 l 1
 121 203 l 1
 51 0 l 1
 28 0 l 1
 265 681 l 1
 292 681 l 1
 530 0 l 1
 505 0 l 1
128 224 m 1
 428 224 l 1
 278 663 l 1
 128 224 l 1
EndSplineSet
EndChar

StartChar: uni00C1
Encoding: 193 193 128
Width: 557
Flags: W
LayerCount: 2
Fore
SplineSet
371 838 m 1
 192 764 l 1
 185 779 l 1
 360 861 l 1
 371 838 l 1
505 0 m 1
 435 203 l 1
 121 203 l 1
 51 0 l 1
 28 0 l 1
 265 681 l 1
 292 681 l 1
 530 0 l 1
 505 0 l 1
128 224 m 1
 428 224 l 1
 278 663 l 1
 128 224 l 1
EndSplineSet
EndChar

StartChar: uni00C2
Encoding: 194 194 129
Width: 557
Flags: W
LayerCount: 2
Fore
SplineSet
279 845 m 1
 164 766 l 1
 153 780 l 1
 273 869 l 1
 285 869 l 1
 405 780 l 1
 393 766 l 1
 279 845 l 1
505 0 m 1
 435 203 l 1
 121 203 l 1
 51 0 l 1
 28 0 l 1
 265 681 l 1
 292 681 l 1
 530 0 l 1
 505 0 l 1
128 224 m 1
 428 224 l 1
 278 663 l 1
 128 224 l 1
EndSplineSet
EndChar

StartChar: uni00C3
Encoding: 195 195 130
Width: 557
Flags: W
LayerCount: 2
Fore
SplineSet
220 847 m 0
 196 847 181 837 160 812 c 1
 146 821 l 1
 168 851 190 867 220 867 c 0
 259 867 296 824 337 824 c 0
 360 824 375 835 396 865 c 1
 410 857 l 1
 389 819 366 804 337 804 c 0
 289 804 254 847 220 847 c 0
505 0 m 1
 435 203 l 1
 121 203 l 1
 51 0 l 1
 28 0 l 1
 265 681 l 1
 292 681 l 1
 530 0 l 1
 505 0 l 1
128 224 m 1
 428 224 l 1
 278 663 l 1
 128 224 l 1
EndSplineSet
EndChar

StartChar: uni00C4
Encoding: 196 196 131
Width: 557
Flags: W
LayerCount: 2
Fore
SplineSet
196 799 m 0
 184 799 176 807 176 818 c 0
 176 829 184 838 196 838 c 0
 208 838 216 829 216 818 c 0
 216 807 208 799 196 799 c 0
362 799 m 0
 349 799 341 807 341 818 c 0
 341 829 349 838 362 838 c 0
 374 838 381 829 381 818 c 0
 381 807 374 799 362 799 c 0
505 0 m 1
 435 203 l 1
 121 203 l 1
 51 0 l 1
 28 0 l 1
 265 681 l 1
 292 681 l 1
 530 0 l 1
 505 0 l 1
128 224 m 1
 428 224 l 1
 278 663 l 1
 128 224 l 1
EndSplineSet
EndChar

StartChar: uni00C5
Encoding: 197 197 132
Width: 557
Flags: W
LayerCount: 2
Fore
SplineSet
278 770 m 0
 230 770 199 801 199 848 c 0
 199 896 231 927 278 927 c 0
 327 927 358 896 358 849 c 0
 358 801 326 770 278 770 c 0
278 909 m 0
 241 909 220 886 220 848 c 0
 220 811 241 788 278 788 c 0
 316 788 337 811 337 849 c 0
 337 886 316 909 278 909 c 0
505 0 m 1
 435 203 l 1
 121 203 l 1
 51 0 l 1
 28 0 l 1
 265 681 l 1
 292 681 l 1
 530 0 l 1
 505 0 l 1
128 224 m 1
 428 224 l 1
 278 663 l 1
 128 224 l 1
EndSplineSet
EndChar

StartChar: uni00C6
Encoding: 198 198 133
Width: 755
Flags: W
LayerCount: 2
Fore
SplineSet
481 21 m 1
 712 21 l 1
 712 0 l 1
 464 0 l 1
 412 196 l 1
 110 196 l 1
 35 0 l 1
 12 0 l 1
 275 681 l 1
 659 681 l 1
 656 660 l 1
 313 660 l 1
 389 370 l 1
 651 370 l 1
 651 349 l 1
 395 349 l 1
 481 21 l 1
119 218 m 1
 406 218 l 1
 289 663 l 1
 119 218 l 1
EndSplineSet
EndChar

StartChar: uni00C7
Encoding: 199 199 134
Width: 538
Flags: W
LayerCount: 2
Fore
SplineSet
342 -74 m 1
 402 -77 433 -99 433 -140 c 0
 433 -187 393 -212 349 -212 c 0
 318 -212 298 -204 281 -194 c 1
 291 -177 l 1
 305 -186 323 -192 349 -192 c 0
 381 -192 410 -176 410 -140 c 0
 410 -107 383 -91 321 -90 c 1
 326 -10 l 1
 181 -1 78 121 78 340 c 0
 78 577 195 691 344 691 c 0
 419 691 463 668 505 633 c 1
 492 617 l 1
 449 651 411 670 346 670 c 0
 208 670 101 570 101 340 c 0
 101 123 205 12 342 12 c 0
 419 12 461 39 499 71 c 1
 513 54 l 1
 472 19 421 -10 343 -10 c 1
 342 -74 l 1
EndSplineSet
EndChar

StartChar: uni00C8
Encoding: 200 200 135
Width: 494
Flags: W
LayerCount: 2
Fore
SplineSet
208 861 m 1
 382 779 l 1
 375 764 l 1
 196 838 l 1
 208 861 l 1
444 681 m 1
 441 660 l 1
 146 660 l 1
 146 370 l 1
 400 370 l 1
 400 349 l 1
 146 349 l 1
 146 21 l 1
 451 21 l 1
 451 0 l 1
 123 0 l 1
 123 681 l 1
 444 681 l 1
EndSplineSet
EndChar

StartChar: uni00C9
Encoding: 201 201 136
Width: 494
Flags: W
LayerCount: 2
Fore
SplineSet
368 861 m 1
 379 838 l 1
 200 764 l 1
 193 779 l 1
 368 861 l 1
444 681 m 1
 441 660 l 1
 146 660 l 1
 146 370 l 1
 400 370 l 1
 400 349 l 1
 146 349 l 1
 146 21 l 1
 451 21 l 1
 451 0 l 1
 123 0 l 1
 123 681 l 1
 444 681 l 1
EndSplineSet
EndChar

StartChar: uni00CA
Encoding: 202 202 137
Width: 494
Flags: W
LayerCount: 2
Fore
SplineSet
172 766 m 1
 161 780 l 1
 281 869 l 1
 293 869 l 1
 413 780 l 1
 401 766 l 1
 287 845 l 1
 172 766 l 1
444 681 m 1
 441 660 l 1
 146 660 l 1
 146 370 l 1
 400 370 l 1
 400 349 l 1
 146 349 l 1
 146 21 l 1
 451 21 l 1
 451 0 l 1
 123 0 l 1
 123 681 l 1
 444 681 l 1
EndSplineSet
EndChar

StartChar: uni00CB
Encoding: 203 203 138
Width: 494
Flags: W
LayerCount: 2
Fore
SplineSet
204 838 m 0
 216 838 224 829 224 818 c 0
 224 807 216 799 204 799 c 0
 192 799 184 807 184 818 c 0
 184 829 192 838 204 838 c 0
370 838 m 0
 382 838 389 829 389 818 c 0
 389 807 382 799 370 799 c 0
 357 799 349 807 349 818 c 0
 349 829 357 838 370 838 c 0
444 681 m 1
 441 660 l 1
 146 660 l 1
 146 370 l 1
 400 370 l 1
 400 349 l 1
 146 349 l 1
 146 21 l 1
 451 21 l 1
 451 0 l 1
 123 0 l 1
 123 681 l 1
 444 681 l 1
EndSplineSet
EndChar

StartChar: uni00CC
Encoding: 204 204 139
Width: 268
Flags: W
LayerCount: 2
Fore
SplineSet
55 861 m 1
 229 779 l 1
 222 764 l 1
 43 838 l 1
 55 861 l 1
146 681 m 1
 146 0 l 1
 123 0 l 1
 123 681 l 1
 146 681 l 1
EndSplineSet
EndChar

StartChar: uni00CD
Encoding: 205 205 140
Width: 268
Flags: W
LayerCount: 2
Fore
SplineSet
215 861 m 1
 226 838 l 1
 47 764 l 1
 40 779 l 1
 215 861 l 1
146 681 m 1
 146 0 l 1
 123 0 l 1
 123 681 l 1
 146 681 l 1
EndSplineSet
EndChar

StartChar: uni00CE
Encoding: 206 206 141
Width: 268
Flags: W
LayerCount: 2
Fore
SplineSet
19 766 m 1
 8 780 l 1
 128 869 l 1
 140 869 l 1
 260 780 l 1
 248 766 l 1
 134 845 l 1
 19 766 l 1
146 681 m 1
 146 0 l 1
 123 0 l 1
 123 681 l 1
 146 681 l 1
EndSplineSet
EndChar

StartChar: uni00CF
Encoding: 207 207 142
Width: 268
Flags: W
LayerCount: 2
Fore
SplineSet
51 838 m 0
 63 838 71 829 71 818 c 0
 71 807 63 799 51 799 c 0
 39 799 31 807 31 818 c 0
 31 829 39 838 51 838 c 0
217 838 m 0
 229 838 236 829 236 818 c 0
 236 807 229 799 217 799 c 0
 204 799 196 807 196 818 c 0
 196 829 204 838 217 838 c 0
146 681 m 1
 146 0 l 1
 123 0 l 1
 123 681 l 1
 146 681 l 1
EndSplineSet
EndChar

StartChar: uni00D0
Encoding: 208 208 143
Width: 617
Flags: W
LayerCount: 2
Fore
SplineSet
242 681 m 2
 388 681 539 627 539 348 c 0
 539 63 382 0 246 0 c 2
 120 0 l 1
 120 341 l 1
 26 341 l 1
 26 363 l 1
 120 363 l 1
 120 681 l 1
 242 681 l 2
247 21 m 2
 378 21 516 82 516 348 c 0
 516 617 373 660 240 660 c 2
 143 660 l 1
 143 363 l 1
 335 363 l 1
 335 341 l 1
 143 341 l 1
 143 21 l 1
 247 21 l 2
EndSplineSet
EndChar

StartChar: uni00D1
Encoding: 209 209 144
Width: 661
Flags: W
LayerCount: 2
Fore
SplineSet
395 804 m 0
 347 804 312 847 278 847 c 0
 254 847 239 837 218 812 c 1
 204 821 l 1
 226 851 248 867 278 867 c 0
 317 867 354 824 395 824 c 0
 418 824 433 835 454 865 c 1
 468 857 l 1
 447 819 424 804 395 804 c 0
538 681 m 1
 538 0 l 1
 510 0 l 1
 142 656 l 1
 144 621 145 576 145 477 c 2
 145 0 l 1
 123 0 l 1
 123 681 l 1
 152 681 l 1
 519 26 l 1
 518 66 516 127 516 205 c 2
 516 681 l 1
 538 681 l 1
EndSplineSet
EndChar

StartChar: uni00D2
Encoding: 210 210 145
Width: 689
Flags: W
LayerCount: 2
Fore
SplineSet
265 861 m 1
 439 779 l 1
 432 764 l 1
 253 838 l 1
 265 861 l 1
344 691 m 0
 505 691 611 569 611 340 c 0
 611 119 511 -10 344 -10 c 0
 185 -10 78 115 78 339 c 0
 78 563 187 691 344 691 c 0
344 670 m 0
 200 670 101 554 101 339 c 0
 101 127 199 12 344 12 c 0
 498 12 588 127 588 340 c 0
 588 557 492 670 344 670 c 0
EndSplineSet
EndChar

StartChar: uni00D3
Encoding: 211 211 146
Width: 689
Flags: W
LayerCount: 2
Fore
SplineSet
426 861 m 1
 437 838 l 1
 258 764 l 1
 251 779 l 1
 426 861 l 1
344 691 m 0
 505 691 611 569 611 340 c 0
 611 119 511 -10 344 -10 c 0
 185 -10 78 115 78 339 c 0
 78 563 187 691 344 691 c 0
344 670 m 0
 200 670 101 554 101 339 c 0
 101 127 199 12 344 12 c 0
 498 12 588 127 588 340 c 0
 588 557 492 670 344 670 c 0
EndSplineSet
EndChar

StartChar: uni00D4
Encoding: 212 212 147
Width: 689
Flags: W
LayerCount: 2
Fore
SplineSet
230 766 m 1
 219 780 l 1
 339 869 l 1
 351 869 l 1
 471 780 l 1
 459 766 l 1
 345 845 l 1
 230 766 l 1
344 691 m 0
 505 691 611 569 611 340 c 0
 611 119 511 -10 344 -10 c 0
 185 -10 78 115 78 339 c 0
 78 563 187 691 344 691 c 0
344 670 m 0
 200 670 101 554 101 339 c 0
 101 127 199 12 344 12 c 0
 498 12 588 127 588 340 c 0
 588 557 492 670 344 670 c 0
EndSplineSet
EndChar

StartChar: uni00D5
Encoding: 213 213 148
Width: 689
Flags: W
LayerCount: 2
Fore
SplineSet
403 804 m 0
 355 804 320 847 286 847 c 0
 262 847 247 837 226 812 c 1
 212 821 l 1
 234 851 256 867 286 867 c 0
 325 867 362 824 403 824 c 0
 426 824 441 835 462 865 c 1
 476 857 l 1
 455 819 432 804 403 804 c 0
344 691 m 0
 505 691 611 569 611 340 c 0
 611 119 511 -10 344 -10 c 0
 185 -10 78 115 78 339 c 0
 78 563 187 691 344 691 c 0
344 670 m 0
 200 670 101 554 101 339 c 0
 101 127 199 12 344 12 c 0
 498 12 588 127 588 340 c 0
 588 557 492 670 344 670 c 0
EndSplineSet
EndChar

StartChar: uni00D6
Encoding: 214 214 149
Width: 689
Flags: W
LayerCount: 2
Fore
SplineSet
262 838 m 0
 274 838 282 829 282 818 c 0
 282 807 274 799 262 799 c 0
 250 799 242 807 242 818 c 0
 242 829 250 838 262 838 c 0
428 838 m 0
 440 838 447 829 447 818 c 0
 447 807 440 799 428 799 c 0
 415 799 407 807 407 818 c 0
 407 829 415 838 428 838 c 0
344 691 m 0
 505 691 611 569 611 340 c 0
 611 119 511 -10 344 -10 c 0
 185 -10 78 115 78 339 c 0
 78 563 187 691 344 691 c 0
344 670 m 0
 200 670 101 554 101 339 c 0
 101 127 199 12 344 12 c 0
 498 12 588 127 588 340 c 0
 588 557 492 670 344 670 c 0
EndSplineSet
EndChar

StartChar: uni00D7
Encoding: 215 215 150
Width: 485
Flags: W
LayerCount: 2
Fore
SplineSet
371 455 m 1
 387 440 l 1
 257 308 l 1
 387 175 l 1
 371 160 l 1
 243 293 l 1
 114 160 l 1
 98 175 l 1
 226 307 l 1
 98 440 l 1
 114 455 l 1
 241 321 l 1
 371 455 l 1
EndSplineSet
EndChar

StartChar: uni00D8
Encoding: 216 216 151
Width: 689
Flags: W
LayerCount: 2
Fore
SplineSet
450 670 m 1
 550 626 611 514 611 340 c 0
 611 119 511 -10 344 -10 c 0
 312 -10 282 -5 255 5 c 1
 224 -111 l 1
 201 -104 l 1
 237 12 l 1
 139 58 78 170 78 339 c 0
 78 563 187 691 344 691 c 0
 375 691 405 686 432 677 c 1
 432 678 l 1
 465 798 l 1
 488 792 l 1
 450 670 l 1
101 339 m 0
 101 180 156 76 245 33 c 1
 427 656 l 1
 402 665 374 670 344 670 c 0
 200 670 101 554 101 339 c 0
344 12 m 0
 498 12 588 127 588 340 c 0
 588 504 534 608 443 650 c 1
 261 26 l 1
 287 17 314 12 344 12 c 0
EndSplineSet
EndChar

StartChar: uni00D9
Encoding: 217 217 152
Width: 640
Flags: W
LayerCount: 2
Fore
SplineSet
241 861 m 1
 415 779 l 1
 408 764 l 1
 229 838 l 1
 241 861 l 1
528 681 m 1
 528 207 l 2
 528 82 467 -10 321 -10 c 0
 173 -10 113 82 113 207 c 2
 113 681 l 1
 136 681 l 1
 136 210 l 2
 136 93 188 12 321 12 c 0
 454 12 505 95 505 210 c 2
 505 681 l 1
 528 681 l 1
EndSplineSet
EndChar

StartChar: uni00DA
Encoding: 218 218 153
Width: 640
Flags: W
LayerCount: 2
Fore
SplineSet
402 861 m 1
 413 838 l 1
 234 764 l 1
 227 779 l 1
 402 861 l 1
528 681 m 1
 528 207 l 2
 528 82 467 -10 321 -10 c 0
 173 -10 113 82 113 207 c 2
 113 681 l 1
 136 681 l 1
 136 210 l 2
 136 93 188 12 321 12 c 0
 454 12 505 95 505 210 c 2
 505 681 l 1
 528 681 l 1
EndSplineSet
EndChar

StartChar: uni00DB
Encoding: 219 219 154
Width: 640
Flags: W
LayerCount: 2
Fore
SplineSet
205 766 m 1
 194 780 l 1
 314 869 l 1
 326 869 l 1
 446 780 l 1
 434 766 l 1
 320 845 l 1
 205 766 l 1
528 681 m 1
 528 207 l 2
 528 82 467 -10 321 -10 c 0
 173 -10 113 82 113 207 c 2
 113 681 l 1
 136 681 l 1
 136 210 l 2
 136 93 188 12 321 12 c 0
 454 12 505 95 505 210 c 2
 505 681 l 1
 528 681 l 1
EndSplineSet
EndChar

StartChar: uni00DC
Encoding: 220 220 155
Width: 640
Flags: W
LayerCount: 2
Fore
SplineSet
237 838 m 0
 249 838 257 829 257 818 c 0
 257 807 249 799 237 799 c 0
 225 799 217 807 217 818 c 0
 217 829 225 838 237 838 c 0
403 838 m 0
 415 838 422 829 422 818 c 0
 422 807 415 799 403 799 c 0
 390 799 382 807 382 818 c 0
 382 829 390 838 403 838 c 0
528 681 m 1
 528 207 l 2
 528 82 467 -10 321 -10 c 0
 173 -10 113 82 113 207 c 2
 113 681 l 1
 136 681 l 1
 136 210 l 2
 136 93 188 12 321 12 c 0
 454 12 505 95 505 210 c 2
 505 681 l 1
 528 681 l 1
EndSplineSet
EndChar

StartChar: uni00DD
Encoding: 221 221 156
Width: 494
Flags: W
LayerCount: 2
Fore
SplineSet
328 861 m 1
 339 838 l 1
 160 764 l 1
 153 779 l 1
 328 861 l 1
473 681 m 1
 260 271 l 1
 260 0 l 1
 237 0 l 1
 237 270 l 1
 21 681 l 1
 47 681 l 1
 249 292 l 1
 447 681 l 1
 473 681 l 1
EndSplineSet
EndChar

StartChar: uni00DE
Encoding: 222 222 157
Width: 558
Flags: W
LayerCount: 2
Fore
SplineSet
261 554 m 2
 416 554 501 496 501 355 c 0
 501 202 402 147 256 147 c 2
 146 147 l 1
 146 0 l 1
 123 0 l 1
 123 681 l 1
 146 681 l 1
 146 554 l 1
 261 554 l 2
258 168 m 2
 388 168 477 213 477 355 c 0
 477 485 402 533 261 533 c 2
 146 533 l 1
 146 168 l 1
 258 168 l 2
EndSplineSet
EndChar

StartChar: uni00DF
Encoding: 223 223 158
Width: 572
Flags: W
LayerCount: 2
Fore
SplineSet
291 737 m 0
 379 737 439 684 439 611 c 0
 439 503 318 489 318 421 c 0
 318 331 514 327 514 148 c 0
 514 55 460 -10 369 -10 c 0
 326 -10 299 0 277 12 c 1
 286 29 l 1
 305 19 328 11 368 11 c 0
 443 11 492 62 492 148 c 0
 492 320 296 314 296 421 c 0
 296 499 416 509 416 611 c 0
 416 673 368 716 291 716 c 0
 205 716 140 659 140 538 c 2
 140 0 l 1
 118 0 l 1
 118 541 l 2
 118 668 192 737 291 737 c 0
EndSplineSet
EndChar

StartChar: uni00E0
Encoding: 224 224 159
Width: 528
Flags: W
LayerCount: 2
Fore
SplineSet
348 670 m 1
 340 654 l 1
 162 738 l 1
 172 761 l 1
 348 670 l 1
410 110 m 2
 410 41 423 18 457 6 c 1
 451 -10 l 1
 410 3 392 29 391 91 c 1
 354 25 299 -10 222 -10 c 0
 124 -10 66 52 66 144 c 0
 66 250 147 308 270 308 c 2
 388 308 l 1
 388 370 l 2
 388 460 355 509 255 509 c 0
 209 509 163 497 112 476 c 1
 105 495 l 1
 158 517 205 529 255 529 c 0
 365 529 410 474 410 372 c 2
 410 110 l 2
222 11 m 0
 303 11 354 52 388 119 c 1
 388 288 l 1
 274 288 l 2
 160 288 90 239 90 144 c 0
 90 62 140 11 222 11 c 0
EndSplineSet
EndChar

StartChar: uni00E1
Encoding: 225 225 160
Width: 528
Flags: W
LayerCount: 2
Fore
SplineSet
338 738 m 1
 160 654 l 1
 152 670 l 1
 328 761 l 1
 338 738 l 1
410 110 m 2
 410 41 423 18 457 6 c 1
 451 -10 l 1
 410 3 392 29 391 91 c 1
 354 25 299 -10 222 -10 c 0
 124 -10 66 52 66 144 c 0
 66 250 147 308 270 308 c 2
 388 308 l 1
 388 370 l 2
 388 460 355 509 255 509 c 0
 209 509 163 497 112 476 c 1
 105 495 l 1
 158 517 205 529 255 529 c 0
 365 529 410 474 410 372 c 2
 410 110 l 2
222 11 m 0
 303 11 354 52 388 119 c 1
 388 288 l 1
 274 288 l 2
 160 288 90 239 90 144 c 0
 90 62 140 11 222 11 c 0
EndSplineSet
EndChar

StartChar: uni00E2
Encoding: 226 226 161
Width: 528
Flags: W
LayerCount: 2
Fore
SplineSet
254 738 m 1
 139 654 l 1
 128 667 l 1
 248 762 l 1
 260 762 l 1
 380 667 l 1
 368 654 l 1
 254 738 l 1
410 110 m 2
 410 41 423 18 457 6 c 1
 451 -10 l 1
 410 3 392 29 391 91 c 1
 354 25 299 -10 222 -10 c 0
 124 -10 66 52 66 144 c 0
 66 250 147 308 270 308 c 2
 388 308 l 1
 388 370 l 2
 388 460 355 509 255 509 c 0
 209 509 163 497 112 476 c 1
 105 495 l 1
 158 517 205 529 255 529 c 0
 365 529 410 474 410 372 c 2
 410 110 l 2
222 11 m 0
 303 11 354 52 388 119 c 1
 388 288 l 1
 274 288 l 2
 160 288 90 239 90 144 c 0
 90 62 140 11 222 11 c 0
EndSplineSet
EndChar

StartChar: uni00E3
Encoding: 227 227 162
Width: 528
Flags: W
LayerCount: 2
Fore
SplineSet
196 721 m 0
 172 721 157 711 136 686 c 1
 122 695 l 1
 144 725 166 741 196 741 c 0
 235 741 272 698 313 698 c 0
 336 698 351 709 372 739 c 1
 386 731 l 1
 365 693 342 678 313 678 c 0
 265 678 230 721 196 721 c 0
410 110 m 2
 410 41 423 18 457 6 c 1
 451 -10 l 1
 410 3 392 29 391 91 c 1
 354 25 299 -10 222 -10 c 0
 124 -10 66 52 66 144 c 0
 66 250 147 308 270 308 c 2
 388 308 l 1
 388 370 l 2
 388 460 355 509 255 509 c 0
 209 509 163 497 112 476 c 1
 105 495 l 1
 158 517 205 529 255 529 c 0
 365 529 410 474 410 372 c 2
 410 110 l 2
222 11 m 0
 303 11 354 52 388 119 c 1
 388 288 l 1
 274 288 l 2
 160 288 90 239 90 144 c 0
 90 62 140 11 222 11 c 0
EndSplineSet
EndChar

StartChar: uni00E4
Encoding: 228 228 163
Width: 528
Flags: W
LayerCount: 2
Fore
SplineSet
171 673 m 0
 159 673 151 681 151 692 c 0
 151 703 159 712 171 712 c 0
 183 712 191 703 191 692 c 0
 191 681 183 673 171 673 c 0
337 673 m 0
 324 673 316 681 316 692 c 0
 316 703 324 712 337 712 c 0
 349 712 356 703 356 692 c 0
 356 681 349 673 337 673 c 0
410 110 m 2
 410 41 423 18 457 6 c 1
 451 -10 l 1
 410 3 392 29 391 91 c 1
 354 25 299 -10 222 -10 c 0
 124 -10 66 52 66 144 c 0
 66 250 147 308 270 308 c 2
 388 308 l 1
 388 370 l 2
 388 460 355 509 255 509 c 0
 209 509 163 497 112 476 c 1
 105 495 l 1
 158 517 205 529 255 529 c 0
 365 529 410 474 410 372 c 2
 410 110 l 2
222 11 m 0
 303 11 354 52 388 119 c 1
 388 288 l 1
 274 288 l 2
 160 288 90 239 90 144 c 0
 90 62 140 11 222 11 c 0
EndSplineSet
EndChar

StartChar: uni00E5
Encoding: 229 229 164
Width: 528
Flags: W
LayerCount: 2
Fore
SplineSet
254 644 m 0
 206 644 175 675 175 722 c 0
 175 770 207 801 254 801 c 0
 303 801 334 770 334 723 c 0
 334 675 302 644 254 644 c 0
254 783 m 0
 217 783 196 760 196 722 c 0
 196 685 217 662 254 662 c 0
 292 662 313 685 313 723 c 0
 313 760 292 783 254 783 c 0
410 110 m 2
 410 41 423 18 457 6 c 1
 451 -10 l 1
 410 3 392 29 391 91 c 1
 354 25 299 -10 222 -10 c 0
 124 -10 66 52 66 144 c 0
 66 250 147 308 270 308 c 2
 388 308 l 1
 388 370 l 2
 388 460 355 509 255 509 c 0
 209 509 163 497 112 476 c 1
 105 495 l 1
 158 517 205 529 255 529 c 0
 365 529 410 474 410 372 c 2
 410 110 l 2
222 11 m 0
 303 11 354 52 388 119 c 1
 388 288 l 1
 274 288 l 2
 160 288 90 239 90 144 c 0
 90 62 140 11 222 11 c 0
EndSplineSet
EndChar

StartChar: uni00E6
Encoding: 230 230 165
Width: 842
Flags: W
LayerCount: 2
Fore
SplineSet
776 284 m 0
 776 270 775 257 774 246 c 1
 411 246 l 1
 416 87 490 11 595 11 c 0
 658 11 697 31 742 68 c 1
 754 51 l 1
 709 13 662 -10 595 -10 c 0
 511 -10 447 33 414 111 c 1
 357 24 301 -10 222 -10 c 0
 124 -10 66 52 66 144 c 0
 66 250 147 308 270 308 c 2
 388 308 l 1
 388 370 l 2
 388 460 355 509 255 509 c 0
 209 509 163 497 112 476 c 1
 105 495 l 1
 158 517 205 529 255 529 c 0
 359 529 405 480 410 389 c 1
 441 482 504 529 590 529 c 0
 716 529 776 429 776 284 c 0
754 265 m 1
 754 292 l 2
 754 418 703 509 591 509 c 0
 490 509 414 430 411 265 c 1
 754 265 l 1
222 11 m 0
 300 11 351 49 406 132 c 1
 394 167 388 209 388 255 c 2
 388 288 l 1
 274 288 l 2
 160 288 90 239 90 144 c 0
 90 62 140 11 222 11 c 0
EndSplineSet
EndChar

StartChar: uni00E7
Encoding: 231 231 166
Width: 464
Flags: W
LayerCount: 2
Fore
SplineSet
286 -74 m 1
 346 -77 377 -99 377 -140 c 0
 377 -187 337 -212 293 -212 c 0
 262 -212 242 -204 225 -194 c 1
 235 -177 l 1
 249 -186 267 -192 293 -192 c 0
 325 -192 354 -176 354 -140 c 0
 354 -107 327 -91 265 -90 c 1
 270 -10 l 1
 153 -2 73 93 73 257 c 0
 73 426 156 529 283 529 c 0
 339 529 379 514 418 479 c 1
 405 464 l 1
 372 493 335 509 284 509 c 0
 174 509 96 421 96 257 c 0
 96 95 175 11 283 11 c 0
 337 11 377 30 410 59 c 1
 423 44 l 1
 388 13 343 -9 287 -10 c 1
 286 -74 l 1
EndSplineSet
EndChar

StartChar: uni00E8
Encoding: 232 232 167
Width: 526
Flags: W
LayerCount: 2
Fore
SplineSet
369 670 m 1
 361 654 l 1
 183 738 l 1
 193 761 l 1
 369 670 l 1
461 284 m 0
 461 270 460 257 459 246 c 1
 96 246 l 1
 101 87 175 11 280 11 c 0
 342 11 382 31 427 68 c 1
 439 51 l 1
 394 13 347 -10 280 -10 c 0
 154 -10 73 87 73 255 c 0
 73 426 152 529 272 529 c 0
 400 529 461 429 461 284 c 0
439 265 m 1
 439 292 l 2
 439 418 388 509 274 509 c 0
 175 509 99 430 96 265 c 1
 439 265 l 1
EndSplineSet
EndChar

StartChar: uni00E9
Encoding: 233 233 168
Width: 526
Flags: W
LayerCount: 2
Fore
SplineSet
359 738 m 1
 181 654 l 1
 173 670 l 1
 349 761 l 1
 359 738 l 1
461 284 m 0
 461 270 460 257 459 246 c 1
 96 246 l 1
 101 87 175 11 280 11 c 0
 342 11 382 31 427 68 c 1
 439 51 l 1
 394 13 347 -10 280 -10 c 0
 154 -10 73 87 73 255 c 0
 73 426 152 529 272 529 c 0
 400 529 461 429 461 284 c 0
439 265 m 1
 439 292 l 2
 439 418 388 509 274 509 c 0
 175 509 99 430 96 265 c 1
 439 265 l 1
EndSplineSet
EndChar

StartChar: uni00EA
Encoding: 234 234 169
Width: 526
Flags: W
LayerCount: 2
Fore
SplineSet
274 738 m 1
 159 654 l 1
 148 667 l 1
 268 762 l 1
 280 762 l 1
 400 667 l 1
 388 654 l 1
 274 738 l 1
461 284 m 0
 461 270 460 257 459 246 c 1
 96 246 l 1
 101 87 175 11 280 11 c 0
 342 11 382 31 427 68 c 1
 439 51 l 1
 394 13 347 -10 280 -10 c 0
 154 -10 73 87 73 255 c 0
 73 426 152 529 272 529 c 0
 400 529 461 429 461 284 c 0
439 265 m 1
 439 292 l 2
 439 418 388 509 274 509 c 0
 175 509 99 430 96 265 c 1
 439 265 l 1
EndSplineSet
EndChar

StartChar: uni00EB
Encoding: 235 235 170
Width: 526
Flags: W
LayerCount: 2
Fore
SplineSet
191 673 m 0
 179 673 171 681 171 692 c 0
 171 703 179 712 191 712 c 0
 203 712 211 703 211 692 c 0
 211 681 203 673 191 673 c 0
357 673 m 0
 344 673 336 681 336 692 c 0
 336 703 344 712 357 712 c 0
 369 712 376 703 376 692 c 0
 376 681 369 673 357 673 c 0
461 284 m 0
 461 270 460 257 459 246 c 1
 96 246 l 1
 101 87 175 11 280 11 c 0
 342 11 382 31 427 68 c 1
 439 51 l 1
 394 13 347 -10 280 -10 c 0
 154 -10 73 87 73 255 c 0
 73 426 152 529 272 529 c 0
 400 529 461 429 461 284 c 0
439 265 m 1
 439 292 l 2
 439 418 388 509 274 509 c 0
 175 509 99 430 96 265 c 1
 439 265 l 1
EndSplineSet
EndChar

StartChar: uni00EC
Encoding: 236 236 171
Width: 258
Flags: W
LayerCount: 2
Fore
SplineSet
47 761 m 1
 223 670 l 1
 215 654 l 1
 37 738 l 1
 47 761 l 1
140 519 m 1
 140 0 l 1
 118 0 l 1
 118 519 l 1
 140 519 l 1
EndSplineSet
EndChar

StartChar: uni00ED
Encoding: 237 237 172
Width: 258
Flags: W
LayerCount: 2
Fore
SplineSet
203 761 m 1
 213 738 l 1
 35 654 l 1
 27 670 l 1
 203 761 l 1
140 519 m 1
 140 0 l 1
 118 0 l 1
 118 519 l 1
 140 519 l 1
EndSplineSet
EndChar

StartChar: uni00EE
Encoding: 238 238 173
Width: 258
Flags: W
LayerCount: 2
Fore
SplineSet
14 654 m 1
 3 667 l 1
 123 762 l 1
 135 762 l 1
 255 667 l 1
 243 654 l 1
 129 738 l 1
 14 654 l 1
140 519 m 1
 140 0 l 1
 118 0 l 1
 118 519 l 1
 140 519 l 1
EndSplineSet
EndChar

StartChar: uni00EF
Encoding: 239 239 174
Width: 258
Flags: W
LayerCount: 2
Fore
SplineSet
46 712 m 0
 58 712 66 703 66 692 c 0
 66 681 58 673 46 673 c 0
 34 673 26 681 26 692 c 0
 26 703 34 712 46 712 c 0
212 712 m 0
 224 712 231 703 231 692 c 0
 231 681 224 673 212 673 c 0
 199 673 191 681 191 692 c 0
 191 703 199 712 212 712 c 0
140 519 m 1
 140 0 l 1
 118 0 l 1
 118 519 l 1
 140 519 l 1
EndSplineSet
EndChar

StartChar: uni00F0
Encoding: 240 240 175
Width: 543
Flags: W
LayerCount: 2
Fore
SplineSet
307 666 m 1
 406 591 465 483 465 301 c 0
 465 87 388 -10 268 -10 c 0
 143 -10 73 86 73 230 c 0
 73 352 140 461 260 461 c 0
 335 461 394 422 441 361 c 1
 432 486 384 580 292 651 c 1
 210 566 l 1
 191 573 l 1
 278 662 l 1
 241 687 191 709 144 718 c 1
 149 738 l 1
 197 727 247 707 292 676 c 1
 358 746 l 1
 373 734 l 1
 307 666 l 1
268 11 m 0
 379 11 442 107 442 303 c 2
 442 334 l 1
 393 399 333 441 261 441 c 0
 157 441 96 347 96 229 c 0
 96 94 159 11 268 11 c 0
EndSplineSet
EndChar

StartChar: uni00F1
Encoding: 241 241 176
Width: 581
Flags: W
LayerCount: 2
Fore
SplineSet
239 721 m 0
 215 721 200 711 179 686 c 1
 165 695 l 1
 187 725 209 741 239 741 c 0
 278 741 315 698 356 698 c 0
 379 698 394 709 415 739 c 1
 429 731 l 1
 408 693 385 678 356 678 c 0
 308 678 273 721 239 721 c 0
330 529 m 0
 425 529 469 471 469 369 c 2
 469 0 l 1
 447 0 l 1
 447 367 l 2
 447 461 409 509 330 509 c 0
 246 509 189 459 140 384 c 1
 140 0 l 1
 118 0 l 1
 118 519 l 1
 137 519 l 1
 139 413 l 1
 186 483 248 529 330 529 c 0
EndSplineSet
EndChar

StartChar: uni00F2
Encoding: 242 242 177
Width: 560
Flags: W
LayerCount: 2
Fore
SplineSet
199 761 m 1
 375 670 l 1
 367 654 l 1
 189 738 l 1
 199 761 l 1
281 529 m 0
 408 529 488 434 488 262 c 0
 488 89 406 -10 280 -10 c 0
 151 -10 73 91 73 259 c 0
 73 431 156 529 281 529 c 0
281 509 m 0
 169 509 96 422 96 259 c 0
 96 101 165 11 280 11 c 0
 393 11 465 99 465 262 c 0
 465 421 396 509 281 509 c 0
EndSplineSet
EndChar

StartChar: uni00F3
Encoding: 243 243 178
Width: 560
Flags: W
LayerCount: 2
Fore
SplineSet
355 761 m 1
 365 738 l 1
 187 654 l 1
 179 670 l 1
 355 761 l 1
281 529 m 0
 408 529 488 434 488 262 c 0
 488 89 406 -10 280 -10 c 0
 151 -10 73 91 73 259 c 0
 73 431 156 529 281 529 c 0
281 509 m 0
 169 509 96 422 96 259 c 0
 96 101 165 11 280 11 c 0
 393 11 465 99 465 262 c 0
 465 421 396 509 281 509 c 0
EndSplineSet
EndChar

StartChar: uni00F4
Encoding: 244 244 179
Width: 560
Flags: W
LayerCount: 2
Fore
SplineSet
166 654 m 1
 155 667 l 1
 275 762 l 1
 287 762 l 1
 407 667 l 1
 395 654 l 1
 281 738 l 1
 166 654 l 1
281 529 m 0
 408 529 488 434 488 262 c 0
 488 89 406 -10 280 -10 c 0
 151 -10 73 91 73 259 c 0
 73 431 156 529 281 529 c 0
281 509 m 0
 169 509 96 422 96 259 c 0
 96 101 165 11 280 11 c 0
 393 11 465 99 465 262 c 0
 465 421 396 509 281 509 c 0
EndSplineSet
EndChar

StartChar: uni00F5
Encoding: 245 245 180
Width: 560
Flags: W
LayerCount: 2
Fore
SplineSet
340 678 m 0
 292 678 257 721 223 721 c 0
 199 721 184 711 163 686 c 1
 149 695 l 1
 171 725 193 741 223 741 c 0
 262 741 299 698 340 698 c 0
 363 698 378 709 399 739 c 1
 413 731 l 1
 392 693 369 678 340 678 c 0
281 529 m 0
 408 529 488 434 488 262 c 0
 488 89 406 -10 280 -10 c 0
 151 -10 73 91 73 259 c 0
 73 431 156 529 281 529 c 0
281 509 m 0
 169 509 96 422 96 259 c 0
 96 101 165 11 280 11 c 0
 393 11 465 99 465 262 c 0
 465 421 396 509 281 509 c 0
EndSplineSet
EndChar

StartChar: uni00F6
Encoding: 246 246 181
Width: 560
Flags: W
LayerCount: 2
Fore
SplineSet
198 712 m 0
 210 712 218 703 218 692 c 0
 218 681 210 673 198 673 c 0
 186 673 178 681 178 692 c 0
 178 703 186 712 198 712 c 0
364 712 m 0
 376 712 383 703 383 692 c 0
 383 681 376 673 364 673 c 0
 351 673 343 681 343 692 c 0
 343 703 351 712 364 712 c 0
281 529 m 0
 408 529 488 434 488 262 c 0
 488 89 406 -10 280 -10 c 0
 151 -10 73 91 73 259 c 0
 73 431 156 529 281 529 c 0
281 509 m 0
 169 509 96 422 96 259 c 0
 96 101 165 11 280 11 c 0
 393 11 465 99 465 262 c 0
 465 421 396 509 281 509 c 0
EndSplineSet
EndChar

StartChar: uni00F7
Encoding: 247 247 182
Width: 485
Flags: W
LayerCount: 2
Fore
SplineSet
243 561 m 0
 257 561 266 551 266 538 c 0
 266 525 257 515 243 515 c 0
 229 515 219 525 219 538 c 0
 219 551 229 561 243 561 c 0
78 320 m 1
 78 341 l 1
 407 341 l 1
 407 320 l 1
 78 320 l 1
243 146 m 0
 257 146 266 136 266 123 c 0
 266 110 257 100 243 100 c 0
 229 100 219 110 219 123 c 0
 219 136 229 146 243 146 c 0
EndSplineSet
EndChar

StartChar: uni00F8
Encoding: 248 248 183
Width: 560
Flags: W
LayerCount: 2
Fore
SplineSet
374 508 m 1
 446 471 488 387 488 262 c 0
 488 89 406 -10 280 -10 c 0
 253 -10 229 -6 206 3 c 1
 164 -118 l 1
 145 -113 l 1
 187 11 l 1
 115 49 73 136 73 259 c 0
 73 431 156 529 281 529 c 0
 308 529 333 525 355 516 c 1
 395 639 l 1
 415 633 l 1
 374 508 l 1
96 259 m 0
 96 145 132 67 195 32 c 1
 349 497 l 1
 328 505 306 509 281 509 c 0
 169 509 96 422 96 259 c 0
280 11 m 0
 393 11 465 100 465 262 c 0
 465 376 429 454 367 488 c 1
 213 23 l 1
 233 15 256 11 280 11 c 0
EndSplineSet
EndChar

StartChar: uni00F9
Encoding: 249 249 184
Width: 576
Flags: W
LayerCount: 2
Fore
SplineSet
205 761 m 1
 381 670 l 1
 373 654 l 1
 195 738 l 1
 205 761 l 1
459 519 m 1
 459 0 l 1
 439 0 l 1
 439 106 l 1
 403 41 345 -10 259 -10 c 0
 167 -10 113 46 113 149 c 2
 113 519 l 1
 135 519 l 1
 135 151 l 2
 135 56 181 11 262 11 c 0
 342 11 396 61 437 133 c 1
 437 519 l 1
 459 519 l 1
EndSplineSet
EndChar

StartChar: uni00FA
Encoding: 250 250 185
Width: 576
Flags: W
LayerCount: 2
Fore
SplineSet
361 761 m 1
 371 738 l 1
 193 654 l 1
 185 670 l 1
 361 761 l 1
459 519 m 1
 459 0 l 1
 439 0 l 1
 439 106 l 1
 403 41 345 -10 259 -10 c 0
 167 -10 113 46 113 149 c 2
 113 519 l 1
 135 519 l 1
 135 151 l 2
 135 56 181 11 262 11 c 0
 342 11 396 61 437 133 c 1
 437 519 l 1
 459 519 l 1
EndSplineSet
EndChar

StartChar: uni00FB
Encoding: 251 251 186
Width: 576
Flags: W
LayerCount: 2
Fore
SplineSet
172 654 m 1
 161 667 l 1
 281 762 l 1
 293 762 l 1
 413 667 l 1
 401 654 l 1
 287 738 l 1
 172 654 l 1
459 519 m 1
 459 0 l 1
 439 0 l 1
 439 106 l 1
 403 41 345 -10 259 -10 c 0
 167 -10 113 46 113 149 c 2
 113 519 l 1
 135 519 l 1
 135 151 l 2
 135 56 181 11 262 11 c 0
 342 11 396 61 437 133 c 1
 437 519 l 1
 459 519 l 1
EndSplineSet
EndChar

StartChar: uni00FC
Encoding: 252 252 187
Width: 576
Flags: W
LayerCount: 2
Fore
SplineSet
204 712 m 0
 216 712 224 703 224 692 c 0
 224 681 216 673 204 673 c 0
 192 673 184 681 184 692 c 0
 184 703 192 712 204 712 c 0
370 712 m 0
 382 712 389 703 389 692 c 0
 389 681 382 673 370 673 c 0
 357 673 349 681 349 692 c 0
 349 703 357 712 370 712 c 0
459 519 m 1
 459 0 l 1
 439 0 l 1
 439 106 l 1
 403 41 345 -10 259 -10 c 0
 167 -10 113 46 113 149 c 2
 113 519 l 1
 135 519 l 1
 135 151 l 2
 135 56 181 11 262 11 c 0
 342 11 396 61 437 133 c 1
 437 519 l 1
 459 519 l 1
EndSplineSet
EndChar

StartChar: uni00FD
Encoding: 253 253 188
Width: 444
Flags: W
LayerCount: 2
Fore
SplineSet
296 761 m 1
 306 738 l 1
 128 654 l 1
 120 670 l 1
 296 761 l 1
421 519 m 1
 240 -1 l 2
 200 -116 169 -163 59 -195 c 1
 56 -177 l 1
 159 -146 181 -103 219 0 c 1
 211 0 l 1
 23 519 l 1
 47 519 l 1
 225 17 l 1
 396 519 l 1
 421 519 l 1
EndSplineSet
EndChar

StartChar: uni00FE
Encoding: 254 254 189
Width: 564
Flags: W
LayerCount: 2
Fore
SplineSet
308 529 m 0
 426 529 491 435 491 264 c 0
 491 94 426 -10 303 -10 c 0
 228 -10 174 31 140 80 c 1
 140 -192 l 1
 118 -196 l 1
 118 733 l 1
 140 736 l 1
 140 435 l 1
 179 490 232 529 308 529 c 0
302 11 m 0
 410 11 469 103 469 264 c 0
 469 424 413 509 308 509 c 0
 231 509 184 469 140 410 c 1
 140 106 l 1
 179 50 230 11 302 11 c 0
EndSplineSet
EndChar

StartChar: uni00FF
Encoding: 255 255 190
Width: 444
Flags: W
LayerCount: 2
Fore
SplineSet
139 712 m 0
 151 712 159 703 159 692 c 0
 159 681 151 673 139 673 c 0
 127 673 119 681 119 692 c 0
 119 703 127 712 139 712 c 0
305 712 m 0
 317 712 324 703 324 692 c 0
 324 681 317 673 305 673 c 0
 292 673 284 681 284 692 c 0
 284 703 292 712 305 712 c 0
421 519 m 1
 240 -1 l 2
 200 -116 169 -163 59 -195 c 1
 56 -177 l 1
 159 -146 181 -103 219 0 c 1
 211 0 l 1
 23 519 l 1
 47 519 l 1
 225 17 l 1
 396 519 l 1
 421 519 l 1
EndSplineSet
EndChar

StartChar: uni0100
Encoding: 256 256 191
Width: 557
Flags: W
LayerCount: 2
Fore
SplineSet
382 832 m 1
 382 811 l 1
 175 811 l 1
 175 832 l 1
 382 832 l 1
505 0 m 1
 435 203 l 1
 121 203 l 1
 51 0 l 1
 28 0 l 1
 265 681 l 1
 292 681 l 1
 530 0 l 1
 505 0 l 1
128 224 m 1
 428 224 l 1
 278 663 l 1
 128 224 l 1
EndSplineSet
EndChar

StartChar: uni0101
Encoding: 257 257 192
Width: 528
Flags: W
LayerCount: 2
Fore
SplineSet
358 706 m 1
 358 685 l 1
 151 685 l 1
 151 706 l 1
 358 706 l 1
410 110 m 2
 410 41 423 18 457 6 c 1
 451 -10 l 1
 410 3 392 29 391 91 c 1
 354 25 299 -10 222 -10 c 0
 124 -10 66 52 66 144 c 0
 66 250 147 308 270 308 c 2
 388 308 l 1
 388 370 l 2
 388 460 355 509 255 509 c 0
 209 509 163 497 112 476 c 1
 105 495 l 1
 158 517 205 529 255 529 c 0
 365 529 410 474 410 372 c 2
 410 110 l 2
222 11 m 0
 303 11 354 52 388 119 c 1
 388 288 l 1
 274 288 l 2
 160 288 90 239 90 144 c 0
 90 62 140 11 222 11 c 0
EndSplineSet
EndChar

StartChar: uni0102
Encoding: 258 258 193
Width: 557
Flags: W
LayerCount: 2
Fore
SplineSet
279 771 m 0
 221 771 181 807 171 847 c 1
 187 851 l 1
 200 817 232 792 279 792 c 0
 326 792 359 817 371 851 c 1
 387 847 l 1
 378 807 338 771 279 771 c 0
505 0 m 1
 435 203 l 1
 121 203 l 1
 51 0 l 1
 28 0 l 1
 265 681 l 1
 292 681 l 1
 530 0 l 1
 505 0 l 1
128 224 m 1
 428 224 l 1
 278 663 l 1
 128 224 l 1
EndSplineSet
EndChar

StartChar: uni0103
Encoding: 259 259 194
Width: 528
Flags: W
LayerCount: 2
Fore
SplineSet
254 662 m 0
 196 662 156 699 146 748 c 1
 162 752 l 1
 175 708 207 684 254 684 c 0
 301 684 334 708 346 752 c 1
 362 748 l 1
 353 699 313 662 254 662 c 0
410 110 m 2
 410 41 423 18 457 6 c 1
 451 -10 l 1
 410 3 392 29 391 91 c 1
 354 25 299 -10 222 -10 c 0
 124 -10 66 52 66 144 c 0
 66 250 147 308 270 308 c 2
 388 308 l 1
 388 370 l 2
 388 460 355 509 255 509 c 0
 209 509 163 497 112 476 c 1
 105 495 l 1
 158 517 205 529 255 529 c 0
 365 529 410 474 410 372 c 2
 410 110 l 2
222 11 m 0
 303 11 354 52 388 119 c 1
 388 288 l 1
 274 288 l 2
 160 288 90 239 90 144 c 0
 90 62 140 11 222 11 c 0
EndSplineSet
EndChar

StartChar: uni0104
Encoding: 260 260 195
Width: 557
Flags: W
LayerCount: 2
Fore
SplineSet
529 0 m 1
 458 -31 404 -63 404 -122 c 0
 404 -158 427 -181 474 -181 c 0
 492 -181 508 -179 529 -174 c 1
 527 -196 l 1
 507 -201 492 -203 473 -203 c 0
 410 -203 380 -169 380 -123 c 0
 380 -65 429 -27 503 5 c 1
 435 203 l 1
 121 203 l 1
 51 0 l 1
 28 0 l 1
 265 681 l 1
 292 681 l 1
 530 0 l 1
 529 0 l 1
128 224 m 1
 428 224 l 1
 278 663 l 1
 128 224 l 1
EndSplineSet
EndChar

StartChar: uni0105
Encoding: 261 261 196
Width: 528
Flags: W
LayerCount: 2
Fore
SplineSet
451 -10 m 1
 380 -41 326 -73 326 -132 c 0
 326 -168 349 -191 396 -191 c 0
 414 -191 430 -189 451 -184 c 1
 449 -206 l 1
 429 -211 414 -213 395 -213 c 0
 332 -213 302 -179 302 -133 c 0
 302 -73 354 -35 432 -2 c 1
 404 14 392 40 391 91 c 1
 354 25 299 -10 222 -10 c 0
 124 -10 66 52 66 144 c 0
 66 250 147 308 270 308 c 2
 388 308 l 1
 388 370 l 2
 388 460 355 509 255 509 c 0
 209 509 163 497 112 476 c 1
 105 495 l 1
 158 517 205 529 255 529 c 0
 365 529 410 474 410 372 c 2
 410 110 l 2
 410 41 423 18 457 6 c 1
 451 -10 l 1
222 11 m 0
 303 11 354 52 388 119 c 1
 388 288 l 1
 274 288 l 2
 160 288 90 239 90 144 c 0
 90 62 140 11 222 11 c 0
EndSplineSet
EndChar

StartChar: uni0106
Encoding: 262 262 197
Width: 538
Flags: W
LayerCount: 2
Fore
SplineSet
423 861 m 1
 434 838 l 1
 255 764 l 1
 248 779 l 1
 423 861 l 1
344 691 m 0
 419 691 463 668 505 633 c 1
 492 617 l 1
 449 651 411 670 346 670 c 0
 208 670 101 570 101 340 c 0
 101 123 205 12 342 12 c 0
 419 12 461 39 499 71 c 1
 513 54 l 1
 472 19 421 -10 342 -10 c 0
 189 -10 78 113 78 340 c 0
 78 577 195 691 344 691 c 0
EndSplineSet
EndChar

StartChar: uni0107
Encoding: 263 263 198
Width: 464
Flags: W
LayerCount: 2
Fore
SplineSet
355 761 m 1
 365 738 l 1
 187 654 l 1
 179 670 l 1
 355 761 l 1
283 529 m 0
 339 529 379 514 418 479 c 1
 405 464 l 1
 372 493 335 509 284 509 c 0
 174 509 96 421 96 257 c 0
 96 95 175 11 283 11 c 0
 337 11 377 30 410 59 c 1
 423 44 l 1
 387 12 342 -10 284 -10 c 0
 159 -10 73 87 73 257 c 0
 73 426 156 529 283 529 c 0
EndSplineSet
EndChar

StartChar: uni0108
Encoding: 264 264 199
Width: 538
Flags: W
LayerCount: 2
Fore
SplineSet
227 766 m 1
 216 780 l 1
 336 869 l 1
 348 869 l 1
 468 780 l 1
 456 766 l 1
 342 845 l 1
 227 766 l 1
344 691 m 0
 419 691 463 668 505 633 c 1
 492 617 l 1
 449 651 411 670 346 670 c 0
 208 670 101 570 101 340 c 0
 101 123 205 12 342 12 c 0
 419 12 461 39 499 71 c 1
 513 54 l 1
 472 19 421 -10 342 -10 c 0
 189 -10 78 113 78 340 c 0
 78 577 195 691 344 691 c 0
EndSplineSet
EndChar

StartChar: uni0109
Encoding: 265 265 200
Width: 464
Flags: W
LayerCount: 2
Fore
SplineSet
166 654 m 1
 155 667 l 1
 275 762 l 1
 287 762 l 1
 407 667 l 1
 395 654 l 1
 281 738 l 1
 166 654 l 1
283 529 m 0
 339 529 379 514 418 479 c 1
 405 464 l 1
 372 493 335 509 284 509 c 0
 174 509 96 421 96 257 c 0
 96 95 175 11 283 11 c 0
 337 11 377 30 410 59 c 1
 423 44 l 1
 387 12 342 -10 284 -10 c 0
 159 -10 73 87 73 257 c 0
 73 426 156 529 283 529 c 0
EndSplineSet
EndChar

StartChar: uni010A
Encoding: 266 266 201
Width: 538
Flags: W
LayerCount: 2
Fore
SplineSet
342 850 m 0
 356 850 363 840 363 830 c 0
 363 820 356 811 342 811 c 0
 330 811 322 820 322 830 c 0
 322 840 330 850 342 850 c 0
344 691 m 0
 419 691 463 668 505 633 c 1
 492 617 l 1
 449 651 411 670 346 670 c 0
 208 670 101 570 101 340 c 0
 101 123 205 12 342 12 c 0
 419 12 461 39 499 71 c 1
 513 54 l 1
 472 19 421 -10 342 -10 c 0
 189 -10 78 113 78 340 c 0
 78 577 195 691 344 691 c 0
EndSplineSet
EndChar

StartChar: uni010B
Encoding: 267 267 202
Width: 464
Flags: W
LayerCount: 2
Fore
SplineSet
280 724 m 0
 294 724 301 714 301 704 c 0
 301 694 294 685 280 685 c 0
 268 685 260 694 260 704 c 0
 260 714 268 724 280 724 c 0
283 529 m 0
 339 529 379 514 418 479 c 1
 405 464 l 1
 372 493 335 509 284 509 c 0
 174 509 96 421 96 257 c 0
 96 95 175 11 283 11 c 0
 337 11 377 30 410 59 c 1
 423 44 l 1
 387 12 342 -10 284 -10 c 0
 159 -10 73 87 73 257 c 0
 73 426 156 529 283 529 c 0
EndSplineSet
EndChar

StartChar: uni010C
Encoding: 268 268 203
Width: 538
Flags: W
LayerCount: 2
Fore
SplineSet
456 863 m 1
 468 850 l 1
 348 760 l 1
 336 760 l 1
 216 850 l 1
 227 863 l 1
 342 784 l 1
 456 863 l 1
344 691 m 0
 419 691 463 668 505 633 c 1
 492 617 l 1
 449 651 411 670 346 670 c 0
 208 670 101 570 101 340 c 0
 101 123 205 12 342 12 c 0
 419 12 461 39 499 71 c 1
 513 54 l 1
 472 19 421 -10 342 -10 c 0
 189 -10 78 113 78 340 c 0
 78 577 195 691 344 691 c 0
EndSplineSet
EndChar

StartChar: uni010D
Encoding: 269 269 204
Width: 464
Flags: W
LayerCount: 2
Fore
SplineSet
395 749 m 1
 407 736 l 1
 287 641 l 1
 275 641 l 1
 155 736 l 1
 166 749 l 1
 281 665 l 1
 395 749 l 1
283 529 m 0
 339 529 379 514 418 479 c 1
 405 464 l 1
 372 493 335 509 284 509 c 0
 174 509 96 421 96 257 c 0
 96 95 175 11 283 11 c 0
 337 11 377 30 410 59 c 1
 423 44 l 1
 387 12 342 -10 284 -10 c 0
 159 -10 73 87 73 257 c 0
 73 426 156 529 283 529 c 0
EndSplineSet
EndChar

StartChar: uni010E
Encoding: 270 270 205
Width: 619
Flags: W
LayerCount: 2
Fore
SplineSet
409 863 m 1
 421 850 l 1
 301 760 l 1
 289 760 l 1
 169 850 l 1
 180 863 l 1
 295 784 l 1
 409 863 l 1
245 681 m 2
 390 681 542 627 542 348 c 0
 542 63 384 0 249 0 c 2
 123 0 l 1
 123 681 l 1
 245 681 l 2
243 660 m 2
 146 660 l 1
 146 21 l 1
 250 21 l 2
 380 21 518 82 518 348 c 0
 518 617 376 660 243 660 c 2
EndSplineSet
EndChar

StartChar: uni010F
Encoding: 271 271 206
Width: 569
Flags: W
LayerCount: 2
Fore
SplineSet
429 446 m 1
 429 736 l 1
 451 733 l 1
 451 0 l 1
 432 0 l 1
 429 89 l 1
 400 36 351 -10 265 -10 c 0
 149 -10 73 89 73 258 c 0
 73 418 148 529 275 529 c 0
 356 529 402 487 429 446 c 1
544 735 m 1
 568 733 l 1
 541 588 l 1
 526 591 l 1
 544 735 l 1
266 11 m 0
 347 11 394 54 429 123 c 1
 429 418 l 1
 399 465 352 509 276 509 c 0
 168 509 95 413 96 258 c 0
 96 101 162 11 266 11 c 0
EndSplineSet
EndChar

StartChar: uni0110
Encoding: 272 272 207
Width: 617
Flags: W
LayerCount: 2
Fore
SplineSet
242 681 m 2
 388 681 539 627 539 348 c 0
 539 63 382 0 246 0 c 2
 120 0 l 1
 120 341 l 1
 26 341 l 1
 26 363 l 1
 120 363 l 1
 120 681 l 1
 242 681 l 2
247 21 m 2
 378 21 516 82 516 348 c 0
 516 617 373 660 240 660 c 2
 143 660 l 1
 143 363 l 1
 335 363 l 1
 335 341 l 1
 143 341 l 1
 143 21 l 1
 247 21 l 2
EndSplineSet
EndChar

StartChar: uni0111
Encoding: 273 273 208
Width: 579
Flags: W
LayerCount: 2
Fore
SplineSet
451 649 m 1
 531 649 l 1
 531 629 l 1
 451 629 l 1
 451 0 l 1
 432 0 l 1
 429 89 l 1
 400 36 351 -10 265 -10 c 0
 149 -10 73 89 73 258 c 0
 73 418 148 529 275 529 c 0
 356 529 402 487 429 446 c 1
 429 629 l 1
 261 629 l 1
 261 649 l 1
 429 649 l 1
 429 736 l 1
 451 733 l 1
 451 649 l 1
266 11 m 0
 347 11 394 54 429 123 c 1
 429 418 l 1
 399 465 352 509 276 509 c 0
 168 509 95 413 96 258 c 0
 96 101 162 11 266 11 c 0
EndSplineSet
EndChar

StartChar: uni0112
Encoding: 274 274 209
Width: 494
Flags: W
LayerCount: 2
Fore
SplineSet
390 811 m 1
 183 811 l 1
 183 832 l 1
 390 832 l 1
 390 811 l 1
444 681 m 1
 441 660 l 1
 146 660 l 1
 146 370 l 1
 400 370 l 1
 400 349 l 1
 146 349 l 1
 146 21 l 1
 451 21 l 1
 451 0 l 1
 123 0 l 1
 123 681 l 1
 444 681 l 1
EndSplineSet
EndChar

StartChar: uni0113
Encoding: 275 275 210
Width: 526
Flags: W
LayerCount: 2
Fore
SplineSet
378 706 m 1
 378 685 l 1
 171 685 l 1
 171 706 l 1
 378 706 l 1
461 284 m 0
 461 270 460 257 459 246 c 1
 96 246 l 1
 101 87 175 11 280 11 c 0
 342 11 382 31 427 68 c 1
 439 51 l 1
 394 13 347 -10 280 -10 c 0
 154 -10 73 87 73 255 c 0
 73 426 152 529 272 529 c 0
 400 529 461 429 461 284 c 0
439 265 m 1
 439 292 l 2
 439 418 388 509 274 509 c 0
 175 509 99 430 96 265 c 1
 439 265 l 1
EndSplineSet
EndChar

StartChar: uni0114
Encoding: 276 276 211
Width: 494
Flags: W
LayerCount: 2
Fore
SplineSet
287 771 m 0
 229 771 189 807 179 847 c 1
 195 851 l 1
 208 817 240 792 287 792 c 0
 334 792 367 817 379 851 c 1
 395 847 l 1
 386 807 346 771 287 771 c 0
444 681 m 1
 441 660 l 1
 146 660 l 1
 146 370 l 1
 400 370 l 1
 400 349 l 1
 146 349 l 1
 146 21 l 1
 451 21 l 1
 451 0 l 1
 123 0 l 1
 123 681 l 1
 444 681 l 1
EndSplineSet
EndChar

StartChar: uni0115
Encoding: 277 277 212
Width: 526
Flags: W
LayerCount: 2
Fore
SplineSet
274 662 m 0
 216 662 176 699 166 748 c 1
 182 752 l 1
 195 708 227 684 274 684 c 0
 321 684 354 708 366 752 c 1
 382 748 l 1
 373 699 333 662 274 662 c 0
461 284 m 0
 461 270 460 257 459 246 c 1
 96 246 l 1
 101 87 175 11 280 11 c 0
 342 11 382 31 427 68 c 1
 439 51 l 1
 394 13 347 -10 280 -10 c 0
 154 -10 73 87 73 255 c 0
 73 426 152 529 272 529 c 0
 400 529 461 429 461 284 c 0
439 265 m 1
 439 292 l 2
 439 418 388 509 274 509 c 0
 175 509 99 430 96 265 c 1
 439 265 l 1
EndSplineSet
EndChar

StartChar: uni0116
Encoding: 278 278 213
Width: 494
Flags: W
LayerCount: 2
Fore
SplineSet
287 850 m 0
 301 850 308 840 308 830 c 0
 308 820 301 811 287 811 c 0
 275 811 267 820 267 830 c 0
 267 840 275 850 287 850 c 0
444 681 m 1
 441 660 l 1
 146 660 l 1
 146 370 l 1
 400 370 l 1
 400 349 l 1
 146 349 l 1
 146 21 l 1
 451 21 l 1
 451 0 l 1
 123 0 l 1
 123 681 l 1
 444 681 l 1
EndSplineSet
EndChar

StartChar: uni0117
Encoding: 279 279 214
Width: 526
Flags: W
LayerCount: 2
Fore
SplineSet
274 685 m 0
 262 685 254 694 254 704 c 0
 254 714 262 724 274 724 c 0
 288 724 295 714 295 704 c 0
 295 694 288 685 274 685 c 0
461 284 m 0
 461 270 460 257 459 246 c 1
 96 246 l 1
 101 87 175 11 280 11 c 0
 342 11 382 31 427 68 c 1
 439 51 l 1
 394 13 347 -10 280 -10 c 0
 154 -10 73 87 73 255 c 0
 73 426 152 529 272 529 c 0
 400 529 461 429 461 284 c 0
439 265 m 1
 439 292 l 2
 439 418 388 509 274 509 c 0
 175 509 99 430 96 265 c 1
 439 265 l 1
EndSplineSet
EndChar

StartChar: uni0118
Encoding: 280 280 215
Width: 494
Flags: W
LayerCount: 2
Fore
SplineSet
146 21 m 1
 451 21 l 1
 451 0 l 1
 424 0 l 1
 353 -31 299 -63 299 -122 c 0
 299 -158 322 -181 369 -181 c 0
 387 -181 403 -179 424 -174 c 1
 422 -196 l 1
 402 -201 387 -203 368 -203 c 0
 305 -203 275 -169 275 -123 c 0
 275 -68 319 -31 386 0 c 1
 123 0 l 1
 123 681 l 1
 444 681 l 1
 441 660 l 1
 146 660 l 1
 146 370 l 1
 400 370 l 1
 400 349 l 1
 146 349 l 1
 146 21 l 1
EndSplineSet
EndChar

StartChar: uni0119
Encoding: 281 281 216
Width: 526
Flags: W
LayerCount: 2
Fore
SplineSet
461 284 m 0
 461 270 460 257 459 246 c 1
 96 246 l 1
 101 87 175 11 280 11 c 0
 342 11 382 31 427 68 c 1
 439 51 l 1
 412 28 384 11 352 0 c 0
 286 -29 237 -61 237 -116 c 0
 237 -153 263 -176 309 -176 c 0
 327 -176 341 -174 362 -169 c 1
 360 -191 l 1
 339 -196 325 -198 306 -198 c 0
 243 -198 213 -164 213 -116 c 0
 213 -70 245 -37 299 -9 c 1
 293 -10 287 -10 280 -10 c 0
 154 -10 73 87 73 255 c 0
 73 426 152 529 272 529 c 0
 400 529 461 429 461 284 c 0
439 265 m 1
 439 292 l 2
 439 418 388 509 274 509 c 0
 175 509 99 430 96 265 c 1
 439 265 l 1
EndSplineSet
EndChar

StartChar: uni011A
Encoding: 282 282 217
Width: 494
Flags: W
LayerCount: 2
Fore
SplineSet
401 863 m 1
 413 850 l 1
 293 760 l 1
 281 760 l 1
 161 850 l 1
 172 863 l 1
 287 784 l 1
 401 863 l 1
444 681 m 1
 441 660 l 1
 146 660 l 1
 146 370 l 1
 400 370 l 1
 400 349 l 1
 146 349 l 1
 146 21 l 1
 451 21 l 1
 451 0 l 1
 123 0 l 1
 123 681 l 1
 444 681 l 1
EndSplineSet
EndChar

StartChar: uni011B
Encoding: 283 283 218
Width: 526
Flags: W
LayerCount: 2
Fore
SplineSet
281 641 m 1
 269 641 l 1
 149 736 l 1
 160 749 l 1
 275 665 l 1
 389 749 l 1
 401 736 l 1
 281 641 l 1
461 284 m 0
 461 270 460 257 459 246 c 1
 96 246 l 1
 101 87 175 11 280 11 c 0
 342 11 382 31 427 68 c 1
 439 51 l 1
 394 13 347 -10 280 -10 c 0
 154 -10 73 87 73 255 c 0
 73 426 152 529 272 529 c 0
 400 529 461 429 461 284 c 0
439 265 m 1
 439 292 l 2
 439 418 388 509 274 509 c 0
 175 509 99 430 96 265 c 1
 439 265 l 1
EndSplineSet
EndChar

StartChar: uni011C
Encoding: 284 284 219
Width: 605
Flags: W
LayerCount: 2
Fore
SplineSet
230 766 m 1
 219 780 l 1
 339 869 l 1
 351 869 l 1
 471 780 l 1
 459 766 l 1
 345 845 l 1
 230 766 l 1
348 691 m 0
 417 691 465 672 516 632 c 1
 503 616 l 1
 455 653 409 670 348 670 c 0
 228 670 101 576 101 345 c 0
 101 122 202 12 353 12 c 0
 419 12 467 28 510 53 c 1
 510 333 l 1
 365 333 l 1
 362 354 l 1
 533 354 l 1
 533 41 l 1
 480 10 418 -10 353 -10 c 0
 189 -10 78 110 78 345 c 0
 78 583 215 691 348 691 c 0
EndSplineSet
EndChar

StartChar: uni011D
Encoding: 285 285 220
Width: 495
Flags: W
LayerCount: 2
Fore
SplineSet
130 654 m 1
 119 667 l 1
 239 762 l 1
 251 762 l 1
 371 667 l 1
 359 654 l 1
 245 738 l 1
 130 654 l 1
463 550 m 1
 471 526 l 1
 440 518 396 512 318 512 c 1
 382 490 422 440 422 356 c 0
 422 254 354 190 245 190 c 0
 217 190 192 196 171 204 c 1
 139 186 119 161 119 129 c 0
 119 91 147 64 218 64 c 2
 305 64 l 2
 403 64 458 15 458 -57 c 0
 458 -145 393 -197 251 -197 c 0
 107 -197 44 -159 44 -58 c 1
 66 -58 l 1
 68 -146 117 -176 251 -176 c 0
 381 -176 436 -132 436 -58 c 0
 436 5 387 43 304 43 c 2
 216 43 l 2
 137 43 96 78 96 126 c 0
 96 163 120 191 153 212 c 1
 97 241 66 287 66 358 c 0
 66 461 135 529 243 529 c 0
 393 528 422 537 463 550 c 1
244 509 m 0
 142 509 88 446 88 358 c 0
 88 260 160 210 245 210 c 0
 341 210 399 263 399 356 c 0
 399 453 340 509 244 509 c 0
EndSplineSet
EndChar

StartChar: uni011E
Encoding: 286 286 221
Width: 605
Flags: W
LayerCount: 2
Fore
SplineSet
345 771 m 0
 287 771 247 807 237 847 c 1
 253 851 l 1
 266 817 298 792 345 792 c 0
 392 792 425 817 437 851 c 1
 453 847 l 1
 444 807 404 771 345 771 c 0
348 691 m 0
 417 691 465 672 516 632 c 1
 503 616 l 1
 455 653 409 670 348 670 c 0
 228 670 101 576 101 345 c 0
 101 122 202 12 353 12 c 0
 419 12 467 28 510 53 c 1
 510 333 l 1
 365 333 l 1
 362 354 l 1
 533 354 l 1
 533 41 l 1
 480 10 418 -10 353 -10 c 0
 189 -10 78 110 78 345 c 0
 78 583 215 691 348 691 c 0
EndSplineSet
EndChar

StartChar: uni011F
Encoding: 287 287 222
Width: 495
Flags: W
LayerCount: 2
Fore
SplineSet
245 662 m 0
 187 662 147 699 137 748 c 1
 153 752 l 1
 166 708 198 684 245 684 c 0
 292 684 325 708 337 752 c 1
 353 748 l 1
 344 699 304 662 245 662 c 0
463 550 m 1
 471 526 l 1
 440 518 396 512 318 512 c 1
 382 490 422 440 422 356 c 0
 422 254 354 190 245 190 c 0
 217 190 192 196 171 204 c 1
 139 186 119 161 119 129 c 0
 119 91 147 64 218 64 c 2
 305 64 l 2
 403 64 458 15 458 -57 c 0
 458 -145 393 -197 251 -197 c 0
 107 -197 44 -159 44 -58 c 1
 66 -58 l 1
 68 -146 117 -176 251 -176 c 0
 381 -176 436 -132 436 -58 c 0
 436 5 387 43 304 43 c 2
 216 43 l 2
 137 43 96 78 96 126 c 0
 96 163 120 191 153 212 c 1
 97 241 66 287 66 358 c 0
 66 461 135 529 243 529 c 0
 393 528 422 537 463 550 c 1
244 509 m 0
 142 509 88 446 88 358 c 0
 88 260 160 210 245 210 c 0
 341 210 399 263 399 356 c 0
 399 453 340 509 244 509 c 0
EndSplineSet
EndChar

StartChar: uni0120
Encoding: 288 288 223
Width: 605
Flags: W
LayerCount: 2
Fore
SplineSet
345 850 m 0
 359 850 366 840 366 830 c 0
 366 820 359 811 345 811 c 0
 333 811 325 820 325 830 c 0
 325 840 333 850 345 850 c 0
348 691 m 0
 417 691 465 672 516 632 c 1
 503 616 l 1
 455 653 409 670 348 670 c 0
 228 670 101 576 101 345 c 0
 101 122 202 12 353 12 c 0
 419 12 467 28 510 53 c 1
 510 333 l 1
 365 333 l 1
 362 354 l 1
 533 354 l 1
 533 41 l 1
 480 10 418 -10 353 -10 c 0
 189 -10 78 110 78 345 c 0
 78 583 215 691 348 691 c 0
EndSplineSet
EndChar

StartChar: uni0121
Encoding: 289 289 224
Width: 495
Flags: W
LayerCount: 2
Fore
SplineSet
244 724 m 0
 258 724 265 714 265 704 c 0
 265 694 258 685 244 685 c 0
 232 685 224 694 224 704 c 0
 224 714 232 724 244 724 c 0
463 550 m 1
 471 526 l 1
 440 518 396 512 318 512 c 1
 382 490 422 440 422 356 c 0
 422 254 354 190 245 190 c 0
 217 190 192 196 171 204 c 1
 139 186 119 161 119 129 c 0
 119 91 147 64 218 64 c 2
 305 64 l 2
 403 64 458 15 458 -57 c 0
 458 -145 393 -197 251 -197 c 0
 107 -197 44 -159 44 -58 c 1
 66 -58 l 1
 68 -146 117 -176 251 -176 c 0
 381 -176 436 -132 436 -58 c 0
 436 5 387 43 304 43 c 2
 216 43 l 2
 137 43 96 78 96 126 c 0
 96 163 120 191 153 212 c 1
 97 241 66 287 66 358 c 0
 66 461 135 529 243 529 c 0
 393 528 422 537 463 550 c 1
244 509 m 0
 142 509 88 446 88 358 c 0
 88 260 160 210 245 210 c 0
 341 210 399 263 399 356 c 0
 399 453 340 509 244 509 c 0
EndSplineSet
EndChar

StartChar: uni0122
Encoding: 290 290 225
Width: 605
Flags: W
LayerCount: 2
Fore
SplineSet
348 691 m 0
 417 691 465 672 516 632 c 1
 503 616 l 1
 455 653 409 670 348 670 c 0
 228 670 101 576 101 345 c 0
 101 122 202 12 353 12 c 0
 419 12 467 28 510 53 c 1
 510 333 l 1
 365 333 l 1
 362 354 l 1
 533 354 l 1
 533 41 l 1
 480 10 418 -10 353 -10 c 0
 189 -10 78 110 78 345 c 0
 78 583 215 691 348 691 c 0
335 -96 m 0
 352 -96 360 -106 360 -119 c 0
 360 -131 357 -139 346 -162 c 2
 311 -258 l 1
 296 -258 l 1
 327 -142 l 1
 316 -138 311 -131 311 -119 c 0
 311 -106 321 -96 335 -96 c 0
EndSplineSet
EndChar

StartChar: uni0123
Encoding: 291 291 226
Width: 495
Flags: W
LayerCount: 2
Fore
SplineSet
238 594 m 0
 221 594 213 605 213 618 c 0
 213 630 217 637 227 661 c 2
 262 756 l 1
 277 756 l 1
 246 641 l 1
 257 637 262 630 262 618 c 0
 262 605 252 594 238 594 c 0
463 550 m 1
 471 526 l 1
 440 518 396 512 318 512 c 1
 382 490 422 440 422 356 c 0
 422 254 354 190 245 190 c 0
 217 190 192 196 171 204 c 1
 139 186 119 161 119 129 c 0
 119 91 147 64 218 64 c 2
 305 64 l 2
 403 64 458 15 458 -57 c 0
 458 -145 393 -197 251 -197 c 0
 107 -197 44 -159 44 -58 c 1
 66 -58 l 1
 68 -146 117 -176 251 -176 c 0
 381 -176 436 -132 436 -58 c 0
 436 5 387 43 304 43 c 2
 216 43 l 2
 137 43 96 78 96 126 c 0
 96 163 120 191 153 212 c 1
 97 241 66 287 66 358 c 0
 66 461 135 529 243 529 c 0
 393 528 422 537 463 550 c 1
244 509 m 0
 142 509 88 446 88 358 c 0
 88 260 160 210 245 210 c 0
 341 210 399 263 399 356 c 0
 399 453 340 509 244 509 c 0
EndSplineSet
EndChar

StartChar: uni0124
Encoding: 292 292 227
Width: 660
Flags: W
LayerCount: 2
Fore
SplineSet
213 766 m 1
 202 780 l 1
 322 869 l 1
 334 869 l 1
 454 780 l 1
 442 766 l 1
 328 845 l 1
 213 766 l 1
514 0 m 1
 514 349 l 1
 146 349 l 1
 146 0 l 1
 123 0 l 1
 123 681 l 1
 146 681 l 1
 146 371 l 1
 514 371 l 1
 514 681 l 1
 537 681 l 1
 537 0 l 1
 514 0 l 1
EndSplineSet
EndChar

StartChar: uni0125
Encoding: 293 293 228
Width: 581
Flags: W
LayerCount: 2
Fore
SplineSet
295 896 m 1
 180 817 l 1
 169 831 l 1
 289 920 l 1
 301 920 l 1
 421 831 l 1
 409 817 l 1
 295 896 l 1
330 529 m 0
 424 529 469 469 469 369 c 2
 469 0 l 1
 447 0 l 1
 447 367 l 2
 447 459 409 509 330 509 c 0
 246 509 189 459 140 384 c 1
 140 0 l 1
 118 0 l 1
 118 733 l 1
 140 736 l 1
 140 414 l 1
 187 484 248 529 330 529 c 0
EndSplineSet
EndChar

StartChar: uni0126
Encoding: 294 294 229
Width: 664
Flags: W
LayerCount: 2
Fore
SplineSet
599 538 m 1
 599 520 l 1
 539 520 l 1
 539 0 l 1
 516 0 l 1
 516 349 l 1
 148 349 l 1
 148 0 l 1
 125 0 l 1
 125 520 l 1
 65 520 l 1
 65 538 l 1
 125 538 l 1
 125 681 l 1
 148 681 l 1
 148 538 l 1
 516 538 l 1
 516 681 l 1
 539 681 l 1
 539 538 l 1
 599 538 l 1
516 371 m 1
 516 520 l 1
 148 520 l 1
 148 371 l 1
 516 371 l 1
EndSplineSet
EndChar

StartChar: uni0127
Encoding: 295 295 230
Width: 586
Flags: W
LayerCount: 2
Fore
SplineSet
335 529 m 0
 429 529 474 469 474 369 c 2
 474 0 l 1
 452 0 l 1
 452 367 l 2
 452 459 414 509 335 509 c 0
 251 509 194 459 145 384 c 1
 145 0 l 1
 123 0 l 1
 123 629 l 1
 48 629 l 1
 48 649 l 1
 123 649 l 1
 123 733 l 1
 145 736 l 1
 145 649 l 1
 327 649 l 1
 327 629 l 1
 145 629 l 1
 145 414 l 1
 192 484 253 529 335 529 c 0
EndSplineSet
EndChar

StartChar: uni0128
Encoding: 296 296 231
Width: 268
Flags: W
LayerCount: 2
Fore
SplineSet
192 804 m 0
 144 804 109 847 75 847 c 0
 51 847 36 837 15 812 c 1
 1 821 l 1
 23 851 45 867 75 867 c 0
 114 867 151 824 192 824 c 0
 215 824 230 835 251 865 c 1
 265 857 l 1
 244 819 221 804 192 804 c 0
146 681 m 1
 146 0 l 1
 123 0 l 1
 123 681 l 1
 146 681 l 1
EndSplineSet
EndChar

StartChar: uni0129
Encoding: 297 297 232
Width: 258
Flags: W
LayerCount: 2
Fore
SplineSet
188 678 m 0
 140 678 105 721 71 721 c 0
 47 721 32 711 11 686 c 1
 -3 695 l 1
 19 725 41 741 71 741 c 0
 110 741 147 698 188 698 c 0
 211 698 226 709 247 739 c 1
 261 731 l 1
 240 693 217 678 188 678 c 0
140 519 m 1
 140 0 l 1
 118 0 l 1
 118 519 l 1
 140 519 l 1
EndSplineSet
EndChar

StartChar: uni012A
Encoding: 298 298 233
Width: 268
Flags: W
LayerCount: 2
Fore
SplineSet
237 811 m 1
 30 811 l 1
 30 832 l 1
 237 832 l 1
 237 811 l 1
146 681 m 1
 146 0 l 1
 123 0 l 1
 123 681 l 1
 146 681 l 1
EndSplineSet
EndChar

StartChar: uni012B
Encoding: 299 299 234
Width: 258
Flags: W
LayerCount: 2
Fore
SplineSet
232 685 m 1
 25 685 l 1
 25 706 l 1
 232 706 l 1
 232 685 l 1
140 519 m 1
 140 0 l 1
 118 0 l 1
 118 519 l 1
 140 519 l 1
EndSplineSet
EndChar

StartChar: uni012C
Encoding: 300 300 235
Width: 268
Flags: W
LayerCount: 2
Fore
SplineSet
134 771 m 0
 76 771 36 807 26 847 c 1
 42 851 l 1
 55 817 87 792 134 792 c 0
 181 792 214 817 226 851 c 1
 242 847 l 1
 233 807 193 771 134 771 c 0
146 681 m 1
 146 0 l 1
 123 0 l 1
 123 681 l 1
 146 681 l 1
EndSplineSet
EndChar

StartChar: uni012D
Encoding: 301 301 236
Width: 258
Flags: W
LayerCount: 2
Fore
SplineSet
129 662 m 0
 71 662 31 699 21 748 c 1
 37 752 l 1
 50 708 82 684 129 684 c 0
 176 684 209 708 221 752 c 1
 237 748 l 1
 228 699 188 662 129 662 c 0
140 519 m 1
 140 0 l 1
 118 0 l 1
 118 519 l 1
 140 519 l 1
EndSplineSet
EndChar

StartChar: uni012E
Encoding: 302 302 237
Width: 268
Flags: W
LayerCount: 2
Fore
SplineSet
123 681 m 1
 146 681 l 1
 146 0 l 1
 145 0 l 1
 74 -31 20 -63 20 -122 c 0
 20 -158 43 -181 90 -181 c 0
 108 -181 124 -179 145 -174 c 1
 143 -196 l 1
 123 -201 108 -203 89 -203 c 0
 26 -203 -4 -169 -4 -123 c 0
 -4 -64 47 -25 123 7 c 1
 123 681 l 1
EndSplineSet
EndChar

StartChar: uni012F
Encoding: 303 303 238
Width: 258
Flags: W
LayerCount: 2
Fore
SplineSet
129 724 m 0
 143 724 150 714 150 704 c 0
 150 694 143 685 129 685 c 0
 117 685 109 694 109 704 c 0
 109 714 117 724 129 724 c 0
118 7 m 1
 118 519 l 1
 140 519 l 1
 140 0 l 1
 69 -31 15 -63 15 -122 c 0
 15 -158 38 -181 85 -181 c 0
 103 -181 119 -179 140 -174 c 1
 138 -196 l 1
 118 -201 103 -203 84 -203 c 0
 21 -203 -9 -169 -9 -123 c 0
 -9 -64 42 -25 118 7 c 1
EndSplineSet
EndChar

StartChar: uni0130
Encoding: 304 304 239
Width: 268
Flags: W
LayerCount: 2
Fore
SplineSet
134 850 m 0
 148 850 155 840 155 830 c 0
 155 820 148 811 134 811 c 0
 122 811 114 820 114 830 c 0
 114 840 122 850 134 850 c 0
146 681 m 1
 146 0 l 1
 123 0 l 1
 123 681 l 1
 146 681 l 1
EndSplineSet
EndChar

StartChar: uni0131
Encoding: 305 305 240
Width: 258
Flags: W
LayerCount: 2
Fore
SplineSet
140 519 m 1
 140 0 l 1
 118 0 l 1
 118 519 l 1
 140 519 l 1
EndSplineSet
EndChar

StartChar: uni0132
Encoding: 306 306 241
Width: 546
Flags: W
LayerCount: 2
Fore
SplineSet
146 681 m 1
 146 0 l 1
 123 0 l 1
 123 681 l 1
 146 681 l 1
429 681 m 1
 429 87 l 2
 429 -13 406 -53 298 -100 c 1
 291 -83 l 1
 384 -40 406 -4 406 89 c 2
 406 681 l 1
 429 681 l 1
EndSplineSet
EndChar

StartChar: uni0133
Encoding: 307 307 242
Width: 516
Flags: W
LayerCount: 2
Fore
SplineSet
129 724 m 0
 143 724 150 714 150 704 c 0
 150 694 143 685 129 685 c 0
 117 685 109 694 109 704 c 0
 109 714 117 724 129 724 c 0
387 724 m 0
 400 724 407 714 407 704 c 0
 407 694 400 685 387 685 c 0
 374 685 367 694 367 704 c 0
 367 714 374 724 387 724 c 0
140 519 m 1
 140 0 l 1
 118 0 l 1
 118 519 l 1
 140 519 l 1
399 519 m 1
 399 6 l 2
 399 -122 363 -155 286 -195 c 1
 280 -178 l 1
 348 -142 377 -111 377 7 c 2
 377 519 l 1
 399 519 l 1
EndSplineSet
EndChar

StartChar: uni0134
Encoding: 308 308 243
Width: 277
Flags: W
LayerCount: 2
Fore
SplineSet
33 766 m 1
 22 780 l 1
 142 869 l 1
 154 869 l 1
 274 780 l 1
 262 766 l 1
 148 845 l 1
 33 766 l 1
161 681 m 1
 161 87 l 2
 161 -13 138 -53 30 -100 c 1
 23 -83 l 1
 116 -40 138 -4 138 89 c 2
 138 681 l 1
 161 681 l 1
EndSplineSet
EndChar

StartChar: uni0135
Encoding: 309 309 244
Width: 258
Flags: W
LayerCount: 2
Fore
SplineSet
14 654 m 1
 3 667 l 1
 123 762 l 1
 135 762 l 1
 255 667 l 1
 243 654 l 1
 129 738 l 1
 14 654 l 1
141 519 m 1
 141 6 l 2
 141 -122 105 -155 28 -195 c 1
 22 -178 l 1
 90 -142 119 -111 119 7 c 2
 119 519 l 1
 141 519 l 1
EndSplineSet
EndChar

StartChar: uni0136
Encoding: 310 310 245
Width: 510
Flags: W
LayerCount: 2
Fore
SplineSet
146 681 m 1
 146 0 l 1
 123 0 l 1
 123 681 l 1
 146 681 l 1
490 681 m 1
 178 367 l 1
 506 0 l 1
 478 0 l 1
 149 367 l 1
 463 681 l 1
 490 681 l 1
293 -96 m 0
 310 -96 318 -106 318 -119 c 0
 318 -131 315 -139 304 -162 c 2
 269 -258 l 1
 254 -258 l 1
 285 -142 l 1
 274 -138 269 -131 269 -119 c 0
 269 -106 279 -96 293 -96 c 0
EndSplineSet
EndChar

StartChar: uni0137
Encoding: 311 311 246
Width: 463
Flags: W
LayerCount: 2
Fore
SplineSet
140 736 m 1
 140 0 l 1
 118 0 l 1
 118 733 l 1
 140 736 l 1
420 519 m 1
 174 284 l 1
 445 0 l 1
 418 0 l 1
 146 284 l 1
 392 519 l 1
 420 519 l 1
267 -96 m 0
 284 -96 292 -106 292 -119 c 0
 292 -131 289 -139 278 -162 c 2
 243 -258 l 1
 228 -258 l 1
 259 -142 l 1
 248 -138 243 -131 243 -119 c 0
 243 -106 253 -96 267 -96 c 0
EndSplineSet
EndChar

StartChar: uni0138
Encoding: 312 312 247
Width: 462
Flags: W
LayerCount: 2
Fore
SplineSet
140 519 m 1
 140 0 l 1
 118 0 l 1
 118 519 l 1
 140 519 l 1
420 519 m 1
 173 274 l 1
 445 0 l 1
 417 0 l 1
 145 274 l 1
 392 519 l 1
 420 519 l 1
EndSplineSet
EndChar

StartChar: uni0139
Encoding: 313 313 248
Width: 456
Flags: W
LayerCount: 2
Fore
SplineSet
216 861 m 1
 227 838 l 1
 48 764 l 1
 41 779 l 1
 216 861 l 1
146 681 m 1
 146 22 l 1
 434 22 l 1
 430 0 l 1
 123 0 l 1
 123 681 l 1
 146 681 l 1
EndSplineSet
EndChar

StartChar: uni013A
Encoding: 314 314 249
Width: 285
Flags: W
LayerCount: 2
Fore
SplineSet
205 912 m 1
 216 889 l 1
 37 815 l 1
 30 830 l 1
 205 912 l 1
185 -10 m 0
 142 -10 113 16 113 72 c 2
 113 733 l 1
 135 736 l 1
 135 73 l 2
 135 32 152 11 186 11 c 0
 200 11 214 14 226 19 c 1
 232 0 l 1
 219 -5 203 -10 185 -10 c 0
EndSplineSet
EndChar

StartChar: uni013B
Encoding: 315 315 250
Width: 456
Flags: W
LayerCount: 2
Fore
SplineSet
146 681 m 1
 146 22 l 1
 434 22 l 1
 430 0 l 1
 123 0 l 1
 123 681 l 1
 146 681 l 1
277 -96 m 0
 294 -96 302 -106 302 -119 c 0
 302 -131 299 -139 288 -162 c 2
 253 -258 l 1
 238 -258 l 1
 269 -142 l 1
 258 -138 253 -131 253 -119 c 0
 253 -106 263 -96 277 -96 c 0
EndSplineSet
EndChar

StartChar: uni013C
Encoding: 316 316 251
Width: 285
Flags: W
LayerCount: 2
Fore
SplineSet
185 -10 m 0
 142 -10 113 16 113 72 c 2
 113 733 l 1
 135 736 l 1
 135 73 l 2
 135 32 152 11 186 11 c 0
 200 11 214 14 226 19 c 1
 232 0 l 1
 219 -5 203 -10 185 -10 c 0
177 -96 m 0
 194 -96 202 -106 202 -119 c 0
 202 -131 199 -139 188 -162 c 2
 153 -258 l 1
 138 -258 l 1
 169 -142 l 1
 158 -138 153 -131 153 -119 c 0
 153 -106 163 -96 177 -96 c 0
EndSplineSet
EndChar

StartChar: uni013D
Encoding: 317 317 252
Width: 456
Flags: W
LayerCount: 2
Fore
SplineSet
236 537 m 1
 262 682 l 1
 238 684 l 1
 220 540 l 1
 236 537 l 1
146 681 m 1
 146 22 l 1
 434 22 l 1
 430 0 l 1
 123 0 l 1
 123 681 l 1
 146 681 l 1
EndSplineSet
EndChar

StartChar: uni013E
Encoding: 318 318 253
Width: 285
Flags: W
LayerCount: 2
Fore
SplineSet
185 -10 m 0
 142 -10 113 16 113 72 c 2
 113 733 l 1
 135 736 l 1
 135 73 l 2
 135 32 152 11 186 11 c 0
 200 11 214 14 226 19 c 1
 232 0 l 1
 219 -5 203 -10 185 -10 c 0
227 588 m 1
 254 733 l 1
 230 735 l 1
 212 591 l 1
 227 588 l 1
EndSplineSet
EndChar

StartChar: uni013F
Encoding: 319 319 254
Width: 456
Flags: W
LayerCount: 2
Fore
SplineSet
146 681 m 1
 146 22 l 1
 434 22 l 1
 430 0 l 1
 123 0 l 1
 123 681 l 1
 146 681 l 1
351 374 m 0
 365 374 372 364 372 354 c 0
 372 344 365 335 351 335 c 0
 339 335 331 344 331 354 c 0
 331 364 339 374 351 374 c 0
EndSplineSet
EndChar

StartChar: uni0140
Encoding: 320 320 255
Width: 276
Flags: W
LayerCount: 2
Fore
SplineSet
185 -10 m 0
 142 -10 113 16 113 72 c 2
 113 733 l 1
 135 736 l 1
 135 73 l 2
 135 32 152 11 186 11 c 0
 200 11 214 14 226 19 c 1
 232 0 l 1
 219 -5 203 -10 185 -10 c 0
260 395 m 0
 274 395 281 385 281 375 c 0
 281 365 274 355 260 355 c 0
 248 355 240 365 240 375 c 0
 240 385 248 395 260 395 c 0
EndSplineSet
EndChar

StartChar: uni0141
Encoding: 321 321 256
Width: 461
Flags: W
LayerCount: 2
Fore
SplineSet
150 22 m 1
 439 22 l 1
 435 0 l 1
 128 0 l 1
 128 309 l 1
 54 262 l 1
 45 279 l 1
 128 330 l 1
 128 681 l 1
 150 681 l 1
 150 344 l 1
 351 470 l 1
 361 453 l 1
 150 322 l 1
 150 22 l 1
EndSplineSet
EndChar

StartChar: uni0142
Encoding: 322 322 257
Width: 289
Flags: W
LayerCount: 2
Fore
SplineSet
193 11 m 0
 207 11 220 14 232 19 c 1
 239 0 l 1
 226 -5 209 -10 192 -10 c 0
 149 -10 120 16 120 72 c 2
 120 346 l 1
 55 306 l 1
 45 321 l 1
 120 368 l 1
 120 733 l 1
 142 736 l 1
 142 382 l 1
 247 447 l 1
 257 431 l 1
 142 360 l 1
 142 73 l 2
 142 32 159 11 193 11 c 0
EndSplineSet
EndChar

StartChar: uni0143
Encoding: 323 323 258
Width: 661
Flags: W
LayerCount: 2
Fore
SplineSet
418 861 m 1
 429 838 l 1
 250 764 l 1
 243 779 l 1
 418 861 l 1
538 681 m 1
 538 0 l 1
 510 0 l 1
 142 656 l 1
 144 621 145 576 145 477 c 2
 145 0 l 1
 123 0 l 1
 123 681 l 1
 152 681 l 1
 519 26 l 1
 518 66 516 127 516 205 c 2
 516 681 l 1
 538 681 l 1
EndSplineSet
EndChar

StartChar: uni0144
Encoding: 324 324 259
Width: 581
Flags: W
LayerCount: 2
Fore
SplineSet
381 738 m 1
 203 654 l 1
 195 670 l 1
 371 761 l 1
 381 738 l 1
330 529 m 0
 425 529 469 471 469 369 c 2
 469 0 l 1
 447 0 l 1
 447 367 l 2
 447 461 409 509 330 509 c 0
 246 509 189 459 140 384 c 1
 140 0 l 1
 118 0 l 1
 118 519 l 1
 137 519 l 1
 139 413 l 1
 186 483 248 529 330 529 c 0
EndSplineSet
EndChar

StartChar: uni0145
Encoding: 325 325 260
Width: 661
Flags: W
LayerCount: 2
Fore
SplineSet
538 681 m 1
 538 0 l 1
 510 0 l 1
 142 656 l 1
 144 621 145 576 145 477 c 2
 145 0 l 1
 123 0 l 1
 123 681 l 1
 152 681 l 1
 519 26 l 1
 518 66 516 127 516 205 c 2
 516 681 l 1
 538 681 l 1
327 -96 m 0
 344 -96 352 -106 352 -119 c 0
 352 -131 349 -139 338 -162 c 2
 303 -258 l 1
 288 -258 l 1
 319 -142 l 1
 308 -138 303 -131 303 -119 c 0
 303 -106 313 -96 327 -96 c 0
EndSplineSet
EndChar

StartChar: uni0146
Encoding: 326 326 261
Width: 581
Flags: W
LayerCount: 2
Fore
SplineSet
330 529 m 0
 425 529 469 471 469 369 c 2
 469 0 l 1
 447 0 l 1
 447 367 l 2
 447 461 409 509 330 509 c 0
 246 509 189 459 140 384 c 1
 140 0 l 1
 118 0 l 1
 118 519 l 1
 137 519 l 1
 139 413 l 1
 186 483 248 529 330 529 c 0
288 -96 m 0
 305 -96 313 -106 313 -119 c 0
 313 -131 310 -139 299 -162 c 2
 264 -258 l 1
 249 -258 l 1
 280 -142 l 1
 269 -138 264 -131 264 -119 c 0
 264 -106 274 -96 288 -96 c 0
EndSplineSet
EndChar

StartChar: uni0147
Encoding: 327 327 262
Width: 661
Flags: W
LayerCount: 2
Fore
SplineSet
451 863 m 1
 463 850 l 1
 343 760 l 1
 331 760 l 1
 211 850 l 1
 222 863 l 1
 337 784 l 1
 451 863 l 1
538 681 m 1
 538 0 l 1
 510 0 l 1
 142 656 l 1
 144 621 145 576 145 477 c 2
 145 0 l 1
 123 0 l 1
 123 681 l 1
 152 681 l 1
 519 26 l 1
 518 66 516 127 516 205 c 2
 516 681 l 1
 538 681 l 1
EndSplineSet
EndChar

StartChar: uni0148
Encoding: 328 328 263
Width: 581
Flags: W
LayerCount: 2
Fore
SplineSet
303 641 m 1
 291 641 l 1
 171 736 l 1
 182 749 l 1
 297 665 l 1
 411 749 l 1
 423 736 l 1
 303 641 l 1
330 529 m 0
 425 529 469 471 469 369 c 2
 469 0 l 1
 447 0 l 1
 447 367 l 2
 447 461 409 509 330 509 c 0
 246 509 189 459 140 384 c 1
 140 0 l 1
 118 0 l 1
 118 519 l 1
 137 519 l 1
 139 413 l 1
 186 483 248 529 330 529 c 0
EndSplineSet
EndChar

StartChar: uni0149
Encoding: 329 329 264
Width: 641
Flags: W
LayerCount: 2
Fore
SplineSet
94 737 m 0
 111 737 119 726 119 713 c 0
 119 701 114 695 105 670 c 2
 75 570 l 1
 60 570 l 1
 86 690 l 1
 73 694 70 701 70 713 c 0
 70 726 79 737 94 737 c 0
389 529 m 0
 484 529 528 471 528 369 c 2
 528 0 l 1
 506 0 l 1
 506 367 l 2
 506 461 468 509 389 509 c 0
 305 509 248 459 199 384 c 1
 199 0 l 1
 177 0 l 1
 177 519 l 1
 196 519 l 1
 198 413 l 1
 246 483 307 529 389 529 c 0
EndSplineSet
EndChar

StartChar: uni014A
Encoding: 330 330 265
Width: 661
Flags: W
LayerCount: 2
Fore
SplineSet
516 681 m 1
 538 681 l 1
 538 -86 l 2
 538 -160 497 -197 440 -197 c 0
 400 -197 372 -182 352 -167 c 1
 363 -151 l 1
 382 -165 404 -176 440 -176 c 0
 482 -176 516 -152 516 -85 c 2
 516 0 l 1
 510 0 l 1
 142 656 l 1
 144 621 145 576 145 477 c 2
 145 0 l 1
 123 0 l 1
 123 681 l 1
 152 681 l 1
 519 26 l 1
 518 66 516 127 516 205 c 2
 516 681 l 1
EndSplineSet
EndChar

StartChar: uni014B
Encoding: 331 331 266
Width: 581
Flags: W
LayerCount: 2
Fore
SplineSet
330 529 m 0
 425 529 469 471 469 369 c 2
 469 -86 l 2
 469 -160 427 -197 370 -197 c 0
 330 -197 302 -182 283 -167 c 1
 294 -152 l 1
 313 -166 335 -177 370 -177 c 0
 413 -177 447 -152 447 -86 c 2
 447 367 l 2
 447 461 409 509 330 509 c 0
 246 509 189 459 140 384 c 1
 140 0 l 1
 118 0 l 1
 118 519 l 1
 137 519 l 1
 139 413 l 1
 186 483 248 529 330 529 c 0
EndSplineSet
EndChar

StartChar: uni014C
Encoding: 332 332 267
Width: 689
Flags: W
LayerCount: 2
Fore
SplineSet
448 811 m 1
 241 811 l 1
 241 832 l 1
 448 832 l 1
 448 811 l 1
344 691 m 0
 505 691 611 569 611 340 c 0
 611 119 511 -10 344 -10 c 0
 185 -10 78 115 78 339 c 0
 78 563 187 691 344 691 c 0
344 670 m 0
 200 670 101 554 101 339 c 0
 101 127 199 12 344 12 c 0
 498 12 588 127 588 340 c 0
 588 557 492 670 344 670 c 0
EndSplineSet
EndChar

StartChar: uni014D
Encoding: 333 333 268
Width: 560
Flags: W
LayerCount: 2
Fore
SplineSet
384 685 m 1
 177 685 l 1
 177 706 l 1
 384 706 l 1
 384 685 l 1
281 529 m 0
 408 529 488 434 488 262 c 0
 488 89 406 -10 280 -10 c 0
 151 -10 73 91 73 259 c 0
 73 431 156 529 281 529 c 0
281 509 m 0
 169 509 96 422 96 259 c 0
 96 101 165 11 280 11 c 0
 393 11 465 99 465 262 c 0
 465 421 396 509 281 509 c 0
EndSplineSet
EndChar

StartChar: uni014E
Encoding: 334 334 269
Width: 689
Flags: W
LayerCount: 2
Fore
SplineSet
345 771 m 0
 287 771 247 807 237 847 c 1
 253 851 l 1
 266 817 298 792 345 792 c 0
 392 792 425 817 437 851 c 1
 453 847 l 1
 444 807 404 771 345 771 c 0
344 691 m 0
 505 691 611 569 611 340 c 0
 611 119 511 -10 344 -10 c 0
 185 -10 78 115 78 339 c 0
 78 563 187 691 344 691 c 0
344 670 m 0
 200 670 101 554 101 339 c 0
 101 127 199 12 344 12 c 0
 498 12 588 127 588 340 c 0
 588 557 492 670 344 670 c 0
EndSplineSet
EndChar

StartChar: uni014F
Encoding: 335 335 270
Width: 560
Flags: W
LayerCount: 2
Fore
SplineSet
281 662 m 0
 223 662 183 699 173 748 c 1
 189 752 l 1
 202 708 234 684 281 684 c 0
 328 684 361 708 373 752 c 1
 389 748 l 1
 380 699 340 662 281 662 c 0
281 529 m 0
 408 529 488 434 488 262 c 0
 488 89 406 -10 280 -10 c 0
 151 -10 73 91 73 259 c 0
 73 431 156 529 281 529 c 0
281 509 m 0
 169 509 96 422 96 259 c 0
 96 101 165 11 280 11 c 0
 393 11 465 99 465 262 c 0
 465 421 396 509 281 509 c 0
EndSplineSet
EndChar

StartChar: uni0150
Encoding: 336 336 271
Width: 689
Flags: W
LayerCount: 2
Fore
SplineSet
374 886 m 1
 393 873 l 1
 289 732 l 1
 276 741 l 1
 374 886 l 1
487 879 m 1
 506 865 l 1
 397 728 l 1
 384 738 l 1
 487 879 l 1
344 691 m 0
 505 691 611 569 611 340 c 0
 611 119 511 -10 344 -10 c 0
 185 -10 78 115 78 339 c 0
 78 563 187 691 344 691 c 0
344 670 m 0
 200 670 101 554 101 339 c 0
 101 127 199 12 344 12 c 0
 498 12 588 127 588 340 c 0
 588 557 492 670 344 670 c 0
EndSplineSet
EndChar

StartChar: uni0151
Encoding: 337 337 272
Width: 560
Flags: W
LayerCount: 2
Fore
SplineSet
311 764 m 1
 331 750 l 1
 226 599 l 1
 213 608 l 1
 311 764 l 1
425 757 m 1
 444 743 l 1
 334 596 l 1
 321 605 l 1
 425 757 l 1
281 529 m 0
 408 529 488 434 488 262 c 0
 488 89 406 -10 280 -10 c 0
 151 -10 73 91 73 259 c 0
 73 431 156 529 281 529 c 0
281 509 m 0
 169 509 96 422 96 259 c 0
 96 101 165 11 280 11 c 0
 393 11 465 99 465 262 c 0
 465 421 396 509 281 509 c 0
EndSplineSet
EndChar

StartChar: uni0152
Encoding: 338 338 273
Width: 845
Flags: W
LayerCount: 2
Fore
SplineSet
802 21 m 1
 802 0 l 1
 397 0 l 1
 377 -7 355 -10 332 -10 c 0
 183 -10 78 115 78 339 c 0
 78 563 185 691 332 691 c 0
 358 691 382 688 403 681 c 1
 795 681 l 1
 792 660 l 1
 448 660 l 1
 533 613 584 513 588 370 c 1
 751 370 l 1
 751 349 l 1
 588 349 l 1
 587 177 535 67 445 21 c 1
 802 21 l 1
101 339 m 0
 101 127 198 12 332 12 c 0
 476 12 565 127 565 352 c 0
 565 557 471 670 332 670 c 0
 198 670 101 554 101 339 c 0
EndSplineSet
EndChar

StartChar: uni0153
Encoding: 339 339 274
Width: 918
Flags: W
LayerCount: 2
Fore
SplineSet
853 284 m 0
 853 270 852 257 851 246 c 1
 488 246 l 1
 493 87 567 11 672 11 c 0
 734 11 774 31 819 68 c 1
 831 51 l 1
 786 13 739 -10 672 -10 c 0
 573 -10 502 54 476 159 c 1
 449 53 379 -10 280 -10 c 0
 151 -10 73 91 73 259 c 0
 73 431 156 529 281 529 c 0
 381 529 451 466 477 360 c 1
 503 464 570 529 664 529 c 0
 792 529 853 429 853 284 c 0
280 11 m 0
 393 11 465 100 465 262 c 0
 465 421 396 509 281 509 c 0
 169 509 96 422 96 259 c 0
 96 102 165 11 280 11 c 0
831 265 m 1
 831 292 l 2
 831 418 780 509 666 509 c 0
 567 509 491 430 488 265 c 1
 831 265 l 1
EndSplineSet
EndChar

StartChar: uni0154
Encoding: 340 340 275
Width: 572
Flags: W
LayerCount: 2
Fore
SplineSet
376 838 m 1
 197 764 l 1
 190 779 l 1
 365 861 l 1
 376 838 l 1
501 0 m 1
 313 324 l 1
 146 324 l 1
 146 0 l 1
 123 0 l 1
 123 681 l 1
 272 681 l 2
 431 681 496 616 496 504 c 0
 496 393 428 343 337 327 c 1
 528 0 l 1
 501 0 l 1
146 345 m 1
 287 345 l 2
 398 345 473 393 473 504 c 0
 473 602 420 660 269 660 c 2
 146 660 l 1
 146 345 l 1
EndSplineSet
EndChar

StartChar: uni0155
Encoding: 341 341 276
Width: 362
Flags: W
LayerCount: 2
Fore
SplineSet
313 738 m 1
 135 654 l 1
 127 670 l 1
 303 761 l 1
 313 738 l 1
294 529 m 0
 317 529 333 526 345 523 c 1
 340 504 l 1
 327 507 312 509 294 509 c 0
 216 509 173 456 140 344 c 1
 140 0 l 1
 118 0 l 1
 118 519 l 1
 137 519 l 1
 138 390 l 1
 167 485 215 529 294 529 c 0
EndSplineSet
EndChar

StartChar: uni0156
Encoding: 342 342 277
Width: 572
Flags: W
LayerCount: 2
Fore
SplineSet
337 327 m 1
 528 0 l 1
 501 0 l 1
 313 324 l 1
 146 324 l 1
 146 0 l 1
 123 0 l 1
 123 681 l 1
 272 681 l 2
 431 681 496 616 496 504 c 0
 496 393 428 343 337 327 c 1
146 345 m 1
 287 345 l 2
 398 345 473 393 473 504 c 0
 473 602 420 660 269 660 c 2
 146 660 l 1
 146 345 l 1
302 -96 m 0
 319 -96 327 -106 327 -119 c 0
 327 -131 324 -139 313 -162 c 2
 278 -258 l 1
 263 -258 l 1
 294 -142 l 1
 283 -138 278 -131 278 -119 c 0
 278 -106 288 -96 302 -96 c 0
EndSplineSet
EndChar

StartChar: uni0157
Encoding: 343 343 278
Width: 362
Flags: W
LayerCount: 2
Fore
SplineSet
294 529 m 0
 317 529 333 526 345 523 c 1
 340 504 l 1
 327 507 312 509 294 509 c 0
 216 509 173 456 140 344 c 1
 140 0 l 1
 118 0 l 1
 118 519 l 1
 137 519 l 1
 138 390 l 1
 167 485 215 529 294 529 c 0
127 -96 m 0
 144 -96 152 -106 152 -119 c 0
 152 -131 149 -139 138 -162 c 2
 103 -258 l 1
 88 -258 l 1
 119 -142 l 1
 108 -138 103 -131 103 -119 c 0
 103 -106 113 -96 127 -96 c 0
EndSplineSet
EndChar

StartChar: uni0158
Encoding: 344 344 279
Width: 572
Flags: W
LayerCount: 2
Fore
SplineSet
290 760 m 1
 278 760 l 1
 158 850 l 1
 169 863 l 1
 284 784 l 1
 398 863 l 1
 410 850 l 1
 290 760 l 1
501 0 m 1
 313 324 l 1
 146 324 l 1
 146 0 l 1
 123 0 l 1
 123 681 l 1
 272 681 l 2
 431 681 496 616 496 504 c 0
 496 393 428 343 337 327 c 1
 528 0 l 1
 501 0 l 1
146 345 m 1
 287 345 l 2
 398 345 473 393 473 504 c 0
 473 602 420 660 269 660 c 2
 146 660 l 1
 146 345 l 1
EndSplineSet
EndChar

StartChar: uni0159
Encoding: 345 345 280
Width: 362
Flags: W
LayerCount: 2
Fore
SplineSet
235 641 m 1
 223 641 l 1
 103 736 l 1
 114 749 l 1
 229 665 l 1
 343 749 l 1
 355 736 l 1
 235 641 l 1
138 390 m 1
 167 485 215 529 294 529 c 0
 317 529 333 526 345 523 c 1
 340 504 l 1
 327 507 312 509 294 509 c 0
 216 509 173 456 140 344 c 1
 140 0 l 1
 118 0 l 1
 118 519 l 1
 137 519 l 1
 138 390 l 1
EndSplineSet
EndChar

StartChar: uni015A
Encoding: 346 346 281
Width: 536
Flags: W
LayerCount: 2
Fore
SplineSet
351 861 m 1
 362 838 l 1
 183 764 l 1
 176 779 l 1
 351 861 l 1
265 691 m 0
 348 691 397 664 445 622 c 1
 430 605 l 1
 383 649 336 670 265 670 c 0
 166 670 103 613 103 534 c 0
 103 451 148 417 274 378 c 0
 407 337 466 293 466 182 c 0
 466 68 381 -10 258 -10 c 0
 168 -10 108 23 54 72 c 1
 69 87 l 1
 118 42 171 12 257 12 c 0
 369 12 444 78 444 181 c 0
 444 281 393 318 266 358 c 0
 128 401 80 443 80 534 c 0
 80 623 153 691 265 691 c 0
EndSplineSet
EndChar

StartChar: uni015B
Encoding: 347 347 282
Width: 450
Flags: W
LayerCount: 2
Fore
SplineSet
304 761 m 1
 314 738 l 1
 136 654 l 1
 128 670 l 1
 304 761 l 1
224 529 m 0
 286 529 332 511 378 474 c 1
 365 458 l 1
 321 492 283 509 225 509 c 0
 147 509 89 467 89 401 c 0
 89 340 128 313 231 285 c 0
 348 253 392 220 392 134 c 0
 392 48 322 -10 223 -10 c 0
 142 -10 92 19 48 56 c 1
 61 71 l 1
 106 34 149 11 223 11 c 0
 306 11 369 55 369 134 c 0
 369 209 334 236 221 267 c 0
 111 296 66 331 66 401 c 0
 66 477 136 529 224 529 c 0
EndSplineSet
EndChar

StartChar: uni015C
Encoding: 348 348 283
Width: 536
Flags: W
LayerCount: 2
Fore
SplineSet
154 766 m 1
 143 780 l 1
 263 869 l 1
 275 869 l 1
 395 780 l 1
 383 766 l 1
 269 845 l 1
 154 766 l 1
265 691 m 0
 348 691 397 664 445 622 c 1
 430 605 l 1
 383 649 336 670 265 670 c 0
 166 670 103 613 103 534 c 0
 103 451 148 417 274 378 c 0
 407 337 466 293 466 182 c 0
 466 68 381 -10 258 -10 c 0
 168 -10 108 23 54 72 c 1
 69 87 l 1
 118 42 171 12 257 12 c 0
 369 12 444 78 444 181 c 0
 444 281 393 318 266 358 c 0
 128 401 80 443 80 534 c 0
 80 623 153 691 265 691 c 0
EndSplineSet
EndChar

StartChar: uni015D
Encoding: 349 349 284
Width: 450
Flags: W
LayerCount: 2
Fore
SplineSet
115 654 m 1
 104 667 l 1
 224 762 l 1
 236 762 l 1
 356 667 l 1
 344 654 l 1
 230 738 l 1
 115 654 l 1
224 529 m 0
 286 529 332 511 378 474 c 1
 365 458 l 1
 321 492 283 509 225 509 c 0
 147 509 89 467 89 401 c 0
 89 340 128 313 231 285 c 0
 348 253 392 220 392 134 c 0
 392 48 322 -10 223 -10 c 0
 142 -10 92 19 48 56 c 1
 61 71 l 1
 106 34 149 11 223 11 c 0
 306 11 369 55 369 134 c 0
 369 209 334 236 221 267 c 0
 111 296 66 331 66 401 c 0
 66 477 136 529 224 529 c 0
EndSplineSet
EndChar

StartChar: uni015E
Encoding: 350 350 285
Width: 536
Flags: W
LayerCount: 2
Fore
SplineSet
466 182 m 0
 466 70 384 -8 264 -10 c 1
 263 -74 l 1
 323 -77 354 -99 354 -140 c 0
 354 -187 314 -212 270 -212 c 0
 239 -212 219 -204 202 -194 c 1
 212 -177 l 1
 226 -186 244 -192 270 -192 c 0
 302 -192 331 -176 331 -140 c 0
 331 -107 304 -91 242 -90 c 1
 247 -10 l 1
 163 -7 106 25 54 72 c 1
 69 87 l 1
 118 42 171 12 257 12 c 0
 369 12 444 78 444 181 c 0
 444 281 393 318 266 358 c 0
 128 401 80 443 80 534 c 0
 80 623 153 691 265 691 c 0
 348 691 397 664 445 622 c 1
 430 605 l 1
 383 649 336 670 265 670 c 0
 166 670 103 613 103 534 c 0
 103 451 148 417 274 378 c 0
 407 337 466 293 466 182 c 0
EndSplineSet
EndChar

StartChar: uni015F
Encoding: 351 351 286
Width: 450
Flags: W
LayerCount: 2
Fore
SplineSet
392 134 m 0
 392 49 324 -8 228 -10 c 1
 227 -74 l 1
 287 -77 318 -99 318 -140 c 0
 318 -187 278 -212 234 -212 c 0
 203 -212 183 -204 166 -194 c 1
 176 -177 l 1
 190 -186 208 -192 234 -192 c 0
 266 -192 295 -176 295 -140 c 0
 295 -107 268 -91 206 -90 c 1
 211 -10 l 1
 137 -7 90 21 48 56 c 1
 61 71 l 1
 106 34 149 11 223 11 c 0
 306 11 369 55 369 134 c 0
 369 209 334 236 221 267 c 0
 111 296 66 331 66 401 c 0
 66 477 136 529 224 529 c 0
 286 529 332 511 378 474 c 1
 365 458 l 1
 321 492 283 509 225 509 c 0
 147 509 89 467 89 401 c 0
 89 340 128 313 231 285 c 0
 348 253 392 220 392 134 c 0
EndSplineSet
EndChar

StartChar: uni0160
Encoding: 352 352 287
Width: 536
Flags: W
LayerCount: 2
Fore
SplineSet
383 863 m 1
 395 850 l 1
 275 760 l 1
 263 760 l 1
 143 850 l 1
 154 863 l 1
 269 784 l 1
 383 863 l 1
265 691 m 0
 348 691 397 664 445 622 c 1
 430 605 l 1
 383 649 336 670 265 670 c 0
 166 670 103 613 103 534 c 0
 103 451 148 417 274 378 c 0
 407 337 466 293 466 182 c 0
 466 68 381 -10 258 -10 c 0
 168 -10 108 23 54 72 c 1
 69 87 l 1
 118 42 171 12 257 12 c 0
 369 12 444 78 444 181 c 0
 444 281 393 318 266 358 c 0
 128 401 80 443 80 534 c 0
 80 623 153 691 265 691 c 0
EndSplineSet
EndChar

StartChar: uni0161
Encoding: 353 353 288
Width: 450
Flags: W
LayerCount: 2
Fore
SplineSet
344 749 m 1
 356 736 l 1
 236 641 l 1
 224 641 l 1
 104 736 l 1
 115 749 l 1
 230 665 l 1
 344 749 l 1
224 529 m 0
 286 529 332 511 378 474 c 1
 365 458 l 1
 321 492 283 509 225 509 c 0
 147 509 89 467 89 401 c 0
 89 340 128 313 231 285 c 0
 348 253 392 220 392 134 c 0
 392 48 322 -10 223 -10 c 0
 142 -10 92 19 48 56 c 1
 61 71 l 1
 106 34 149 11 223 11 c 0
 306 11 369 55 369 134 c 0
 369 209 334 236 221 267 c 0
 111 296 66 331 66 401 c 0
 66 477 136 529 224 529 c 0
EndSplineSet
EndChar

StartChar: uni0162
Encoding: 354 354 289
Width: 476
Flags: W
LayerCount: 2
Fore
SplineSet
459 659 m 1
 249 659 l 1
 249 11 l 1
 250 11 l 1
 248 -74 l 1
 308 -77 339 -99 339 -140 c 0
 339 -187 299 -212 255 -212 c 0
 224 -212 204 -204 187 -194 c 1
 197 -177 l 1
 211 -186 229 -192 255 -192 c 0
 287 -192 316 -176 316 -140 c 0
 316 -107 289 -91 227 -90 c 1
 232 0 l 1
 226 0 l 1
 226 659 l 1
 16 659 l 1
 16 681 l 1
 463 681 l 1
 459 659 l 1
EndSplineSet
EndChar

StartChar: uni0163
Encoding: 355 355 290
Width: 331
Flags: W
LayerCount: 2
Fore
SplineSet
227 -74 m 1
 287 -77 318 -99 318 -140 c 0
 318 -187 278 -212 234 -212 c 0
 203 -212 183 -204 166 -194 c 1
 176 -177 l 1
 190 -186 208 -192 234 -192 c 0
 266 -192 295 -176 295 -140 c 0
 295 -107 268 -91 206 -90 c 1
 211 -9 l 1
 150 -3 113 39 113 117 c 2
 113 499 l 1
 28 499 l 1
 28 519 l 1
 113 519 l 1
 113 650 l 1
 135 652 l 1
 135 519 l 1
 279 519 l 1
 276 499 l 1
 135 499 l 1
 135 118 l 2
 135 48 167 11 227 11 c 0
 263 11 291 22 317 37 c 1
 327 20 l 1
 299 3 268 -10 228 -10 c 1
 227 -74 l 1
EndSplineSet
EndChar

StartChar: uni0164
Encoding: 356 356 291
Width: 476
Flags: W
LayerCount: 2
Fore
SplineSet
352 863 m 1
 364 850 l 1
 244 760 l 1
 232 760 l 1
 112 850 l 1
 123 863 l 1
 238 784 l 1
 352 863 l 1
463 681 m 1
 459 659 l 1
 249 659 l 1
 249 0 l 1
 226 0 l 1
 226 659 l 1
 16 659 l 1
 16 681 l 1
 463 681 l 1
EndSplineSet
EndChar

StartChar: uni0165
Encoding: 357 357 292
Width: 331
Flags: W
LayerCount: 2
Fore
SplineSet
239 734 m 1
 212 589 l 1
 197 592 l 1
 215 736 l 1
 239 734 l 1
317 37 m 1
 327 20 l 1
 299 3 267 -10 226 -10 c 0
 156 -10 113 33 113 117 c 2
 113 499 l 1
 28 499 l 1
 28 519 l 1
 113 519 l 1
 113 650 l 1
 135 652 l 1
 135 519 l 1
 279 519 l 1
 276 499 l 1
 135 499 l 1
 135 118 l 2
 135 48 167 11 227 11 c 0
 263 11 291 22 317 37 c 1
EndSplineSet
EndChar

StartChar: uni0166
Encoding: 358 358 293
Width: 476
Flags: W
LayerCount: 2
Fore
SplineSet
459 659 m 1
 249 659 l 1
 249 380 l 1
 373 380 l 1
 373 360 l 1
 249 360 l 1
 249 0 l 1
 226 0 l 1
 226 360 l 1
 102 360 l 1
 102 380 l 1
 226 380 l 1
 226 659 l 1
 16 659 l 1
 16 681 l 1
 463 681 l 1
 459 659 l 1
EndSplineSet
EndChar

StartChar: uni0167
Encoding: 359 359 294
Width: 333
Flags: W
LayerCount: 2
Fore
SplineSet
318 37 m 1
 328 20 l 1
 300 3 268 -10 227 -10 c 0
 158 -10 115 33 115 117 c 2
 115 322 l 1
 28 322 l 1
 28 341 l 1
 115 341 l 1
 115 499 l 1
 29 499 l 1
 29 519 l 1
 115 519 l 1
 115 650 l 1
 137 652 l 1
 137 519 l 1
 281 519 l 1
 277 499 l 1
 137 499 l 1
 137 341 l 1
 274 341 l 1
 274 322 l 1
 137 322 l 1
 137 118 l 2
 137 48 168 11 229 11 c 0
 265 11 293 22 318 37 c 1
EndSplineSet
EndChar

StartChar: uni0168
Encoding: 360 360 295
Width: 640
Flags: W
LayerCount: 2
Fore
SplineSet
379 804 m 0
 331 804 296 847 262 847 c 0
 238 847 223 837 202 812 c 1
 188 821 l 1
 210 851 232 867 262 867 c 0
 301 867 338 824 379 824 c 0
 402 824 417 835 438 865 c 1
 452 857 l 1
 431 819 408 804 379 804 c 0
528 681 m 1
 528 207 l 2
 528 82 467 -10 321 -10 c 0
 173 -10 113 82 113 207 c 2
 113 681 l 1
 136 681 l 1
 136 210 l 2
 136 93 188 12 321 12 c 0
 454 12 505 95 505 210 c 2
 505 681 l 1
 528 681 l 1
EndSplineSet
EndChar

StartChar: uni0169
Encoding: 361 361 296
Width: 576
Flags: W
LayerCount: 2
Fore
SplineSet
346 678 m 0
 298 678 263 721 229 721 c 0
 205 721 190 711 169 686 c 1
 155 695 l 1
 177 725 199 741 229 741 c 0
 268 741 305 698 346 698 c 0
 369 698 384 709 405 739 c 1
 419 731 l 1
 398 693 375 678 346 678 c 0
459 519 m 1
 459 0 l 1
 439 0 l 1
 439 106 l 1
 403 41 345 -10 259 -10 c 0
 167 -10 113 46 113 149 c 2
 113 519 l 1
 135 519 l 1
 135 151 l 2
 135 56 181 11 262 11 c 0
 342 11 396 61 437 133 c 1
 437 519 l 1
 459 519 l 1
EndSplineSet
EndChar

StartChar: uni016A
Encoding: 362 362 297
Width: 640
Flags: W
LayerCount: 2
Fore
SplineSet
424 811 m 1
 217 811 l 1
 217 832 l 1
 424 832 l 1
 424 811 l 1
528 681 m 1
 528 207 l 2
 528 82 467 -10 321 -10 c 0
 173 -10 113 82 113 207 c 2
 113 681 l 1
 136 681 l 1
 136 210 l 2
 136 93 188 12 321 12 c 0
 454 12 505 95 505 210 c 2
 505 681 l 1
 528 681 l 1
EndSplineSet
EndChar

StartChar: uni016B
Encoding: 363 363 298
Width: 576
Flags: W
LayerCount: 2
Fore
SplineSet
391 685 m 1
 184 685 l 1
 184 706 l 1
 391 706 l 1
 391 685 l 1
459 519 m 1
 459 0 l 1
 439 0 l 1
 439 106 l 1
 403 41 345 -10 259 -10 c 0
 167 -10 113 46 113 149 c 2
 113 519 l 1
 135 519 l 1
 135 151 l 2
 135 56 181 11 262 11 c 0
 342 11 396 61 437 133 c 1
 437 519 l 1
 459 519 l 1
EndSplineSet
EndChar

StartChar: uni016C
Encoding: 364 364 299
Width: 640
Flags: W
LayerCount: 2
Fore
SplineSet
320 771 m 0
 262 771 222 807 212 847 c 1
 228 851 l 1
 241 817 273 792 320 792 c 0
 367 792 400 817 412 851 c 1
 428 847 l 1
 419 807 379 771 320 771 c 0
528 681 m 1
 528 207 l 2
 528 82 467 -10 321 -10 c 0
 173 -10 113 82 113 207 c 2
 113 681 l 1
 136 681 l 1
 136 210 l 2
 136 93 188 12 321 12 c 0
 454 12 505 95 505 210 c 2
 505 681 l 1
 528 681 l 1
EndSplineSet
EndChar

StartChar: uni016D
Encoding: 365 365 300
Width: 576
Flags: W
LayerCount: 2
Fore
SplineSet
287 662 m 0
 229 662 189 699 179 748 c 1
 195 752 l 1
 208 708 240 684 287 684 c 0
 334 684 367 708 379 752 c 1
 395 748 l 1
 386 699 346 662 287 662 c 0
459 519 m 1
 459 0 l 1
 439 0 l 1
 439 106 l 1
 403 41 345 -10 259 -10 c 0
 167 -10 113 46 113 149 c 2
 113 519 l 1
 135 519 l 1
 135 151 l 2
 135 56 181 11 262 11 c 0
 342 11 396 61 437 133 c 1
 437 519 l 1
 459 519 l 1
EndSplineSet
EndChar

StartChar: uni016E
Encoding: 366 366 301
Width: 640
Flags: W
LayerCount: 2
Fore
SplineSet
320 927 m 0
 369 927 400 896 400 849 c 0
 400 801 368 770 320 770 c 0
 272 770 241 801 241 848 c 0
 241 896 273 927 320 927 c 0
320 909 m 0
 283 909 262 886 262 848 c 0
 262 811 283 788 320 788 c 0
 358 788 379 811 379 849 c 0
 379 886 358 909 320 909 c 0
528 681 m 1
 528 207 l 2
 528 82 467 -10 321 -10 c 0
 173 -10 113 82 113 207 c 2
 113 681 l 1
 136 681 l 1
 136 210 l 2
 136 93 188 12 321 12 c 0
 454 12 505 95 505 210 c 2
 505 681 l 1
 528 681 l 1
EndSplineSet
EndChar

StartChar: uni016F
Encoding: 367 367 302
Width: 576
Flags: W
LayerCount: 2
Fore
SplineSet
287 801 m 0
 336 801 367 770 367 723 c 0
 367 675 335 644 287 644 c 0
 239 644 208 675 208 722 c 0
 208 770 240 801 287 801 c 0
287 783 m 0
 250 783 229 760 229 722 c 0
 229 685 250 662 287 662 c 0
 325 662 346 685 346 723 c 0
 346 760 325 783 287 783 c 0
459 519 m 1
 459 0 l 1
 439 0 l 1
 439 106 l 1
 403 41 345 -10 259 -10 c 0
 167 -10 113 46 113 149 c 2
 113 519 l 1
 135 519 l 1
 135 151 l 2
 135 56 181 11 262 11 c 0
 342 11 396 61 437 133 c 1
 437 519 l 1
 459 519 l 1
EndSplineSet
EndChar

StartChar: uni0170
Encoding: 368 368 303
Width: 640
Flags: W
LayerCount: 2
Fore
SplineSet
350 886 m 1
 369 873 l 1
 265 732 l 1
 252 741 l 1
 350 886 l 1
463 879 m 1
 482 865 l 1
 373 728 l 1
 360 738 l 1
 463 879 l 1
528 681 m 1
 528 207 l 2
 528 82 467 -10 321 -10 c 0
 173 -10 113 82 113 207 c 2
 113 681 l 1
 136 681 l 1
 136 210 l 2
 136 93 188 12 321 12 c 0
 454 12 505 95 505 210 c 2
 505 681 l 1
 528 681 l 1
EndSplineSet
EndChar

StartChar: uni0171
Encoding: 369 369 304
Width: 576
Flags: W
LayerCount: 2
Fore
SplineSet
318 764 m 1
 338 750 l 1
 233 599 l 1
 220 608 l 1
 318 764 l 1
432 757 m 1
 451 743 l 1
 341 596 l 1
 328 605 l 1
 432 757 l 1
459 519 m 1
 459 0 l 1
 439 0 l 1
 439 106 l 1
 403 41 345 -10 259 -10 c 0
 167 -10 113 46 113 149 c 2
 113 519 l 1
 135 519 l 1
 135 151 l 2
 135 56 181 11 262 11 c 0
 342 11 396 61 437 133 c 1
 437 519 l 1
 459 519 l 1
EndSplineSet
EndChar

StartChar: uni0172
Encoding: 370 370 305
Width: 640
Flags: W
LayerCount: 2
Fore
SplineSet
505 681 m 1
 528 681 l 1
 528 207 l 2
 528 104 486 23 389 -2 c 1
 321 -32 269 -64 269 -121 c 0
 269 -158 295 -181 341 -181 c 0
 359 -181 373 -179 394 -174 c 1
 392 -196 l 1
 371 -201 357 -203 338 -203 c 0
 275 -203 245 -169 245 -121 c 0
 245 -72 281 -38 341 -9 c 1
 335 -10 328 -10 321 -10 c 0
 173 -10 113 82 113 207 c 2
 113 681 l 1
 136 681 l 1
 136 210 l 2
 136 93 188 12 321 12 c 0
 454 12 505 95 505 210 c 2
 505 681 l 1
EndSplineSet
EndChar

StartChar: uni0173
Encoding: 371 371 306
Width: 576
Flags: W
LayerCount: 2
Fore
SplineSet
437 519 m 1
 459 519 l 1
 459 0 l 1
 458 0 l 1
 387 -31 333 -63 333 -122 c 0
 333 -158 356 -181 403 -181 c 0
 421 -181 437 -179 458 -174 c 1
 456 -196 l 1
 436 -201 421 -203 402 -203 c 0
 339 -203 309 -169 309 -123 c 0
 309 -63 361 -25 439 8 c 1
 439 106 l 1
 403 41 345 -10 259 -10 c 0
 167 -10 113 46 113 149 c 2
 113 519 l 1
 135 519 l 1
 135 151 l 2
 135 56 181 11 262 11 c 0
 342 11 396 61 437 133 c 1
 437 519 l 1
EndSplineSet
EndChar

StartChar: uni0174
Encoding: 372 372 307
Width: 790
Flags: W
LayerCount: 2
Fore
SplineSet
280 766 m 1
 269 780 l 1
 389 869 l 1
 401 869 l 1
 521 780 l 1
 509 766 l 1
 395 845 l 1
 280 766 l 1
752 681 m 1
 593 0 l 1
 567 0 l 1
 395 659 l 1
 223 0 l 1
 197 0 l 1
 38 681 l 1
 62 681 l 1
 212 24 l 1
 381 681 l 1
 409 681 l 1
 580 24 l 1
 729 681 l 1
 752 681 l 1
EndSplineSet
EndChar

StartChar: uni0175
Encoding: 373 373 308
Width: 680
Flags: W
LayerCount: 2
Fore
SplineSet
225 654 m 1
 214 667 l 1
 334 762 l 1
 346 762 l 1
 466 667 l 1
 454 654 l 1
 340 738 l 1
 225 654 l 1
647 519 m 1
 511 0 l 1
 482 0 l 1
 341 497 l 1
 200 0 l 1
 171 0 l 1
 33 519 l 1
 57 519 l 1
 186 21 l 1
 328 519 l 1
 355 519 l 1
 496 21 l 1
 624 519 l 1
 647 519 l 1
EndSplineSet
EndChar

StartChar: uni0176
Encoding: 374 374 309
Width: 494
Flags: W
LayerCount: 2
Fore
SplineSet
132 766 m 1
 121 780 l 1
 241 869 l 1
 253 869 l 1
 373 780 l 1
 361 766 l 1
 247 845 l 1
 132 766 l 1
473 681 m 1
 260 271 l 1
 260 0 l 1
 237 0 l 1
 237 270 l 1
 21 681 l 1
 47 681 l 1
 249 292 l 1
 447 681 l 1
 473 681 l 1
EndSplineSet
EndChar

StartChar: uni0177
Encoding: 375 375 310
Width: 444
Flags: W
LayerCount: 2
Fore
SplineSet
107 654 m 1
 96 667 l 1
 216 762 l 1
 228 762 l 1
 348 667 l 1
 336 654 l 1
 222 738 l 1
 107 654 l 1
421 519 m 1
 240 -1 l 2
 200 -116 169 -163 59 -195 c 1
 56 -177 l 1
 159 -146 181 -103 219 0 c 1
 211 0 l 1
 23 519 l 1
 47 519 l 1
 225 17 l 1
 396 519 l 1
 421 519 l 1
EndSplineSet
EndChar

StartChar: uni0178
Encoding: 376 376 311
Width: 494
Flags: W
LayerCount: 2
Fore
SplineSet
164 838 m 0
 176 838 184 829 184 818 c 0
 184 807 176 799 164 799 c 0
 152 799 144 807 144 818 c 0
 144 829 152 838 164 838 c 0
330 838 m 0
 342 838 349 829 349 818 c 0
 349 807 342 799 330 799 c 0
 317 799 309 807 309 818 c 0
 309 829 317 838 330 838 c 0
473 681 m 1
 260 271 l 1
 260 0 l 1
 237 0 l 1
 237 270 l 1
 21 681 l 1
 47 681 l 1
 249 292 l 1
 447 681 l 1
 473 681 l 1
EndSplineSet
EndChar

StartChar: uni0179
Encoding: 377 377 312
Width: 509
Flags: W
LayerCount: 2
Fore
SplineSet
337 861 m 1
 348 838 l 1
 169 764 l 1
 162 779 l 1
 337 861 l 1
459 681 m 1
 459 662 l 1
 69 22 l 1
 446 22 l 1
 443 0 l 1
 41 0 l 1
 41 21 l 1
 432 660 l 1
 79 660 l 1
 79 681 l 1
 459 681 l 1
EndSplineSet
EndChar

StartChar: uni017A
Encoding: 378 378 313
Width: 405
Flags: W
LayerCount: 2
Fore
SplineSet
288 761 m 1
 298 738 l 1
 120 654 l 1
 112 670 l 1
 288 761 l 1
374 519 m 1
 374 501 l 1
 59 21 l 1
 366 21 l 1
 364 0 l 1
 31 0 l 1
 31 18 l 1
 346 499 l 1
 58 499 l 1
 58 519 l 1
 374 519 l 1
EndSplineSet
EndChar

StartChar: uni017B
Encoding: 379 379 314
Width: 509
Flags: W
LayerCount: 2
Fore
SplineSet
255 850 m 0
 269 850 276 840 276 830 c 0
 276 820 269 811 255 811 c 0
 243 811 235 820 235 830 c 0
 235 840 243 850 255 850 c 0
459 681 m 1
 459 662 l 1
 69 22 l 1
 446 22 l 1
 443 0 l 1
 41 0 l 1
 41 21 l 1
 432 660 l 1
 79 660 l 1
 79 681 l 1
 459 681 l 1
EndSplineSet
EndChar

StartChar: uni017C
Encoding: 380 380 315
Width: 405
Flags: W
LayerCount: 2
Fore
SplineSet
214 724 m 0
 228 724 235 714 235 704 c 0
 235 694 228 685 214 685 c 0
 202 685 194 694 194 704 c 0
 194 714 202 724 214 724 c 0
374 519 m 1
 374 501 l 1
 59 21 l 1
 366 21 l 1
 364 0 l 1
 31 0 l 1
 31 18 l 1
 346 499 l 1
 58 499 l 1
 58 519 l 1
 374 519 l 1
EndSplineSet
EndChar

StartChar: uni017D
Encoding: 381 381 316
Width: 509
Flags: W
LayerCount: 2
Fore
SplineSet
369 863 m 1
 381 850 l 1
 261 760 l 1
 249 760 l 1
 129 850 l 1
 140 863 l 1
 255 784 l 1
 369 863 l 1
459 681 m 1
 459 662 l 1
 69 22 l 1
 446 22 l 1
 443 0 l 1
 41 0 l 1
 41 21 l 1
 432 660 l 1
 79 660 l 1
 79 681 l 1
 459 681 l 1
EndSplineSet
EndChar

StartChar: uni017E
Encoding: 382 382 317
Width: 405
Flags: W
LayerCount: 2
Fore
SplineSet
328 749 m 1
 340 736 l 1
 220 641 l 1
 208 641 l 1
 88 736 l 1
 99 749 l 1
 214 665 l 1
 328 749 l 1
374 519 m 1
 374 501 l 1
 59 21 l 1
 366 21 l 1
 364 0 l 1
 31 0 l 1
 31 18 l 1
 346 499 l 1
 58 499 l 1
 58 519 l 1
 374 519 l 1
EndSplineSet
EndChar

StartChar: uni017F
Encoding: 383 383 318
Width: 307
Flags: W
LayerCount: 2
Fore
SplineSet
244 737 m 0
 286 737 327 725 360 706 c 1
 352 689 l 1
 319 706 285 716 246 716 c 0
 184 716 143 686 143 614 c 2
 143 0 l 1
 121 0 l 1
 121 499 l 1
 31 499 l 1
 31 519 l 1
 121 519 l 1
 121 617 l 2
 121 695 171 737 244 737 c 0
EndSplineSet
EndChar

StartChar: uni0180
Encoding: 384 384 319
Width: 569
Flags: W
LayerCount: 2
Fore
SplineSet
313 529 m 0
 432 529 496 434 496 264 c 0
 496 95 431 -10 307 -10 c 0
 232 -10 178 31 144 81 c 1
 142 0 l 1
 123 0 l 1
 123 629 l 1
 48 629 l 1
 48 649 l 1
 123 649 l 1
 123 733 l 1
 145 736 l 1
 145 649 l 1
 327 649 l 1
 327 629 l 1
 145 629 l 1
 145 436 l 1
 184 490 237 529 313 529 c 0
306 11 m 0
 415 11 474 103 474 264 c 0
 474 424 418 509 313 509 c 0
 236 509 189 469 145 410 c 1
 145 106 l 1
 183 50 235 11 306 11 c 0
EndSplineSet
EndChar

StartChar: uni0181
Encoding: 385 385 320
Width: 629
Flags: W
LayerCount: 2
Fore
SplineSet
404 361 m 1
 492 356 568 301 568 184 c 0
 568 61 481 0 342 0 c 2
 165 0 l 1
 165 661 l 1
 132 661 l 2
 71 661 45 629 45 584 c 0
 45 551 57 529 70 508 c 1
 53 498 l 1
 38 521 23 544 23 584 c 0
 23 643 61 681 135 681 c 2
 306 681 l 2
 450 681 533 624 533 513 c 0
 533 424 480 374 404 361 c 1
310 660 m 2
 188 660 l 1
 188 370 l 1
 358 370 l 2
 448 370 509 427 509 512 c 0
 509 611 438 660 310 660 c 2
343 21 m 2
 465 21 544 71 544 184 c 0
 544 294 468 350 363 350 c 2
 188 350 l 1
 188 21 l 1
 343 21 l 2
EndSplineSet
EndChar

StartChar: uni0182
Encoding: 386 386 321
Width: 562
Flags: W
LayerCount: 2
Fore
SplineSet
276 405 m 2
 418 405 501 340 501 211 c 0
 501 66 411 0 277 0 c 2
 123 0 l 1
 123 681 l 1
 439 681 l 1
 434 660 l 1
 146 660 l 1
 146 405 l 1
 276 405 l 2
283 21 m 2
 402 21 478 80 478 211 c 0
 478 329 404 384 278 384 c 2
 146 384 l 1
 146 21 l 1
 283 21 l 2
EndSplineSet
EndChar

StartChar: uni0183
Encoding: 387 387 322
Width: 564
Flags: W
LayerCount: 2
Fore
SplineSet
308 529 m 0
 426 529 491 435 491 264 c 0
 491 94 426 -10 302 -10 c 0
 227 -10 173 31 139 81 c 1
 137 0 l 1
 118 0 l 1
 118 732 l 1
 384 732 l 1
 380 711 l 1
 140 711 l 1
 140 436 l 1
 179 490 232 529 308 529 c 0
301 11 m 0
 410 11 469 103 469 264 c 0
 469 424 413 509 308 509 c 0
 231 509 184 469 140 410 c 1
 140 106 l 1
 178 50 230 11 301 11 c 0
EndSplineSet
EndChar

StartChar: uni0184
Encoding: 388 388 323
Width: 550
Flags: W
LayerCount: 2
Fore
SplineSet
276 408 m 2
 418 408 501 344 501 212 c 0
 501 66 410 0 277 0 c 2
 123 0 l 1
 123 587 l 1
 91 609 l 1
 107 626 120 649 126 681 c 1
 146 681 l 1
 146 408 l 1
 276 408 l 2
283 21 m 2
 402 21 478 80 478 213 c 0
 478 332 404 387 278 387 c 2
 146 387 l 1
 146 21 l 1
 283 21 l 2
EndSplineSet
EndChar

StartChar: uni0185
Encoding: 389 389 324
Width: 491
Flags: W
LayerCount: 2
Fore
SplineSet
256 335 m 2
 392 335 447 274 447 174 c 0
 447 55 373 0 261 0 c 2
 118 0 l 1
 118 434 l 1
 86 456 l 1
 101 473 112 490 121 519 c 1
 140 519 l 1
 140 335 l 1
 256 335 l 2
258 21 m 2
 363 21 424 66 424 174 c 0
 424 262 379 315 257 315 c 2
 140 315 l 1
 140 21 l 1
 258 21 l 2
EndSplineSet
EndChar

StartChar: uni0186
Encoding: 390 390 325
Width: 538
Flags: W
LayerCount: 2
Fore
SplineSet
211 691 m 0
 357 691 460 577 460 340 c 0
 460 113 349 -10 200 -10 c 0
 119 -10 67 19 25 54 c 1
 39 70 l 1
 82 37 126 12 200 12 c 0
 333 12 437 123 437 340 c 0
 437 570 342 670 210 670 c 0
 142 670 93 651 46 617 c 1
 34 633 l 1
 79 667 134 691 211 691 c 0
EndSplineSet
EndChar

StartChar: uni0187
Encoding: 391 391 326
Width: 538
Flags: W
LayerCount: 2
Fore
SplineSet
580 814 m 0
 622 814 649 799 669 784 c 1
 658 769 l 1
 638 783 616 794 580 794 c 0
 538 794 505 769 505 702 c 2
 505 633 l 1
 493 618 l 1
 449 651 411 670 346 670 c 0
 209 670 101 570 101 340 c 0
 101 123 206 12 342 12 c 0
 419 12 461 39 499 71 c 1
 513 54 l 1
 472 19 421 -10 342 -10 c 0
 189 -10 78 113 78 340 c 0
 78 577 195 691 344 691 c 0
 407 691 449 673 483 648 c 1
 483 703 l 2
 483 777 522 814 580 814 c 0
EndSplineSet
EndChar

StartChar: uni0188
Encoding: 392 392 327
Width: 464
Flags: W
LayerCount: 2
Fore
SplineSet
493 737 m 0
 535 737 562 721 582 706 c 1
 571 692 l 1
 551 705 529 717 493 717 c 0
 451 717 418 692 418 625 c 2
 418 479 l 1
 407 466 l 1
 372 492 335 509 284 509 c 0
 174 509 96 420 96 257 c 0
 96 95 175 11 283 11 c 0
 337 11 377 30 411 60 c 1
 423 44 l 1
 387 12 342 -10 284 -10 c 0
 159 -10 73 87 73 257 c 0
 73 426 156 529 283 529 c 0
 328 529 363 518 396 495 c 1
 396 626 l 2
 396 700 436 737 493 737 c 0
EndSplineSet
EndChar

StartChar: uni0189
Encoding: 393 393 328
Width: 617
Flags: W
LayerCount: 2
Fore
SplineSet
242 681 m 2
 388 681 539 627 539 348 c 0
 539 63 382 0 246 0 c 2
 120 0 l 1
 120 341 l 1
 26 341 l 1
 26 363 l 1
 120 363 l 1
 120 681 l 1
 242 681 l 2
247 21 m 2
 378 21 516 82 516 348 c 0
 516 617 373 660 240 660 c 2
 143 660 l 1
 143 363 l 1
 335 363 l 1
 335 341 l 1
 143 341 l 1
 143 21 l 1
 247 21 l 2
EndSplineSet
EndChar

StartChar: uni018A
Encoding: 394 394 329
Width: 662
Flags: W
LayerCount: 2
Fore
SplineSet
287 681 m 2
 433 681 584 627 584 348 c 0
 584 63 427 0 291 0 c 2
 165 0 l 1
 165 661 l 1
 132 661 l 2
 71 661 45 629 45 584 c 0
 45 551 57 529 70 508 c 1
 53 498 l 1
 38 521 23 544 23 584 c 0
 23 643 61 681 135 681 c 2
 287 681 l 2
292 21 m 2
 422 21 561 82 561 348 c 0
 561 617 418 660 285 660 c 2
 188 660 l 1
 188 21 l 1
 292 21 l 2
EndSplineSet
EndChar

StartChar: uni018B
Encoding: 395 395 330
Width: 562
Flags: W
LayerCount: 2
Fore
SplineSet
439 681 m 1
 439 0 l 1
 276 0 l 2
 150 0 61 63 61 199 c 0
 61 332 147 405 290 405 c 2
 416 405 l 1
 416 660 l 1
 125 660 l 1
 125 681 l 1
 439 681 l 1
277 21 m 2
 416 21 l 1
 416 384 l 1
 289 384 l 2
 159 384 84 321 84 199 c 0
 84 75 160 21 277 21 c 2
EndSplineSet
EndChar

StartChar: uni018C
Encoding: 396 396 331
Width: 569
Flags: W
LayerCount: 2
Fore
SplineSet
451 732 m 1
 451 0 l 1
 432 0 l 1
 429 89 l 1
 399 36 351 -10 264 -10 c 0
 149 -10 73 89 73 258 c 0
 73 418 147 529 275 529 c 0
 356 529 402 487 429 446 c 1
 429 711 l 1
 187 711 l 1
 187 732 l 1
 451 732 l 1
265 11 m 0
 347 11 394 54 429 123 c 1
 429 418 l 1
 399 465 352 509 275 509 c 0
 167 509 95 413 96 258 c 0
 96 101 162 11 265 11 c 0
EndSplineSet
EndChar

StartChar: uni018D
Encoding: 397 397 332
Width: 557
Flags: W
LayerCount: 2
Fore
SplineSet
311 49 m 1
 395 15 430 -20 431 -83 c 0
 431 -151 370 -204 276 -204 c 0
 216 -204 172 -188 127 -159 c 1
 141 -143 l 1
 183 -170 219 -183 274 -183 c 0
 357 -183 408 -140 408 -82 c 0
 408 -24 379 4 267 46 c 0
 130 98 73 160 73 295 c 0
 73 439 151 529 281 529 c 0
 407 529 484 443 484 296 c 0
 484 169 415 89 311 49 c 1
96 295 m 0
 96 168 143 113 289 57 c 1
 384 92 461 167 461 296 c 0
 461 432 393 508 281 508 c 0
 163 508 96 427 96 295 c 0
EndSplineSet
EndChar

StartChar: uni018E
Encoding: 398 398 333
Width: 494
Flags: W
LayerCount: 2
Fore
SplineSet
50 681 m 1
 371 681 l 1
 371 0 l 1
 43 0 l 1
 43 21 l 1
 348 21 l 1
 348 349 l 1
 94 349 l 1
 94 370 l 1
 348 370 l 1
 348 660 l 1
 50 660 l 1
 50 681 l 1
EndSplineSet
EndChar

StartChar: uni018F
Encoding: 399 399 334
Width: 646
Flags: W
LayerCount: 2
Fore
SplineSet
319 691 m 0
 472 691 569 589 569 337 c 0
 569 101 466 -10 318 -10 c 0
 166 -10 68 106 68 325 c 0
 68 337 68 346 69 359 c 1
 544 359 l 1
 538 581 453 670 319 670 c 0
 245 670 189 647 126 596 c 1
 113 612 l 1
 176 665 236 691 319 691 c 0
319 12 m 0
 449 12 544 109 544 339 c 1
 92 339 l 1
 90 120 180 12 319 12 c 0
EndSplineSet
EndChar

StartChar: uni0190
Encoding: 400 400 335
Width: 516
Flags: W
LayerCount: 2
Fore
SplineSet
268 691 m 0
 348 691 406 661 461 608 c 1
 446 593 l 1
 397 640 343 670 269 670 c 0
 168 670 106 613 106 528 c 0
 106 431 177 380 277 380 c 2
 332 380 l 1
 329 359 l 1
 273 360 l 2
 154 361 85 299 85 194 c 0
 85 79 164 12 277 12 c 0
 357 12 416 44 467 96 c 1
 483 83 l 1
 424 22 359 -10 277 -10 c 0
 151 -10 61 67 61 195 c 0
 61 306 133 363 220 371 c 1
 144 383 83 432 83 527 c 0
 83 624 152 691 268 691 c 0
EndSplineSet
EndChar

StartChar: uni0191
Encoding: 401 401 336
Width: 471
Flags: W
LayerCount: 2
Fore
SplineSet
436 660 m 1
 146 660 l 1
 146 356 l 1
 396 356 l 1
 396 335 l 1
 146 335 l 1
 146 -86 l 2
 146 -160 104 -197 47 -197 c 0
 7 -197 -21 -182 -40 -167 c 1
 -29 -151 l 1
 -10 -165 12 -176 47 -176 c 0
 89 -176 123 -152 123 -85 c 2
 123 681 l 1
 439 681 l 1
 436 660 l 1
EndSplineSet
EndChar

StartChar: uni0192
Encoding: 402 402 337
Width: 305
Flags: W
LayerCount: 2
Fore
SplineSet
244 716 m 0
 182 716 140 686 140 614 c 2
 140 519 l 1
 288 519 l 1
 284 499 l 1
 140 499 l 1
 140 6 l 2
 140 -122 105 -155 28 -195 c 1
 21 -178 l 1
 90 -142 118 -111 118 7 c 2
 118 499 l 1
 29 499 l 1
 29 519 l 1
 118 519 l 1
 118 617 l 2
 118 695 169 737 242 737 c 0
 284 737 325 725 358 707 c 1
 349 690 l 1
 317 706 283 716 244 716 c 0
EndSplineSet
EndChar

StartChar: uni0193
Encoding: 403 403 338
Width: 550
Flags: W
LayerCount: 2
Fore
SplineSet
592 814 m 0
 634 814 661 799 680 784 c 1
 669 769 l 1
 650 783 628 794 592 794 c 0
 549 794 516 769 516 702 c 2
 516 632 l 1
 505 619 l 1
 456 654 409 670 347 670 c 0
 229 670 101 576 101 345 c 0
 101 122 202 12 353 12 c 0
 420 12 467 28 510 53 c 1
 510 333 l 1
 365 333 l 1
 362 354 l 1
 533 354 l 1
 533 41 l 1
 480 10 418 -10 353 -10 c 0
 189 -10 78 110 78 345 c 0
 78 583 216 691 347 691 c 0
 407 691 451 677 494 648 c 1
 494 703 l 2
 494 777 534 814 592 814 c 0
EndSplineSet
EndChar

StartChar: uni0194
Encoding: 404 404 339
Width: 534
Flags: W
LayerCount: 2
Fore
SplineSet
506 681 m 1
 281 54 l 1
 316 -28 338 -75 338 -123 c 0
 338 -164 314 -197 268 -197 c 0
 224 -197 197 -166 197 -123 c 0
 197 -77 220 -28 254 54 c 1
 28 681 l 1
 52 681 l 1
 268 71 l 1
 482 681 l 1
 506 681 l 1
316 -122 m 0
 316 -79 297 -36 268 37 c 1
 239 -36 220 -78 220 -122 c 0
 220 -155 235 -177 268 -177 c 0
 300 -177 316 -154 316 -122 c 0
EndSplineSet
EndChar

StartChar: uni0195
Encoding: 405 405 340
Width: 890
Flags: W
LayerCount: 2
Fore
SplineSet
771 519 m 1
 784 445 797 358 797 266 c 0
 797 72 711 -10 604 -10 c 0
 515 -10 447 45 447 155 c 2
 447 367 l 2
 447 459 409 509 330 509 c 0
 246 509 189 459 140 384 c 1
 140 0 l 1
 118 0 l 1
 118 733 l 1
 140 736 l 1
 140 414 l 1
 187 484 248 529 330 529 c 0
 424 529 469 469 469 369 c 2
 469 156 l 2
 469 55 528 11 604 11 c 0
 692 11 775 75 775 266 c 0
 775 358 761 445 748 519 c 1
 771 519 l 1
EndSplineSet
EndChar

StartChar: uni0196
Encoding: 406 406 341
Width: 324
Flags: W
LayerCount: 2
Fore
SplineSet
288 36 m 1
 299 20 l 1
 279 5 251 -10 211 -10 c 0
 154 -10 113 27 113 101 c 2
 113 681 l 1
 136 681 l 1
 136 102 l 2
 136 36 169 11 211 11 c 0
 247 11 269 22 288 36 c 1
EndSplineSet
EndChar

StartChar: uni0197
Encoding: 407 407 342
Width: 314
Flags: W
LayerCount: 2
Fore
SplineSet
279 371 m 1
 279 350 l 1
 168 350 l 1
 168 0 l 1
 145 0 l 1
 145 350 l 1
 35 350 l 1
 35 371 l 1
 145 371 l 1
 145 681 l 1
 168 681 l 1
 168 371 l 1
 279 371 l 1
EndSplineSet
EndChar

StartChar: uni0198
Encoding: 408 408 343
Width: 544
Flags: W
LayerCount: 2
Fore
SplineSet
478 0 m 1
 149 367 l 1
 349 624 l 2
 389 676 416 691 460 691 c 0
 493 691 521 674 540 655 c 1
 527 642 l 1
 509 658 489 671 460 671 c 0
 428 671 405 664 364 610 c 2
 178 367 l 1
 506 0 l 1
 478 0 l 1
146 681 m 1
 146 0 l 1
 123 0 l 1
 123 681 l 1
 146 681 l 1
EndSplineSet
EndChar

StartChar: uni0199
Encoding: 409 409 344
Width: 463
Flags: W
LayerCount: 2
Fore
SplineSet
243 716 m 0
 182 716 140 686 140 614 c 2
 140 0 l 1
 118 0 l 1
 118 617 l 2
 118 695 168 737 242 737 c 0
 284 737 324 725 358 706 c 1
 349 689 l 1
 316 706 282 716 243 716 c 0
174 284 m 1
 445 0 l 1
 418 0 l 1
 146 284 l 1
 392 519 l 1
 420 519 l 1
 174 284 l 1
EndSplineSet
EndChar

StartChar: uni019A
Encoding: 410 410 345
Width: 286
Flags: W
LayerCount: 2
Fore
SplineSet
265 360 m 1
 155 360 l 1
 155 73 l 2
 155 32 172 11 206 11 c 0
 220 11 234 14 246 19 c 1
 252 0 l 1
 239 -5 223 -10 205 -10 c 0
 162 -10 133 16 133 72 c 2
 133 360 l 1
 21 360 l 1
 21 381 l 1
 133 381 l 1
 133 733 l 1
 155 736 l 1
 155 381 l 1
 265 381 l 1
 265 360 l 1
EndSplineSet
EndChar

StartChar: uni019B
Encoding: 411 411 346
Width: 458
Flags: W
LayerCount: 2
Fore
SplineSet
258 511 m 0
 326 167 389 90 455 4 c 1
 434 -5 l 1
 368 82 306 162 239 497 c 1
 64 -5 l 1
 43 0 l 1
 226 519 l 1
 236 519 l 1
 224 572 212 614 193 646 c 1
 115 566 l 1
 97 573 l 1
 183 661 l 1
 161 689 130 708 85 719 c 1
 88 736 l 1
 138 724 172 705 196 675 c 1
 264 746 l 1
 279 734 l 1
 207 660 l 1
 231 625 245 576 258 511 c 0
EndSplineSet
EndChar

StartChar: uni019C
Encoding: 412 412 347
Width: 923
Flags: W
LayerCount: 2
Fore
SplineSet
777 681 m 1
 800 681 l 1
 800 0 l 1
 780 0 l 1
 778 111 l 1
 738 42 678 -10 596 -10 c 0
 519 -10 467 34 451 116 c 1
 408 43 347 -10 264 -10 c 0
 169 -10 113 56 113 177 c 2
 113 681 l 1
 136 681 l 1
 136 173 l 2
 136 67 184 11 265 11 c 0
 347 11 403 67 447 143 c 1
 446 154 445 165 445 177 c 2
 445 681 l 1
 468 681 l 1
 468 173 l 2
 468 67 516 11 597 11 c 0
 680 11 737 69 777 144 c 1
 777 681 l 1
EndSplineSet
EndChar

StartChar: uni019D
Encoding: 413 413 348
Width: 661
Flags: W
LayerCount: 2
Fore
SplineSet
516 681 m 1
 538 681 l 1
 538 0 l 1
 510 0 l 1
 142 656 l 1
 144 621 145 576 145 477 c 2
 145 -86 l 2
 145 -160 104 -197 47 -197 c 0
 6 -197 -22 -182 -41 -167 c 1
 -30 -152 l 1
 -11 -166 11 -177 47 -177 c 0
 89 -177 123 -152 123 -86 c 2
 123 681 l 1
 152 681 l 1
 519 26 l 1
 518 66 516 127 516 205 c 2
 516 681 l 1
EndSplineSet
EndChar

StartChar: uni019E
Encoding: 414 414 349
Width: 581
Flags: W
LayerCount: 2
Fore
SplineSet
330 529 m 0
 425 529 469 471 469 369 c 2
 469 -196 l 1
 447 -192 l 1
 447 367 l 2
 447 461 409 509 330 509 c 0
 246 509 189 459 140 384 c 1
 140 0 l 1
 118 0 l 1
 118 519 l 1
 137 519 l 1
 139 413 l 1
 186 483 248 529 330 529 c 0
EndSplineSet
EndChar

StartChar: uni019F
Encoding: 415 415 350
Width: 689
Flags: W
LayerCount: 2
Fore
SplineSet
344 691 m 0
 505 691 611 569 611 339 c 0
 611 118 511 -10 344 -10 c 0
 185 -10 78 115 78 338 c 0
 78 563 187 691 344 691 c 0
344 670 m 0
 204 670 107 561 101 357 c 1
 588 357 l 1
 583 563 488 670 344 670 c 0
344 12 m 0
 498 12 587 126 588 337 c 1
 101 337 l 1
 101 126 199 12 344 12 c 0
EndSplineSet
EndChar

StartChar: uni01A0
Encoding: 416 416 351
Width: 689
Flags: W
LayerCount: 2
Fore
SplineSet
531 610 m 1
 582 551 611 460 611 340 c 0
 611 119 511 -10 344 -10 c 0
 185 -10 78 115 78 339 c 0
 78 563 187 691 344 691 c 0
 413 691 472 668 517 624 c 1
 561 630 579 648 579 686 c 0
 579 715 573 738 565 758 c 1
 582 765 l 1
 591 746 599 720 599 686 c 0
 599 641 575 616 531 610 c 1
344 12 m 0
 498 12 588 127 588 340 c 0
 588 557 492 670 344 670 c 0
 200 670 101 554 101 339 c 0
 101 127 199 12 344 12 c 0
EndSplineSet
EndChar

StartChar: uni01A1
Encoding: 417 417 352
Width: 565
Flags: W
LayerCount: 2
Fore
SplineSet
515 523 m 0
 515 476 489 451 442 446 c 1
 472 402 488 340 488 262 c 0
 488 89 406 -10 280 -10 c 0
 151 -10 73 91 73 259 c 0
 73 431 156 529 281 529 c 0
 344 529 395 506 431 461 c 1
 477 467 495 485 495 523 c 0
 495 552 489 575 481 595 c 1
 498 602 l 1
 507 583 515 557 515 523 c 0
280 11 m 0
 393 11 465 99 465 262 c 0
 465 421 396 509 281 509 c 0
 169 509 96 422 96 259 c 0
 96 101 165 11 280 11 c 0
EndSplineSet
EndChar

StartChar: uni01A2
Encoding: 418 418 353
Width: 881
Flags: W
LayerCount: 2
Fore
SplineSet
639 691 m 0
 714 691 758 652 758 565 c 2
 758 -192 l 1
 735 -192 l 1
 735 564 l 2
 735 644 699 672 639 672 c 0
 587 672 547 655 508 633 c 1
 573 575 611 477 611 340 c 0
 611 119 511 -10 344 -10 c 0
 185 -10 78 115 78 339 c 0
 78 563 187 691 344 691 c 0
 401 691 452 675 493 645 c 1
 535 670 581 691 639 691 c 0
588 340 m 0
 588 557 492 670 344 670 c 0
 200 670 101 554 101 339 c 0
 101 127 199 12 344 12 c 0
 498 12 588 127 588 340 c 0
EndSplineSet
EndChar

StartChar: uni01A3
Encoding: 419 419 354
Width: 740
Flags: W
LayerCount: 2
Fore
SplineSet
502 529 m 0
 578 529 622 486 622 401 c 2
 622 -197 l 1
 600 -192 l 1
 600 401 l 2
 600 478 564 509 501 509 c 0
 462 509 433 501 404 488 c 1
 457 445 488 368 488 262 c 0
 488 89 406 -10 280 -10 c 0
 151 -10 73 91 73 259 c 0
 73 431 156 529 281 529 c 0
 321 529 356 519 386 501 c 1
 419 517 457 529 502 529 c 0
465 262 m 0
 465 421 396 509 281 509 c 0
 169 509 96 422 96 259 c 0
 96 102 165 11 280 11 c 0
 393 11 465 100 465 262 c 0
EndSplineSet
EndChar

StartChar: uni01A4
Encoding: 420 420 355
Width: 601
Flags: W
LayerCount: 2
Fore
SplineSet
303 681 m 2
 458 681 543 623 543 484 c 0
 543 337 444 282 299 282 c 2
 188 282 l 1
 188 0 l 1
 165 0 l 1
 165 661 l 1
 132 661 l 2
 71 661 45 629 45 584 c 0
 45 551 57 529 70 508 c 1
 53 498 l 1
 38 521 23 544 23 584 c 0
 23 643 61 681 135 681 c 2
 303 681 l 2
301 303 m 2
 430 303 520 348 520 483 c 0
 520 612 445 660 303 660 c 2
 188 660 l 1
 188 303 l 1
 301 303 l 2
EndSplineSet
EndChar

StartChar: uni01A5
Encoding: 421 421 356
Width: 564
Flags: W
LayerCount: 2
Fore
SplineSet
308 529 m 0
 426 529 491 435 491 264 c 0
 491 94 426 -10 303 -10 c 0
 228 -10 174 31 140 80 c 1
 140 -192 l 1
 118 -196 l 1
 118 617 l 2
 118 695 168 737 242 737 c 0
 284 737 324 725 358 706 c 1
 349 689 l 1
 316 706 282 716 243 716 c 0
 182 716 140 686 140 614 c 2
 140 436 l 1
 179 490 232 529 308 529 c 0
302 11 m 0
 410 11 469 103 469 264 c 0
 469 424 413 509 308 509 c 0
 231 509 184 469 140 410 c 1
 140 106 l 1
 179 50 230 11 302 11 c 0
EndSplineSet
EndChar

StartChar: uni01A6
Encoding: 422 422 357
Width: 572
Flags: W
LayerCount: 2
Fore
SplineSet
501 -133 m 1
 313 191 l 1
 146 191 l 1
 146 0 l 1
 123 0 l 1
 123 681 l 1
 146 681 l 1
 146 549 l 1
 272 549 l 2
 431 549 496 483 496 371 c 0
 496 260 428 211 337 194 c 1
 528 -133 l 1
 501 -133 l 1
146 212 m 1
 287 212 l 2
 398 212 473 260 473 371 c 0
 473 470 420 527 269 527 c 2
 146 527 l 1
 146 212 l 1
EndSplineSet
EndChar

StartChar: uni01A7
Encoding: 423 423 358
Width: 529
Flags: W
LayerCount: 2
Fore
SplineSet
282 691 m 0
 391 691 456 627 456 540 c 0
 456 447 408 405 270 359 c 0
 142 316 93 275 93 175 c 0
 93 74 167 12 270 12 c 0
 358 12 411 42 460 87 c 1
 475 72 l 1
 422 23 361 -10 269 -10 c 0
 155 -10 69 63 69 175 c 0
 69 285 129 334 262 378 c 0
 388 419 433 454 433 540 c 0
 433 617 378 670 282 670 c 0
 207 670 159 649 105 606 c 1
 91 622 l 1
 145 664 195 691 282 691 c 0
EndSplineSet
EndChar

StartChar: uni01A8
Encoding: 424 424 359
Width: 443
Flags: W
LayerCount: 2
Fore
SplineSet
232 529 m 0
 320 529 384 480 384 405 c 0
 384 335 339 300 229 268 c 0
 115 235 81 204 81 129 c 0
 81 53 141 11 219 11 c 0
 292 11 337 35 382 71 c 1
 395 56 l 1
 351 19 299 -10 219 -10 c 0
 125 -10 58 45 58 129 c 0
 58 213 102 250 219 285 c 0
 322 315 361 343 361 405 c 0
 361 470 308 509 232 509 c 0
 172 509 130 493 85 459 c 1
 71 474 l 1
 120 511 169 529 232 529 c 0
EndSplineSet
EndChar

StartChar: uni01A9
Encoding: 425 425 360
Width: 485
Flags: W
LayerCount: 2
Fore
SplineSet
432 681 m 1
 432 660 l 1
 86 660 l 1
 316 344 l 1
 316 334 l 1
 86 21 l 1
 432 21 l 1
 432 0 l 1
 53 0 l 1
 53 12 l 1
 292 339 l 1
 53 669 l 1
 53 681 l 1
 432 681 l 1
EndSplineSet
EndChar

StartChar: uni01AA
Encoding: 426 426 361
Width: 262
Flags: W
LayerCount: 2
Fore
SplineSet
297 -152 m 1
 308 -167 l 1
 288 -182 260 -197 220 -197 c 0
 163 -197 122 -160 122 -86 c 2
 122 540 l 1
 104 528 81 521 54 521 c 0
 -2 521 -42 559 -42 626 c 0
 -42 690 -2 737 54 737 c 0
 112 737 144 694 144 637 c 2
 144 -86 l 2
 144 -152 178 -177 220 -177 c 0
 256 -177 278 -166 297 -152 c 1
55 541 m 0
 84 541 104 548 122 559 c 1
 122 636 l 2
 122 686 98 717 54 717 c 0
 9 717 -20 681 -20 627 c 0
 -20 567 11 541 55 541 c 0
EndSplineSet
EndChar

StartChar: uni01AB
Encoding: 427 427 362
Width: 331
Flags: W
LayerCount: 2
Fore
SplineSet
319 33 m 1
 327 20 l 1
 327 -86 l 2
 327 -160 286 -197 227 -197 c 0
 187 -197 160 -182 141 -169 c 1
 152 -154 l 1
 171 -166 193 -177 227 -177 c 0
 271 -177 305 -152 305 -86 c 2
 305 9 l 1
 282 -2 258 -10 226 -10 c 0
 156 -10 113 33 113 117 c 2
 113 499 l 1
 28 499 l 1
 28 519 l 1
 113 519 l 1
 113 650 l 1
 135 652 l 1
 135 519 l 1
 279 519 l 1
 276 499 l 1
 135 499 l 1
 135 118 l 2
 135 48 167 11 227 11 c 0
 263 11 291 20 319 33 c 1
EndSplineSet
EndChar

StartChar: uni01AC
Encoding: 428 428 363
Width: 496
Flags: W
LayerCount: 2
Fore
SplineSet
483 681 m 1
 479 659 l 1
 269 659 l 1
 269 0 l 1
 246 0 l 1
 246 659 l 1
 132 659 l 2
 71 659 45 629 45 584 c 0
 45 551 57 529 70 508 c 1
 53 498 l 1
 38 521 23 544 23 584 c 0
 23 643 61 681 137 681 c 2
 483 681 l 1
EndSplineSet
EndChar

StartChar: uni01AD
Encoding: 429 429 364
Width: 331
Flags: W
LayerCount: 2
Fore
SplineSet
227 11 m 0
 263 11 291 22 317 37 c 1
 327 20 l 1
 299 3 267 -10 226 -10 c 0
 156 -10 113 33 113 117 c 2
 113 499 l 1
 28 499 l 1
 28 519 l 1
 113 519 l 1
 113 610 l 2
 113 694 158 737 226 737 c 0
 267 737 299 724 327 707 c 1
 317 691 l 1
 291 706 263 717 227 717 c 0
 167 717 135 681 135 610 c 2
 135 519 l 1
 279 519 l 1
 276 499 l 1
 135 499 l 1
 135 118 l 2
 135 48 167 11 227 11 c 0
EndSplineSet
EndChar

StartChar: uni01AE
Encoding: 430 430 365
Width: 476
Flags: W
LayerCount: 2
Fore
SplineSet
249 -85 m 2
 249 -152 283 -176 325 -176 c 0
 360 -176 382 -165 401 -151 c 1
 412 -167 l 1
 393 -182 365 -197 325 -197 c 0
 268 -197 226 -160 226 -86 c 2
 226 659 l 1
 16 659 l 1
 16 681 l 1
 463 681 l 1
 459 659 l 1
 249 659 l 1
 249 -85 l 2
EndSplineSet
EndChar

StartChar: uni01AF
Encoding: 431 431 366
Width: 640
Flags: W
LayerCount: 2
Fore
SplineSet
606 686 m 0
 606 637 578 612 528 609 c 1
 528 207 l 2
 528 82 467 -10 321 -10 c 0
 173 -10 113 82 113 207 c 2
 113 681 l 1
 136 681 l 1
 136 210 l 2
 136 93 188 12 321 12 c 0
 454 12 505 95 505 210 c 2
 505 681 l 1
 528 681 l 1
 528 625 l 1
 569 631 586 649 586 686 c 0
 586 715 580 738 572 758 c 1
 589 765 l 1
 598 746 606 720 606 686 c 0
EndSplineSet
EndChar

StartChar: uni01B0
Encoding: 432 432 367
Width: 586
Flags: W
LayerCount: 2
Fore
SplineSet
537 523 m 0
 537 474 509 449 459 446 c 1
 459 0 l 1
 439 0 l 1
 439 106 l 1
 403 41 345 -10 259 -10 c 0
 167 -10 113 46 113 149 c 2
 113 519 l 1
 135 519 l 1
 135 151 l 2
 135 56 181 11 262 11 c 0
 342 11 396 61 437 133 c 1
 437 519 l 1
 459 519 l 1
 459 462 l 1
 500 468 517 486 517 523 c 0
 517 552 511 575 503 595 c 1
 520 602 l 1
 528 583 537 557 537 523 c 0
EndSplineSet
EndChar

StartChar: uni01B1
Encoding: 433 433 368
Width: 689
Flags: W
LayerCount: 2
Fore
SplineSet
345 -10 m 0
 184 -10 78 117 78 320 c 0
 78 509 154 606 227 660 c 1
 102 660 l 1
 102 681 l 1
 263 681 l 1
 263 661 l 1
 178 608 101 507 101 320 c 0
 101 126 198 11 345 11 c 0
 491 11 588 126 588 321 c 0
 588 507 512 608 427 661 c 1
 427 681 l 1
 588 681 l 1
 588 660 l 1
 462 660 l 1
 540 605 611 510 611 321 c 0
 611 117 505 -10 345 -10 c 0
EndSplineSet
EndChar

StartChar: uni01B2
Encoding: 434 434 369
Width: 640
Flags: W
LayerCount: 2
Fore
SplineSet
451 691 m 0
 499 691 528 663 528 601 c 2
 528 287 l 2
 528 87 429 -10 295 -10 c 0
 182 -10 113 62 113 179 c 2
 113 681 l 1
 136 681 l 1
 136 181 l 2
 136 73 197 12 295 12 c 0
 417 12 505 100 505 290 c 2
 505 601 l 2
 505 646 489 672 451 672 c 0
 433 672 418 667 406 661 c 1
 397 677 l 1
 411 685 429 691 451 691 c 0
EndSplineSet
EndChar

StartChar: uni01B3
Encoding: 435 435 370
Width: 514
Flags: W
LayerCount: 2
Fore
SplineSet
237 0 m 1
 237 270 l 1
 21 681 l 1
 47 681 l 1
 249 290 l 1
 399 614 l 2
 424 667 450 691 495 691 c 0
 532 691 555 675 576 654 c 1
 565 641 l 1
 543 660 526 672 495 672 c 0
 460 672 442 656 417 604 c 2
 260 270 l 1
 260 0 l 1
 237 0 l 1
EndSplineSet
EndChar

StartChar: uni01B4
Encoding: 436 436 371
Width: 454
Flags: W
LayerCount: 2
Fore
SplineSet
59 -195 m 1
 56 -177 l 1
 159 -146 185 -101 219 0 c 1
 210 0 l 1
 23 519 l 1
 47 519 l 1
 225 16 l 1
 374 486 l 2
 393 545 414 567 456 567 c 0
 475 567 490 563 502 557 c 1
 496 539 l 1
 484 544 471 547 457 547 c 0
 424 547 409 530 395 484 c 2
 240 -1 l 2
 203 -115 169 -163 59 -195 c 1
EndSplineSet
EndChar

StartChar: uni01B5
Encoding: 437 437 372
Width: 509
Flags: W
LayerCount: 2
Fore
SplineSet
459 681 m 1
 459 662 l 1
 271 353 l 1
 388 353 l 1
 388 332 l 1
 258 332 l 1
 69 22 l 1
 446 22 l 1
 443 0 l 1
 41 0 l 1
 41 21 l 1
 231 332 l 1
 120 332 l 1
 120 353 l 1
 244 353 l 1
 432 660 l 1
 79 660 l 1
 79 681 l 1
 459 681 l 1
EndSplineSet
EndChar

StartChar: uni01B6
Encoding: 438 438 373
Width: 405
Flags: W
LayerCount: 2
Fore
SplineSet
374 519 m 1
 374 501 l 1
 228 279 l 1
 331 279 l 1
 331 259 l 1
 215 259 l 1
 59 21 l 1
 366 21 l 1
 364 0 l 1
 31 0 l 1
 31 18 l 1
 189 259 l 1
 87 259 l 1
 87 279 l 1
 202 279 l 1
 346 499 l 1
 58 499 l 1
 58 519 l 1
 374 519 l 1
EndSplineSet
EndChar

StartChar: uni01B7
Encoding: 439 439 374
Width: 472
Flags: W
LayerCount: 2
Fore
SplineSet
207 373 m 2
 348 373 422 306 422 182 c 0
 422 71 348 -10 216 -10 c 0
 128 -10 71 20 23 72 c 1
 38 85 l 1
 86 34 138 12 216 12 c 0
 337 12 398 84 398 181 c 0
 398 300 326 352 207 352 c 2
 129 352 l 1
 129 373 l 1
 367 661 l 1
 37 661 l 1
 37 681 l 1
 396 681 l 1
 396 662 l 1
 155 373 l 1
 207 373 l 2
EndSplineSet
EndChar

StartChar: uni01B8
Encoding: 440 440 375
Width: 472
Flags: W
LayerCount: 2
Fore
SplineSet
434 85 m 1
 449 72 l 1
 399 20 344 -10 246 -10 c 0
 127 -10 50 63 50 177 c 0
 50 298 126 373 266 373 c 2
 317 373 l 1
 76 662 l 1
 76 681 l 1
 435 681 l 1
 435 661 l 1
 106 661 l 1
 343 374 l 1
 343 352 l 1
 265 352 l 2
 144 352 73 294 73 176 c 0
 73 75 138 12 247 12 c 0
 334 12 384 34 434 85 c 1
EndSplineSet
EndChar

StartChar: uni01B9
Encoding: 441 441 376
Width: 438
Flags: W
LayerCount: 2
Fore
SplineSet
400 -103 m 1
 415 -115 l 1
 368 -167 311 -197 226 -197 c 0
 106 -197 31 -116 31 -5 c 0
 31 113 102 194 259 194 c 2
 283 194 l 1
 58 501 l 1
 58 519 l 1
 398 519 l 1
 398 499 l 1
 86 499 l 1
 308 194 l 1
 308 173 l 1
 257 173 l 2
 120 173 54 108 54 -5 c 0
 54 -104 116 -176 225 -176 c 0
 300 -176 353 -154 400 -103 c 1
EndSplineSet
EndChar

StartChar: uni01BA
Encoding: 442 442 377
Width: 443
Flags: W
LayerCount: 2
Fore
SplineSet
142 -196 m 1
 78 -172 40 -141 40 -89 c 0
 40 -31 92 1 212 15 c 0
 333 28 381 59 381 144 c 0
 381 217 334 247 254 247 c 2
 117 247 l 1
 117 267 l 1
 342 499 l 1
 39 499 l 1
 39 519 l 1
 374 519 l 1
 374 501 l 1
 143 267 l 1
 255 267 l 2
 350 267 403 224 403 144 c 0
 403 47 343 10 216 -5 c 0
 111 -17 63 -39 63 -89 c 0
 63 -132 90 -155 149 -179 c 1
 142 -196 l 1
EndSplineSet
EndChar

StartChar: uni01BB
Encoding: 443 443 378
Width: 464
Flags: W
LayerCount: 2
Fore
SplineSet
406 272 m 1
 293 272 l 1
 244 209 174 131 75 22 c 1
 405 22 l 1
 401 0 l 1
 47 0 l 1
 47 21 l 1
 147 131 218 210 267 272 c 1
 90 272 l 1
 90 292 l 1
 282 292 l 1
 347 378 367 432 367 504 c 0
 367 592 311 652 221 652 c 0
 150 652 101 621 60 572 c 1
 43 583 l 1
 93 643 146 673 221 673 c 0
 328 673 390 600 390 506 c 0
 390 431 368 373 308 292 c 1
 406 292 l 1
 406 272 l 1
EndSplineSet
EndChar

StartChar: uni01BC
Encoding: 444 444 379
Width: 482
Flags: W
LayerCount: 2
Fore
SplineSet
401 681 m 1
 397 661 l 1
 108 661 l 1
 108 386 l 1
 139 407 178 425 236 425 c 0
 354 425 423 349 423 219 c 0
 423 84 350 -10 222 -10 c 0
 144 -10 87 18 43 69 c 1
 59 83 l 1
 100 35 150 11 223 11 c 0
 334 11 399 93 399 219 c 0
 399 342 336 404 235 404 c 0
 178 404 143 389 104 364 c 1
 86 364 l 1
 86 681 l 1
 401 681 l 1
EndSplineSet
EndChar

StartChar: uni01BD
Encoding: 445 445 380
Width: 420
Flags: W
LayerCount: 2
Fore
SplineSet
345 519 m 1
 341 499 l 1
 110 499 l 1
 110 296 l 1
 135 312 167 326 214 326 c 0
 307 326 361 265 361 167 c 0
 361 64 300 -10 196 -10 c 0
 133 -10 87 14 49 50 c 1
 63 64 l 1
 100 30 139 11 197 11 c 0
 286 11 338 73 338 167 c 0
 338 258 289 305 214 305 c 0
 166 305 139 295 105 275 c 1
 88 275 l 1
 88 519 l 1
 345 519 l 1
EndSplineSet
EndChar

StartChar: uni01BE
Encoding: 446 446 381
Width: 491
Flags: W
LayerCount: 2
Fore
SplineSet
237 409 m 2
 325 390 418 343 418 202 c 0
 418 82 345 -5 222 -5 c 0
 143 -5 90 26 41 74 c 1
 56 88 l 1
 99 47 148 17 221 17 c 0
 332 17 395 92 395 202 c 0
 395 328 312 369 236 387 c 2
 171 402 l 1
 171 572 l 1
 102 572 l 1
 102 592 l 1
 171 592 l 1
 171 733 l 1
 193 736 l 1
 193 592 l 1
 314 592 l 1
 314 572 l 1
 193 572 l 1
 193 418 l 1
 237 409 l 2
EndSplineSet
EndChar

StartChar: uni01BF
Encoding: 447 447 382
Width: 564
Flags: W
LayerCount: 2
Fore
SplineSet
324 529 m 0
 425 529 491 465 491 359 c 0
 491 211 394 119 205 21 c 2
 140 -12 l 1
 140 -192 l 1
 118 -196 l 1
 118 519 l 1
 137 519 l 1
 139 433 l 1
 187 490 242 529 324 529 c 0
197 40 m 2
 381 137 469 222 469 358 c 0
 469 454 411 509 323 509 c 0
 244 509 189 468 140 411 c 1
 140 10 l 1
 197 40 l 2
EndSplineSet
EndChar

StartChar: uni01C0
Encoding: 448 448 383
Width: 267
Flags: W
LayerCount: 2
Fore
SplineSet
144 736 m 1
 144 0 l 1
 123 0 l 1
 123 733 l 1
 144 736 l 1
EndSplineSet
EndChar

StartChar: uni01C1
Encoding: 449 449 384
Width: 406
Flags: W
LayerCount: 2
Fore
SplineSet
144 736 m 1
 144 0 l 1
 123 0 l 1
 123 733 l 1
 144 736 l 1
283 736 m 1
 283 0 l 1
 261 0 l 1
 261 733 l 1
 283 736 l 1
EndSplineSet
EndChar

StartChar: uni01C2
Encoding: 450 450 385
Width: 314
Flags: W
LayerCount: 2
Fore
SplineSet
279 430 m 1
 167 430 l 1
 167 300 l 1
 279 300 l 1
 279 281 l 1
 167 281 l 1
 167 0 l 1
 146 0 l 1
 146 281 l 1
 35 281 l 1
 35 300 l 1
 146 300 l 1
 146 430 l 1
 35 430 l 1
 35 449 l 1
 146 449 l 1
 146 733 l 1
 167 736 l 1
 167 449 l 1
 279 449 l 1
 279 430 l 1
EndSplineSet
EndChar

StartChar: uni01C3
Encoding: 451 451 386
Width: 293
Flags: W
LayerCount: 2
Fore
SplineSet
157 736 m 1
 157 192 l 1
 136 192 l 1
 136 733 l 1
 157 736 l 1
146 38 m 0
 161 38 170 28 170 15 c 0
 170 2 161 -8 146 -8 c 0
 132 -8 123 2 123 15 c 0
 123 28 132 38 146 38 c 0
EndSplineSet
EndChar

StartChar: uni01C4
Encoding: 452 452 387
Width: 1103
Flags: W
LayerCount: 2
Fore
SplineSet
964 863 m 1
 975 850 l 1
 855 760 l 1
 843 760 l 1
 723 850 l 1
 735 863 l 1
 849 784 l 1
 964 863 l 1
245 681 m 2
 390 681 542 627 542 348 c 0
 542 63 384 0 249 0 c 2
 123 0 l 1
 123 681 l 1
 245 681 l 2
1053 681 m 1
 1053 662 l 1
 663 22 l 1
 1040 22 l 1
 1037 0 l 1
 635 0 l 1
 635 21 l 1
 1026 660 l 1
 673 660 l 1
 673 681 l 1
 1053 681 l 1
243 660 m 2
 146 660 l 1
 146 21 l 1
 250 21 l 2
 380 21 518 82 518 348 c 0
 518 617 376 660 243 660 c 2
EndSplineSet
EndChar

StartChar: uni01C5
Encoding: 453 453 388
Width: 1024
Flags: W
LayerCount: 2
Fore
SplineSet
948 749 m 1
 959 736 l 1
 839 641 l 1
 827 641 l 1
 707 736 l 1
 719 749 l 1
 833 665 l 1
 948 749 l 1
245 681 m 2
 390 681 542 627 542 348 c 0
 542 63 384 0 249 0 c 2
 123 0 l 1
 123 681 l 1
 245 681 l 2
243 660 m 2
 146 660 l 1
 146 21 l 1
 250 21 l 2
 380 21 518 82 518 348 c 0
 518 617 376 660 243 660 c 2
993 519 m 1
 993 501 l 1
 678 21 l 1
 985 21 l 1
 983 0 l 1
 650 0 l 1
 650 18 l 1
 965 499 l 1
 677 499 l 1
 677 519 l 1
 993 519 l 1
EndSplineSet
EndChar

StartChar: uni01C6
Encoding: 454 454 389
Width: 974
Flags: W
LayerCount: 2
Fore
SplineSet
789 641 m 1
 777 641 l 1
 657 736 l 1
 669 749 l 1
 783 665 l 1
 898 749 l 1
 909 736 l 1
 789 641 l 1
429 446 m 1
 429 736 l 1
 451 733 l 1
 451 0 l 1
 432 0 l 1
 429 89 l 1
 400 36 351 -10 265 -10 c 0
 149 -10 73 89 73 258 c 0
 73 418 148 529 275 529 c 0
 356 529 402 487 429 446 c 1
943 519 m 1
 943 501 l 1
 628 21 l 1
 935 21 l 1
 933 0 l 1
 600 0 l 1
 600 18 l 1
 915 499 l 1
 627 499 l 1
 627 519 l 1
 943 519 l 1
266 11 m 0
 347 11 394 54 429 123 c 1
 429 418 l 1
 399 465 352 509 276 509 c 0
 168 509 95 413 96 258 c 0
 96 101 162 11 266 11 c 0
EndSplineSet
EndChar

StartChar: uni01C7
Encoding: 455 455 390
Width: 718
Flags: W
LayerCount: 2
Fore
SplineSet
146 681 m 1
 146 22 l 1
 434 22 l 1
 430 0 l 1
 123 0 l 1
 123 681 l 1
 146 681 l 1
602 681 m 1
 602 87 l 2
 602 -13 579 -53 471 -100 c 1
 464 -83 l 1
 557 -40 579 -4 579 89 c 2
 579 681 l 1
 602 681 l 1
EndSplineSet
EndChar

StartChar: uni01C8
Encoding: 456 456 391
Width: 704
Flags: W
LayerCount: 2
Fore
SplineSet
575 724 m 0
 588 724 595 714 595 704 c 0
 595 694 588 685 575 685 c 0
 562 685 555 694 555 704 c 0
 555 714 562 724 575 724 c 0
146 681 m 1
 146 22 l 1
 434 22 l 1
 430 0 l 1
 123 0 l 1
 123 681 l 1
 146 681 l 1
587 519 m 1
 587 6 l 2
 587 -122 551 -155 474 -195 c 1
 468 -178 l 1
 536 -142 565 -111 565 7 c 2
 565 519 l 1
 587 519 l 1
EndSplineSet
EndChar

StartChar: uni01C9
Encoding: 457 457 392
Width: 543
Flags: W
LayerCount: 2
Fore
SplineSet
185 -10 m 0
 142 -10 113 16 113 72 c 2
 113 733 l 1
 135 736 l 1
 135 73 l 2
 135 32 152 11 186 11 c 0
 200 11 214 14 226 19 c 1
 232 0 l 1
 219 -5 203 -10 185 -10 c 0
414 724 m 0
 428 724 435 714 435 704 c 0
 435 694 428 685 414 685 c 0
 402 685 394 694 394 704 c 0
 394 714 402 724 414 724 c 0
426 519 m 1
 426 6 l 2
 426 -122 390 -155 313 -195 c 1
 307 -178 l 1
 375 -142 404 -111 404 7 c 2
 404 519 l 1
 426 519 l 1
EndSplineSet
EndChar

StartChar: uni01CA
Encoding: 458 458 393
Width: 939
Flags: W
LayerCount: 2
Fore
SplineSet
538 681 m 1
 538 0 l 1
 510 0 l 1
 142 656 l 1
 144 621 145 576 145 477 c 2
 145 0 l 1
 123 0 l 1
 123 681 l 1
 152 681 l 1
 519 26 l 1
 518 66 516 127 516 205 c 2
 516 681 l 1
 538 681 l 1
822 681 m 1
 822 87 l 2
 822 -13 799 -53 691 -100 c 1
 684 -83 l 1
 777 -40 799 -4 799 89 c 2
 799 681 l 1
 822 681 l 1
EndSplineSet
EndChar

StartChar: uni01CB
Encoding: 459 459 394
Width: 920
Flags: W
LayerCount: 2
Fore
SplineSet
790 724 m 0
 803 724 810 714 810 704 c 0
 810 694 803 685 790 685 c 0
 777 685 770 694 770 704 c 0
 770 714 777 724 790 724 c 0
538 681 m 1
 538 0 l 1
 510 0 l 1
 142 656 l 1
 144 621 145 576 145 477 c 2
 145 0 l 1
 123 0 l 1
 123 681 l 1
 152 681 l 1
 519 26 l 1
 518 66 516 127 516 205 c 2
 516 681 l 1
 538 681 l 1
802 519 m 1
 802 6 l 2
 802 -122 766 -155 689 -195 c 1
 683 -178 l 1
 751 -142 780 -111 780 7 c 2
 780 519 l 1
 802 519 l 1
EndSplineSet
EndChar

StartChar: uni01CC
Encoding: 460 460 395
Width: 839
Flags: W
LayerCount: 2
Fore
SplineSet
710 724 m 0
 724 724 731 714 731 704 c 0
 731 694 724 685 710 685 c 0
 698 685 690 694 690 704 c 0
 690 714 698 724 710 724 c 0
330 529 m 0
 425 529 469 471 469 369 c 2
 469 0 l 1
 447 0 l 1
 447 367 l 2
 447 461 409 509 330 509 c 0
 246 509 189 459 140 384 c 1
 140 0 l 1
 118 0 l 1
 118 519 l 1
 137 519 l 1
 139 413 l 1
 186 483 248 529 330 529 c 0
700 7 m 2
 700 519 l 1
 722 519 l 1
 722 6 l 2
 722 -122 686 -155 609 -195 c 1
 603 -178 l 1
 671 -142 700 -111 700 7 c 2
EndSplineSet
EndChar

StartChar: uni01CD
Encoding: 461 461 396
Width: 557
Flags: W
LayerCount: 2
Fore
SplineSet
285 760 m 1
 273 760 l 1
 153 850 l 1
 164 863 l 1
 279 784 l 1
 393 863 l 1
 405 850 l 1
 285 760 l 1
505 0 m 1
 435 203 l 1
 121 203 l 1
 51 0 l 1
 28 0 l 1
 265 681 l 1
 292 681 l 1
 530 0 l 1
 505 0 l 1
128 224 m 1
 428 224 l 1
 278 663 l 1
 128 224 l 1
EndSplineSet
EndChar

StartChar: uni01CE
Encoding: 462 462 397
Width: 528
Flags: W
LayerCount: 2
Fore
SplineSet
260 641 m 1
 248 641 l 1
 128 736 l 1
 139 749 l 1
 254 665 l 1
 368 749 l 1
 380 736 l 1
 260 641 l 1
410 110 m 2
 410 41 423 18 457 6 c 1
 451 -10 l 1
 410 3 392 29 391 91 c 1
 354 25 299 -10 222 -10 c 0
 124 -10 66 52 66 144 c 0
 66 250 147 308 270 308 c 2
 388 308 l 1
 388 370 l 2
 388 460 355 509 255 509 c 0
 209 509 163 497 112 476 c 1
 105 495 l 1
 158 517 205 529 255 529 c 0
 365 529 410 474 410 372 c 2
 410 110 l 2
222 11 m 0
 303 11 354 52 388 119 c 1
 388 288 l 1
 274 288 l 2
 160 288 90 239 90 144 c 0
 90 62 140 11 222 11 c 0
EndSplineSet
EndChar

StartChar: uni01CF
Encoding: 463 463 398
Width: 268
Flags: W
LayerCount: 2
Fore
SplineSet
248 863 m 1
 260 850 l 1
 140 760 l 1
 128 760 l 1
 8 850 l 1
 19 863 l 1
 134 784 l 1
 248 863 l 1
146 681 m 1
 146 0 l 1
 123 0 l 1
 123 681 l 1
 146 681 l 1
EndSplineSet
EndChar

StartChar: uni01D0
Encoding: 464 464 399
Width: 258
Flags: W
LayerCount: 2
Fore
SplineSet
243 749 m 1
 255 736 l 1
 135 641 l 1
 123 641 l 1
 3 736 l 1
 14 749 l 1
 129 665 l 1
 243 749 l 1
140 519 m 1
 140 0 l 1
 118 0 l 1
 118 519 l 1
 140 519 l 1
EndSplineSet
EndChar

StartChar: uni01D1
Encoding: 465 465 400
Width: 689
Flags: W
LayerCount: 2
Fore
SplineSet
459 863 m 1
 471 850 l 1
 351 760 l 1
 339 760 l 1
 219 850 l 1
 230 863 l 1
 345 784 l 1
 459 863 l 1
344 691 m 0
 505 691 611 569 611 340 c 0
 611 119 511 -10 344 -10 c 0
 185 -10 78 115 78 339 c 0
 78 563 187 691 344 691 c 0
344 670 m 0
 200 670 101 554 101 339 c 0
 101 127 199 12 344 12 c 0
 498 12 588 127 588 340 c 0
 588 557 492 670 344 670 c 0
EndSplineSet
EndChar

StartChar: uni01D2
Encoding: 466 466 401
Width: 560
Flags: W
LayerCount: 2
Fore
SplineSet
395 749 m 1
 407 736 l 1
 287 641 l 1
 275 641 l 1
 155 736 l 1
 166 749 l 1
 281 665 l 1
 395 749 l 1
281 529 m 0
 408 529 488 434 488 262 c 0
 488 89 406 -10 280 -10 c 0
 151 -10 73 91 73 259 c 0
 73 431 156 529 281 529 c 0
281 509 m 0
 169 509 96 422 96 259 c 0
 96 101 165 11 280 11 c 0
 393 11 465 99 465 262 c 0
 465 421 396 509 281 509 c 0
EndSplineSet
EndChar

StartChar: uni01D3
Encoding: 467 467 402
Width: 640
Flags: W
LayerCount: 2
Fore
SplineSet
434 863 m 1
 446 850 l 1
 326 760 l 1
 314 760 l 1
 194 850 l 1
 205 863 l 1
 320 784 l 1
 434 863 l 1
528 681 m 1
 528 207 l 2
 528 82 467 -10 321 -10 c 0
 173 -10 113 82 113 207 c 2
 113 681 l 1
 136 681 l 1
 136 210 l 2
 136 93 188 12 321 12 c 0
 454 12 505 95 505 210 c 2
 505 681 l 1
 528 681 l 1
EndSplineSet
EndChar

StartChar: uni01D4
Encoding: 468 468 403
Width: 576
Flags: W
LayerCount: 2
Fore
SplineSet
401 749 m 1
 413 736 l 1
 293 641 l 1
 281 641 l 1
 161 736 l 1
 172 749 l 1
 287 665 l 1
 401 749 l 1
459 519 m 1
 459 0 l 1
 439 0 l 1
 439 106 l 1
 403 41 345 -10 259 -10 c 0
 167 -10 113 46 113 149 c 2
 113 519 l 1
 135 519 l 1
 135 151 l 2
 135 56 181 11 262 11 c 0
 342 11 396 61 437 133 c 1
 437 519 l 1
 459 519 l 1
EndSplineSet
EndChar

StartChar: uni01D5
Encoding: 469 469 404
Width: 640
Flags: W
LayerCount: 2
Fore
SplineSet
426 850 m 1
 219 850 l 1
 219 871 l 1
 426 871 l 1
 426 850 l 1
237 781 m 0
 249 781 257 772 257 762 c 0
 257 751 249 742 237 742 c 0
 225 742 217 751 217 762 c 0
 217 772 225 781 237 781 c 0
403 781 m 0
 415 781 422 772 422 762 c 0
 422 751 415 742 403 742 c 0
 390 742 382 751 382 762 c 0
 382 772 390 781 403 781 c 0
528 681 m 1
 528 207 l 2
 528 82 467 -10 321 -10 c 0
 173 -10 113 82 113 207 c 2
 113 681 l 1
 136 681 l 1
 136 210 l 2
 136 93 188 12 321 12 c 0
 454 12 505 95 505 210 c 2
 505 681 l 1
 528 681 l 1
EndSplineSet
EndChar

StartChar: uni01D6
Encoding: 470 470 405
Width: 576
Flags: W
LayerCount: 2
Fore
SplineSet
392 753 m 1
 185 753 l 1
 185 774 l 1
 392 774 l 1
 392 753 l 1
205 682 m 0
 217 682 225 673 225 662 c 0
 225 651 217 643 205 643 c 0
 193 643 185 651 185 662 c 0
 185 673 193 682 205 682 c 0
371 682 m 0
 383 682 391 673 391 662 c 0
 391 651 383 643 371 643 c 0
 358 643 351 651 351 662 c 0
 351 673 358 682 371 682 c 0
459 519 m 1
 459 0 l 1
 439 0 l 1
 439 106 l 1
 403 41 345 -10 259 -10 c 0
 167 -10 113 46 113 149 c 2
 113 519 l 1
 135 519 l 1
 135 151 l 2
 135 56 181 11 262 11 c 0
 342 11 396 61 437 133 c 1
 437 519 l 1
 459 519 l 1
EndSplineSet
EndChar

StartChar: uni01D7
Encoding: 471 471 406
Width: 640
Flags: W
LayerCount: 2
Fore
SplineSet
393 921 m 1
 411 904 l 1
 309 792 l 1
 297 803 l 1
 393 921 l 1
237 781 m 0
 249 781 257 772 257 762 c 0
 257 751 249 742 237 742 c 0
 225 742 217 751 217 762 c 0
 217 772 225 781 237 781 c 0
403 781 m 0
 415 781 422 772 422 762 c 0
 422 751 415 742 403 742 c 0
 390 742 382 751 382 762 c 0
 382 772 390 781 403 781 c 0
528 681 m 1
 528 207 l 2
 528 82 467 -10 321 -10 c 0
 173 -10 113 82 113 207 c 2
 113 681 l 1
 136 681 l 1
 136 210 l 2
 136 93 188 12 321 12 c 0
 454 12 505 95 505 210 c 2
 505 681 l 1
 528 681 l 1
EndSplineSet
EndChar

StartChar: uni01D8
Encoding: 472 472 407
Width: 576
Flags: W
LayerCount: 2
Fore
SplineSet
360 821 m 1
 378 805 l 1
 276 692 l 1
 264 703 l 1
 360 821 l 1
204 682 m 0
 216 682 224 673 224 662 c 0
 224 651 216 643 204 643 c 0
 192 643 184 651 184 662 c 0
 184 673 192 682 204 682 c 0
370 682 m 0
 382 682 389 673 389 662 c 0
 389 651 382 643 370 643 c 0
 357 643 349 651 349 662 c 0
 349 673 357 682 370 682 c 0
459 519 m 1
 459 0 l 1
 439 0 l 1
 439 106 l 1
 403 41 345 -10 259 -10 c 0
 167 -10 113 46 113 149 c 2
 113 519 l 1
 135 519 l 1
 135 151 l 2
 135 56 181 11 262 11 c 0
 342 11 396 61 437 133 c 1
 437 519 l 1
 459 519 l 1
EndSplineSet
EndChar

StartChar: uni01D9
Encoding: 473 473 408
Width: 640
Flags: W
LayerCount: 2
Fore
SplineSet
433 894 m 1
 445 881 l 1
 325 791 l 1
 313 791 l 1
 193 881 l 1
 204 894 l 1
 319 815 l 1
 433 894 l 1
237 781 m 0
 250 781 257 772 257 762 c 0
 257 751 250 742 237 742 c 0
 225 742 217 751 217 762 c 0
 217 772 225 781 237 781 c 0
403 781 m 0
 415 781 423 772 423 762 c 0
 423 751 415 742 403 742 c 0
 391 742 383 751 383 762 c 0
 383 772 391 781 403 781 c 0
528 681 m 1
 528 207 l 2
 528 82 467 -10 321 -10 c 0
 173 -10 113 82 113 207 c 2
 113 681 l 1
 136 681 l 1
 136 210 l 2
 136 93 188 12 321 12 c 0
 454 12 505 95 505 210 c 2
 505 681 l 1
 528 681 l 1
EndSplineSet
EndChar

StartChar: uni01DA
Encoding: 474 474 409
Width: 576
Flags: W
LayerCount: 2
Fore
SplineSet
399 794 m 1
 411 781 l 1
 291 691 l 1
 279 691 l 1
 159 781 l 1
 170 794 l 1
 285 716 l 1
 399 794 l 1
204 682 m 0
 216 682 224 673 224 662 c 0
 224 651 216 643 204 643 c 0
 192 643 184 651 184 662 c 0
 184 673 192 682 204 682 c 0
370 682 m 0
 382 682 389 673 389 662 c 0
 389 651 382 643 370 643 c 0
 357 643 350 651 350 662 c 0
 350 673 357 682 370 682 c 0
459 519 m 1
 459 0 l 1
 439 0 l 1
 439 106 l 1
 403 41 345 -10 259 -10 c 0
 167 -10 113 46 113 149 c 2
 113 519 l 1
 135 519 l 1
 135 151 l 2
 135 56 181 11 262 11 c 0
 342 11 396 61 437 133 c 1
 437 519 l 1
 459 519 l 1
EndSplineSet
EndChar

StartChar: uni01DB
Encoding: 475 475 410
Width: 640
Flags: W
LayerCount: 2
Fore
SplineSet
251 921 m 1
 348 803 l 1
 335 792 l 1
 233 904 l 1
 251 921 l 1
237 781 m 0
 249 781 257 772 257 762 c 0
 257 751 249 742 237 742 c 0
 225 742 217 751 217 762 c 0
 217 772 225 781 237 781 c 0
403 781 m 0
 415 781 422 772 422 762 c 0
 422 751 415 742 403 742 c 0
 390 742 382 751 382 762 c 0
 382 772 390 781 403 781 c 0
528 681 m 1
 528 207 l 2
 528 82 467 -10 321 -10 c 0
 173 -10 113 82 113 207 c 2
 113 681 l 1
 136 681 l 1
 136 210 l 2
 136 93 188 12 321 12 c 0
 454 12 505 95 505 210 c 2
 505 681 l 1
 528 681 l 1
EndSplineSet
EndChar

StartChar: uni01DC
Encoding: 476 476 411
Width: 576
Flags: W
LayerCount: 2
Fore
SplineSet
218 821 m 1
 315 703 l 1
 302 692 l 1
 200 805 l 1
 218 821 l 1
204 682 m 0
 216 682 224 673 224 662 c 0
 224 651 216 643 204 643 c 0
 192 643 184 651 184 662 c 0
 184 673 192 682 204 682 c 0
370 682 m 0
 382 682 389 673 389 662 c 0
 389 651 382 643 370 643 c 0
 357 643 349 651 349 662 c 0
 349 673 357 682 370 682 c 0
459 519 m 1
 459 0 l 1
 439 0 l 1
 439 106 l 1
 403 41 345 -10 259 -10 c 0
 167 -10 113 46 113 149 c 2
 113 519 l 1
 135 519 l 1
 135 151 l 2
 135 56 181 11 262 11 c 0
 342 11 396 61 437 133 c 1
 437 519 l 1
 459 519 l 1
EndSplineSet
EndChar

StartChar: uni01DD
Encoding: 477 477 412
Width: 530
Flags: W
LayerCount: 2
Fore
SplineSet
264 529 m 0
 384 529 457 441 457 264 c 0
 457 74 378 -10 259 -10 c 0
 138 -10 66 89 66 243 c 0
 66 251 66 264 67 273 c 1
 435 273 l 1
 433 432 366 509 264 509 c 0
 202 509 158 489 111 457 c 1
 99 472 l 1
 145 507 198 529 264 529 c 0
259 11 m 0
 366 11 433 84 435 253 c 1
 89 253 l 2
 88 250 88 247 88 243 c 0
 88 97 151 11 259 11 c 0
EndSplineSet
EndChar

StartChar: uni01DE
Encoding: 478 478 413
Width: 557
Flags: W
LayerCount: 2
Fore
SplineSet
385 871 m 1
 385 850 l 1
 178 850 l 1
 178 871 l 1
 385 871 l 1
196 742 m 0
 184 742 176 751 176 762 c 0
 176 772 184 781 196 781 c 0
 208 781 216 772 216 762 c 0
 216 751 208 742 196 742 c 0
341 762 m 0
 341 772 349 781 362 781 c 0
 374 781 381 772 381 762 c 0
 381 751 374 742 362 742 c 0
 349 742 341 751 341 762 c 0
505 0 m 1
 435 203 l 1
 121 203 l 1
 51 0 l 1
 28 0 l 1
 265 681 l 1
 292 681 l 1
 530 0 l 1
 505 0 l 1
128 224 m 1
 428 224 l 1
 278 663 l 1
 128 224 l 1
EndSplineSet
EndChar

StartChar: uni01DF
Encoding: 479 479 414
Width: 528
Flags: W
LayerCount: 2
Fore
SplineSet
359 774 m 1
 359 753 l 1
 152 753 l 1
 152 774 l 1
 359 774 l 1
172 643 m 0
 160 643 152 651 152 662 c 0
 152 673 160 682 172 682 c 0
 184 682 192 673 192 662 c 0
 192 651 184 643 172 643 c 0
318 662 m 0
 318 673 325 682 338 682 c 0
 350 682 358 673 358 662 c 0
 358 651 350 643 338 643 c 0
 325 643 318 651 318 662 c 0
410 110 m 2
 410 41 423 18 457 6 c 1
 451 -10 l 1
 410 3 392 29 391 91 c 1
 354 25 299 -10 222 -10 c 0
 124 -10 66 52 66 144 c 0
 66 250 147 308 270 308 c 2
 388 308 l 1
 388 370 l 2
 388 460 355 509 255 509 c 0
 209 509 163 497 112 476 c 1
 105 495 l 1
 158 517 205 529 255 529 c 0
 365 529 410 474 410 372 c 2
 410 110 l 2
222 11 m 0
 303 11 354 52 388 119 c 1
 388 288 l 1
 274 288 l 2
 160 288 90 239 90 144 c 0
 90 62 140 11 222 11 c 0
EndSplineSet
EndChar

StartChar: uni01E0
Encoding: 480 480 415
Width: 557
Flags: W
LayerCount: 2
Fore
SplineSet
382 870 m 1
 382 849 l 1
 175 849 l 1
 175 870 l 1
 382 870 l 1
258 766 m 0
 258 776 265 785 278 785 c 0
 291 785 298 776 298 766 c 0
 298 756 291 746 278 746 c 0
 265 746 258 756 258 766 c 0
505 0 m 1
 435 203 l 1
 121 203 l 1
 51 0 l 1
 28 0 l 1
 265 681 l 1
 292 681 l 1
 530 0 l 1
 505 0 l 1
128 224 m 1
 428 224 l 1
 278 663 l 1
 128 224 l 1
EndSplineSet
EndChar

StartChar: uni01E1
Encoding: 481 481 416
Width: 528
Flags: W
LayerCount: 2
Fore
SplineSet
358 766 m 1
 358 744 l 1
 151 744 l 1
 151 766 l 1
 358 766 l 1
234 651 m 0
 234 662 242 671 255 671 c 0
 268 671 275 662 275 651 c 0
 275 641 268 632 255 632 c 0
 242 632 234 641 234 651 c 0
410 110 m 2
 410 41 423 18 457 6 c 1
 451 -10 l 1
 410 3 392 29 391 91 c 1
 354 25 299 -10 222 -10 c 0
 124 -10 66 52 66 144 c 0
 66 250 147 308 270 308 c 2
 388 308 l 1
 388 370 l 2
 388 460 355 509 255 509 c 0
 209 509 163 497 112 476 c 1
 105 495 l 1
 158 517 205 529 255 529 c 0
 365 529 410 474 410 372 c 2
 410 110 l 2
222 11 m 0
 303 11 354 52 388 119 c 1
 388 288 l 1
 274 288 l 2
 160 288 90 239 90 144 c 0
 90 62 140 11 222 11 c 0
EndSplineSet
EndChar

StartChar: uni01E2
Encoding: 482 482 417
Width: 755
Flags: W
LayerCount: 2
Fore
SplineSet
550 832 m 1
 550 811 l 1
 343 811 l 1
 343 832 l 1
 550 832 l 1
481 21 m 1
 712 21 l 1
 712 0 l 1
 464 0 l 1
 412 196 l 1
 110 196 l 1
 35 0 l 1
 12 0 l 1
 275 681 l 1
 659 681 l 1
 656 660 l 1
 313 660 l 1
 389 370 l 1
 651 370 l 1
 651 349 l 1
 395 349 l 1
 481 21 l 1
119 218 m 1
 406 218 l 1
 289 663 l 1
 119 218 l 1
EndSplineSet
EndChar

StartChar: uni01E3
Encoding: 483 483 418
Width: 842
Flags: W
LayerCount: 2
Fore
SplineSet
526 706 m 1
 526 685 l 1
 319 685 l 1
 319 706 l 1
 526 706 l 1
776 284 m 0
 776 270 775 257 774 246 c 1
 411 246 l 1
 416 87 490 11 595 11 c 0
 658 11 697 31 742 68 c 1
 754 51 l 1
 709 13 662 -10 595 -10 c 0
 511 -10 447 33 414 111 c 1
 357 24 301 -10 222 -10 c 0
 124 -10 66 52 66 144 c 0
 66 250 147 308 270 308 c 2
 388 308 l 1
 388 370 l 2
 388 460 355 509 255 509 c 0
 209 509 163 497 112 476 c 1
 105 495 l 1
 158 517 205 529 255 529 c 0
 359 529 405 480 410 389 c 1
 441 482 504 529 590 529 c 0
 716 529 776 429 776 284 c 0
754 265 m 1
 754 292 l 2
 754 418 703 509 591 509 c 0
 490 509 414 430 411 265 c 1
 754 265 l 1
222 11 m 0
 300 11 351 49 406 132 c 1
 394 167 388 209 388 255 c 2
 388 288 l 1
 274 288 l 2
 160 288 90 239 90 144 c 0
 90 62 140 11 222 11 c 0
EndSplineSet
EndChar

StartChar: uni01E4
Encoding: 484 484 419
Width: 620
Flags: W
LayerCount: 2
Fore
SplineSet
608 233 m 1
 608 212 l 1
 533 212 l 1
 533 41 l 1
 480 10 418 -10 353 -10 c 0
 189 -10 78 110 78 345 c 0
 78 583 216 691 347 691 c 0
 417 691 465 672 516 632 c 1
 503 617 l 1
 455 653 409 670 347 670 c 0
 229 670 101 576 101 345 c 0
 101 122 202 12 353 12 c 0
 419 12 467 28 510 53 c 1
 510 212 l 1
 365 212 l 1
 365 233 l 1
 510 233 l 1
 510 333 l 1
 365 333 l 1
 362 354 l 1
 533 354 l 1
 533 233 l 1
 608 233 l 1
EndSplineSet
EndChar

StartChar: uni01E5
Encoding: 485 485 420
Width: 488
Flags: W
LayerCount: 2
Fore
SplineSet
524 -48 m 1
 524 -69 l 1
 458 -69 l 1
 452 -150 386 -197 251 -197 c 0
 107 -197 44 -159 44 -58 c 1
 66 -58 l 1
 68 -146 118 -176 251 -176 c 0
 374 -176 430 -136 436 -69 c 1
 280 -69 l 1
 280 -48 l 1
 436 -48 l 1
 431 9 383 43 304 43 c 2
 216 43 l 2
 137 43 96 78 96 126 c 0
 96 163 120 191 153 212 c 1
 97 241 66 287 66 358 c 0
 66 461 135 529 243 529 c 0
 393 528 422 537 463 550 c 1
 471 526 l 1
 440 518 396 512 318 512 c 1
 382 491 422 439 422 356 c 0
 422 254 354 190 245 190 c 0
 217 190 192 196 171 204 c 1
 139 186 119 161 119 129 c 0
 119 91 147 64 218 64 c 2
 305 64 l 2
 399 64 453 19 458 -48 c 1
 524 -48 l 1
88 358 m 0
 88 260 160 210 245 210 c 0
 341 210 399 263 399 356 c 0
 399 453 340 509 244 509 c 0
 142 509 88 446 88 358 c 0
EndSplineSet
EndChar

StartChar: uni01E6
Encoding: 486 486 421
Width: 605
Flags: W
LayerCount: 2
Fore
SplineSet
459 863 m 1
 471 850 l 1
 351 760 l 1
 339 760 l 1
 219 850 l 1
 230 863 l 1
 345 784 l 1
 459 863 l 1
348 691 m 0
 417 691 465 672 516 632 c 1
 503 616 l 1
 455 653 409 670 348 670 c 0
 228 670 101 576 101 345 c 0
 101 122 202 12 353 12 c 0
 419 12 467 28 510 53 c 1
 510 333 l 1
 365 333 l 1
 362 354 l 1
 533 354 l 1
 533 41 l 1
 480 10 418 -10 353 -10 c 0
 189 -10 78 110 78 345 c 0
 78 583 215 691 348 691 c 0
EndSplineSet
EndChar

StartChar: uni01E7
Encoding: 487 487 422
Width: 495
Flags: W
LayerCount: 2
Fore
SplineSet
359 749 m 1
 371 736 l 1
 251 641 l 1
 239 641 l 1
 119 736 l 1
 130 749 l 1
 245 665 l 1
 359 749 l 1
463 550 m 1
 471 526 l 1
 440 518 396 512 318 512 c 1
 382 490 422 440 422 356 c 0
 422 254 354 190 245 190 c 0
 217 190 192 196 171 204 c 1
 139 186 119 161 119 129 c 0
 119 91 147 64 218 64 c 2
 305 64 l 2
 403 64 458 15 458 -57 c 0
 458 -145 393 -197 251 -197 c 0
 107 -197 44 -159 44 -58 c 1
 66 -58 l 1
 68 -146 117 -176 251 -176 c 0
 381 -176 436 -132 436 -58 c 0
 436 5 387 43 304 43 c 2
 216 43 l 2
 137 43 96 78 96 126 c 0
 96 163 120 191 153 212 c 1
 97 241 66 287 66 358 c 0
 66 461 135 529 243 529 c 0
 393 528 422 537 463 550 c 1
244 509 m 0
 142 509 88 446 88 358 c 0
 88 260 160 210 245 210 c 0
 341 210 399 263 399 356 c 0
 399 453 340 509 244 509 c 0
EndSplineSet
EndChar

StartChar: uni01E8
Encoding: 488 488 423
Width: 510
Flags: W
LayerCount: 2
Fore
SplineSet
402 863 m 1
 414 850 l 1
 294 760 l 1
 282 760 l 1
 162 850 l 1
 173 863 l 1
 288 784 l 1
 402 863 l 1
146 681 m 1
 146 0 l 1
 123 0 l 1
 123 681 l 1
 146 681 l 1
490 681 m 1
 178 367 l 1
 506 0 l 1
 478 0 l 1
 149 367 l 1
 463 681 l 1
 490 681 l 1
EndSplineSet
EndChar

StartChar: uni01E9
Encoding: 489 489 424
Width: 463
Flags: W
LayerCount: 2
Fore
SplineSet
374 914 m 1
 386 901 l 1
 266 811 l 1
 254 811 l 1
 134 901 l 1
 145 914 l 1
 260 835 l 1
 374 914 l 1
140 736 m 1
 140 0 l 1
 118 0 l 1
 118 733 l 1
 140 736 l 1
420 519 m 1
 174 284 l 1
 445 0 l 1
 418 0 l 1
 146 284 l 1
 392 519 l 1
 420 519 l 1
EndSplineSet
EndChar

StartChar: uni01EA
Encoding: 490 490 425
Width: 689
Flags: W
LayerCount: 2
Fore
SplineSet
415 -1 m 1
 346 -32 293 -64 293 -122 c 0
 293 -158 316 -181 363 -181 c 0
 381 -181 397 -179 418 -174 c 1
 416 -196 l 1
 396 -201 381 -203 362 -203 c 0
 299 -203 269 -169 269 -123 c 0
 269 -73 304 -39 360 -10 c 1
 344 -10 l 2
 185 -10 78 115 78 339 c 0
 78 563 187 691 344 691 c 0
 505 691 611 569 611 340 c 0
 611 152 539 31 415 -1 c 1
101 339 m 0
 101 127 199 12 344 12 c 0
 498 12 588 127 588 340 c 0
 588 557 492 670 344 670 c 0
 200 670 101 554 101 339 c 0
EndSplineSet
EndChar

StartChar: uni01EB
Encoding: 491 491 426
Width: 560
Flags: W
LayerCount: 2
Fore
SplineSet
338 -2 m 1
 269 -33 218 -64 218 -122 c 0
 218 -158 241 -181 288 -181 c 0
 306 -181 322 -179 343 -174 c 1
 341 -196 l 1
 321 -201 306 -203 287 -203 c 0
 224 -203 194 -169 194 -123 c 0
 194 -74 229 -39 285 -10 c 1
 280 -10 l 2
 151 -10 73 91 73 259 c 0
 73 431 156 529 281 529 c 0
 408 529 488 434 488 262 c 0
 488 117 431 24 338 -2 c 1
96 259 m 0
 96 101 165 11 280 11 c 0
 393 11 465 99 465 262 c 0
 465 421 396 509 281 509 c 0
 169 509 96 422 96 259 c 0
EndSplineSet
EndChar

StartChar: uni01EC
Encoding: 492 492 427
Width: 689
Flags: W
LayerCount: 2
Fore
SplineSet
448 832 m 1
 448 811 l 1
 241 811 l 1
 241 832 l 1
 448 832 l 1
415 -1 m 1
 346 -32 293 -64 293 -122 c 0
 293 -158 316 -181 363 -181 c 0
 381 -181 397 -179 418 -174 c 1
 416 -196 l 1
 396 -201 381 -203 362 -203 c 0
 299 -203 269 -169 269 -123 c 0
 269 -73 304 -39 360 -10 c 1
 344 -10 l 2
 185 -10 78 115 78 339 c 0
 78 563 187 691 344 691 c 0
 505 691 611 569 611 340 c 0
 611 152 539 31 415 -1 c 1
101 339 m 0
 101 127 199 12 344 12 c 0
 498 12 588 127 588 340 c 0
 588 557 492 670 344 670 c 0
 200 670 101 554 101 339 c 0
EndSplineSet
EndChar

StartChar: uni01ED
Encoding: 493 493 428
Width: 560
Flags: W
LayerCount: 2
Fore
SplineSet
384 706 m 1
 384 685 l 1
 177 685 l 1
 177 706 l 1
 384 706 l 1
338 -2 m 1
 269 -33 218 -64 218 -122 c 0
 218 -158 241 -181 288 -181 c 0
 306 -181 322 -179 343 -174 c 1
 341 -196 l 1
 321 -201 306 -203 287 -203 c 0
 224 -203 194 -169 194 -123 c 0
 194 -74 229 -39 285 -10 c 1
 280 -10 l 2
 151 -10 73 91 73 259 c 0
 73 431 156 529 281 529 c 0
 408 529 488 434 488 262 c 0
 488 117 431 24 338 -2 c 1
96 259 m 0
 96 101 165 11 280 11 c 0
 393 11 465 99 465 262 c 0
 465 421 396 509 281 509 c 0
 169 509 96 422 96 259 c 0
EndSplineSet
EndChar

StartChar: uni01EE
Encoding: 494 494 429
Width: 472
Flags: W
LayerCount: 2
Fore
SplineSet
223 760 m 1
 211 760 l 1
 91 850 l 1
 102 863 l 1
 217 784 l 1
 331 863 l 1
 343 850 l 1
 223 760 l 1
207 373 m 2
 348 373 422 306 422 182 c 0
 422 71 348 -10 216 -10 c 0
 128 -10 71 20 23 72 c 1
 38 85 l 1
 86 34 138 12 216 12 c 0
 337 12 398 84 398 181 c 0
 398 300 326 352 207 352 c 2
 129 352 l 1
 129 373 l 1
 367 661 l 1
 37 661 l 1
 37 681 l 1
 396 681 l 1
 396 662 l 1
 155 373 l 1
 207 373 l 2
EndSplineSet
EndChar

StartChar: uni01EF
Encoding: 495 495 430
Width: 438
Flags: W
LayerCount: 2
Fore
SplineSet
216 641 m 1
 204 641 l 1
 84 736 l 1
 95 749 l 1
 210 665 l 1
 324 749 l 1
 336 736 l 1
 216 641 l 1
181 194 m 2
 336 194 407 125 407 2 c 0
 407 -114 332 -197 206 -197 c 0
 126 -197 70 -167 23 -115 c 1
 38 -103 l 1
 86 -154 136 -176 206 -176 c 0
 322 -176 384 -104 384 2 c 0
 384 120 318 173 181 173 c 2
 130 173 l 1
 130 194 l 1
 353 499 l 1
 40 499 l 1
 40 519 l 1
 380 519 l 1
 380 501 l 1
 155 194 l 1
 181 194 l 2
EndSplineSet
EndChar

StartChar: uni01F0
Encoding: 496 496 431
Width: 258
Flags: W
LayerCount: 2
Fore
SplineSet
243 749 m 1
 255 736 l 1
 135 641 l 1
 123 641 l 1
 3 736 l 1
 14 749 l 1
 129 665 l 1
 243 749 l 1
141 519 m 1
 141 6 l 2
 141 -122 105 -155 28 -195 c 1
 22 -178 l 1
 90 -142 119 -111 119 7 c 2
 119 519 l 1
 141 519 l 1
EndSplineSet
EndChar

StartChar: uni01F1
Encoding: 497 497 432
Width: 1103
Flags: W
LayerCount: 2
Fore
SplineSet
245 681 m 2
 390 681 542 627 542 348 c 0
 542 63 384 0 249 0 c 2
 123 0 l 1
 123 681 l 1
 245 681 l 2
1053 681 m 1
 1053 662 l 1
 663 22 l 1
 1040 22 l 1
 1037 0 l 1
 635 0 l 1
 635 21 l 1
 1026 660 l 1
 673 660 l 1
 673 681 l 1
 1053 681 l 1
243 660 m 2
 146 660 l 1
 146 21 l 1
 250 21 l 2
 380 21 518 82 518 348 c 0
 518 617 376 660 243 660 c 2
EndSplineSet
EndChar

StartChar: uni01F2
Encoding: 498 498 433
Width: 1024
Flags: W
LayerCount: 2
Fore
SplineSet
245 681 m 2
 390 681 542 627 542 348 c 0
 542 63 384 0 249 0 c 2
 123 0 l 1
 123 681 l 1
 245 681 l 2
243 660 m 2
 146 660 l 1
 146 21 l 1
 250 21 l 2
 380 21 518 82 518 348 c 0
 518 617 376 660 243 660 c 2
993 519 m 1
 993 501 l 1
 678 21 l 1
 985 21 l 1
 983 0 l 1
 650 0 l 1
 650 18 l 1
 965 499 l 1
 677 499 l 1
 677 519 l 1
 993 519 l 1
EndSplineSet
EndChar

StartChar: uni01F3
Encoding: 499 499 434
Width: 974
Flags: W
LayerCount: 2
Fore
SplineSet
429 446 m 1
 429 736 l 1
 451 733 l 1
 451 0 l 1
 432 0 l 1
 429 89 l 1
 400 36 351 -10 265 -10 c 0
 149 -10 73 89 73 258 c 0
 73 418 148 529 275 529 c 0
 356 529 402 487 429 446 c 1
943 519 m 1
 943 501 l 1
 628 21 l 1
 935 21 l 1
 933 0 l 1
 600 0 l 1
 600 18 l 1
 915 499 l 1
 627 499 l 1
 627 519 l 1
 943 519 l 1
266 11 m 0
 347 11 394 54 429 123 c 1
 429 418 l 1
 399 465 352 509 276 509 c 0
 168 509 95 413 96 258 c 0
 96 101 162 11 266 11 c 0
EndSplineSet
EndChar

StartChar: uni01F4
Encoding: 500 500 435
Width: 605
Flags: W
LayerCount: 2
Fore
SplineSet
427 861 m 1
 438 838 l 1
 259 764 l 1
 252 779 l 1
 427 861 l 1
348 691 m 0
 417 691 465 672 516 632 c 1
 503 616 l 1
 455 653 409 670 348 670 c 0
 228 670 101 576 101 345 c 0
 101 122 202 12 353 12 c 0
 419 12 467 28 510 53 c 1
 510 333 l 1
 365 333 l 1
 362 354 l 1
 533 354 l 1
 533 41 l 1
 480 10 418 -10 353 -10 c 0
 189 -10 78 110 78 345 c 0
 78 583 215 691 348 691 c 0
EndSplineSet
EndChar

StartChar: uni01F5
Encoding: 501 501 436
Width: 495
Flags: W
LayerCount: 2
Fore
SplineSet
319 761 m 1
 329 738 l 1
 151 654 l 1
 143 670 l 1
 319 761 l 1
463 550 m 1
 471 526 l 1
 440 518 396 512 318 512 c 1
 382 490 422 440 422 356 c 0
 422 254 354 190 245 190 c 0
 217 190 192 196 171 204 c 1
 139 186 119 161 119 129 c 0
 119 91 147 64 218 64 c 2
 305 64 l 2
 403 64 458 15 458 -57 c 0
 458 -145 393 -197 251 -197 c 0
 107 -197 44 -159 44 -58 c 1
 66 -58 l 1
 68 -146 117 -176 251 -176 c 0
 381 -176 436 -132 436 -58 c 0
 436 5 387 43 304 43 c 2
 216 43 l 2
 137 43 96 78 96 126 c 0
 96 163 120 191 153 212 c 1
 97 241 66 287 66 358 c 0
 66 461 135 529 243 529 c 0
 393 528 422 537 463 550 c 1
244 509 m 0
 142 509 88 446 88 358 c 0
 88 260 160 210 245 210 c 0
 341 210 399 263 399 356 c 0
 399 453 340 509 244 509 c 0
EndSplineSet
EndChar

StartChar: uni01F6
Encoding: 502 502 437
Width: 959
Flags: W
LayerCount: 2
Fore
SplineSet
839 519 m 1
 852 445 866 358 866 266 c 0
 866 72 779 -10 672 -10 c 0
 583 -10 514 45 514 155 c 2
 514 349 l 1
 146 349 l 1
 146 0 l 1
 123 0 l 1
 123 681 l 1
 146 681 l 1
 146 371 l 1
 514 371 l 1
 514 681 l 1
 537 681 l 1
 537 156 l 2
 537 55 596 11 672 11 c 0
 760 11 843 75 843 266 c 0
 843 358 830 445 817 519 c 1
 839 519 l 1
EndSplineSet
EndChar

StartChar: uni01F7
Encoding: 503 503 438
Width: 558
Flags: W
LayerCount: 2
Fore
SplineSet
326 691 m 0
 430 691 501 625 501 516 c 0
 501 371 394 309 256 262 c 2
 146 224 l 1
 146 0 l 1
 123 0 l 1
 123 681 l 1
 146 681 l 1
 146 618 l 1
 187 656 242 691 326 691 c 0
258 284 m 2
 381 326 477 382 477 516 c 0
 477 615 416 670 326 670 c 0
 242 670 188 634 146 596 c 1
 146 245 l 1
 258 284 l 2
EndSplineSet
EndChar

StartChar: uni01F8
Encoding: 504 504 439
Width: 661
Flags: W
LayerCount: 2
Fore
SplineSet
257 861 m 1
 431 779 l 1
 424 764 l 1
 245 838 l 1
 257 861 l 1
538 681 m 1
 538 0 l 1
 510 0 l 1
 142 656 l 1
 144 621 145 576 145 477 c 2
 145 0 l 1
 123 0 l 1
 123 681 l 1
 152 681 l 1
 519 26 l 1
 518 66 516 127 516 205 c 2
 516 681 l 1
 538 681 l 1
EndSplineSet
EndChar

StartChar: uni01F9
Encoding: 505 505 440
Width: 581
Flags: W
LayerCount: 2
Fore
SplineSet
391 670 m 1
 383 654 l 1
 205 738 l 1
 215 761 l 1
 391 670 l 1
330 529 m 0
 425 529 469 471 469 369 c 2
 469 0 l 1
 447 0 l 1
 447 367 l 2
 447 461 409 509 330 509 c 0
 246 509 189 459 140 384 c 1
 140 0 l 1
 118 0 l 1
 118 519 l 1
 137 519 l 1
 139 413 l 1
 186 483 248 529 330 529 c 0
EndSplineSet
EndChar

StartChar: uni01FA
Encoding: 506 506 441
Width: 557
Flags: W
LayerCount: 2
Fore
SplineSet
372 981 m 1
 193 907 l 1
 187 922 l 1
 361 1004 l 1
 372 981 l 1
199 808 m 0
 199 856 231 887 279 887 c 0
 327 887 358 856 358 809 c 0
 358 761 326 730 279 730 c 0
 230 730 199 761 199 808 c 0
337 809 m 0
 337 846 316 869 279 869 c 0
 241 869 220 846 220 808 c 0
 220 771 241 748 279 748 c 0
 316 748 337 771 337 809 c 0
505 0 m 1
 435 203 l 1
 121 203 l 1
 51 0 l 1
 28 0 l 1
 265 681 l 1
 292 681 l 1
 530 0 l 1
 505 0 l 1
128 224 m 1
 428 224 l 1
 278 663 l 1
 128 224 l 1
EndSplineSet
EndChar

StartChar: uni01FB
Encoding: 507 507 442
Width: 528
Flags: W
LayerCount: 2
Fore
SplineSet
348 834 m 1
 169 760 l 1
 162 776 l 1
 337 858 l 1
 348 834 l 1
176 667 m 0
 176 714 208 745 255 745 c 0
 303 745 335 714 335 667 c 0
 335 620 303 589 255 589 c 0
 207 589 176 620 176 667 c 0
313 667 m 0
 313 705 293 727 255 727 c 0
 218 727 197 704 197 667 c 0
 197 629 218 606 255 606 c 0
 293 606 313 629 313 667 c 0
410 110 m 2
 410 41 423 18 457 6 c 1
 451 -10 l 1
 410 3 392 29 391 91 c 1
 354 25 299 -10 222 -10 c 0
 124 -10 66 52 66 144 c 0
 66 250 147 308 270 308 c 2
 388 308 l 1
 388 370 l 2
 388 460 355 509 255 509 c 0
 209 509 163 497 112 476 c 1
 105 495 l 1
 158 517 205 529 255 529 c 0
 365 529 410 474 410 372 c 2
 410 110 l 2
222 11 m 0
 303 11 354 52 388 119 c 1
 388 288 l 1
 274 288 l 2
 160 288 90 239 90 144 c 0
 90 62 140 11 222 11 c 0
EndSplineSet
EndChar

StartChar: uni01FC
Encoding: 508 508 443
Width: 755
Flags: W
LayerCount: 2
Fore
SplineSet
538 838 m 1
 359 764 l 1
 352 779 l 1
 527 861 l 1
 538 838 l 1
481 21 m 1
 712 21 l 1
 712 0 l 1
 464 0 l 1
 412 196 l 1
 110 196 l 1
 35 0 l 1
 12 0 l 1
 275 681 l 1
 659 681 l 1
 656 660 l 1
 313 660 l 1
 389 370 l 1
 651 370 l 1
 651 349 l 1
 395 349 l 1
 481 21 l 1
119 218 m 1
 406 218 l 1
 289 663 l 1
 119 218 l 1
EndSplineSet
EndChar

StartChar: uni01FD
Encoding: 509 509 444
Width: 842
Flags: W
LayerCount: 2
Fore
SplineSet
507 738 m 1
 329 654 l 1
 321 670 l 1
 497 761 l 1
 507 738 l 1
776 284 m 0
 776 270 775 257 774 246 c 1
 411 246 l 1
 416 87 490 11 595 11 c 0
 658 11 697 31 742 68 c 1
 754 51 l 1
 709 13 662 -10 595 -10 c 0
 511 -10 447 33 414 111 c 1
 357 24 301 -10 222 -10 c 0
 124 -10 66 52 66 144 c 0
 66 250 147 308 270 308 c 2
 388 308 l 1
 388 370 l 2
 388 460 355 509 255 509 c 0
 209 509 163 497 112 476 c 1
 105 495 l 1
 158 517 205 529 255 529 c 0
 359 529 405 480 410 389 c 1
 441 482 504 529 590 529 c 0
 716 529 776 429 776 284 c 0
754 265 m 1
 754 292 l 2
 754 418 703 509 591 509 c 0
 490 509 414 430 411 265 c 1
 754 265 l 1
222 11 m 0
 300 11 351 49 406 132 c 1
 394 167 388 209 388 255 c 2
 388 288 l 1
 274 288 l 2
 160 288 90 239 90 144 c 0
 90 62 140 11 222 11 c 0
EndSplineSet
EndChar

StartChar: uni01FE
Encoding: 510 510 445
Width: 689
Flags: W
LayerCount: 2
Fore
SplineSet
429 847 m 1
 250 773 l 1
 243 788 l 1
 418 870 l 1
 429 847 l 1
450 670 m 1
 550 626 611 514 611 340 c 0
 611 119 511 -10 344 -10 c 0
 312 -10 282 -5 255 5 c 1
 224 -111 l 1
 201 -104 l 1
 237 12 l 1
 139 58 78 170 78 339 c 0
 78 563 187 691 344 691 c 0
 375 691 405 686 432 677 c 1
 432 678 l 1
 465 798 l 1
 488 792 l 1
 450 670 l 1
101 339 m 0
 101 180 156 76 245 33 c 1
 427 656 l 1
 402 665 374 670 344 670 c 0
 200 670 101 554 101 339 c 0
344 12 m 0
 498 12 588 127 588 340 c 0
 588 504 534 608 443 650 c 1
 261 26 l 1
 287 17 314 12 344 12 c 0
EndSplineSet
EndChar

StartChar: uni01FF
Encoding: 511 511 446
Width: 560
Flags: W
LayerCount: 2
Fore
SplineSet
365 738 m 1
 187 654 l 1
 179 670 l 1
 355 761 l 1
 365 738 l 1
374 508 m 1
 446 471 488 387 488 262 c 0
 488 89 406 -10 280 -10 c 0
 253 -10 229 -6 206 3 c 1
 164 -118 l 1
 145 -113 l 1
 187 11 l 1
 115 49 73 136 73 259 c 0
 73 431 156 529 281 529 c 0
 308 529 333 525 355 516 c 1
 395 639 l 1
 415 633 l 1
 374 508 l 1
96 259 m 0
 96 145 132 67 195 32 c 1
 349 497 l 1
 328 505 306 509 281 509 c 0
 169 509 96 422 96 259 c 0
280 11 m 0
 393 11 465 100 465 262 c 0
 465 376 429 454 367 488 c 1
 213 23 l 1
 233 15 256 11 280 11 c 0
EndSplineSet
EndChar

StartChar: uni0200
Encoding: 512 512 447
Width: 557
Flags: W
LayerCount: 2
Fore
SplineSet
234 787 m 1
 217 778 l 1
 140 906 l 1
 163 917 l 1
 234 787 l 1
337 790 m 1
 321 782 l 1
 250 904 l 1
 272 916 l 1
 337 790 l 1
505 0 m 1
 435 203 l 1
 121 203 l 1
 51 0 l 1
 28 0 l 1
 265 681 l 1
 292 681 l 1
 530 0 l 1
 505 0 l 1
128 224 m 1
 428 224 l 1
 278 663 l 1
 128 224 l 1
EndSplineSet
EndChar

StartChar: uni0201
Encoding: 513 513 448
Width: 528
Flags: W
LayerCount: 2
Fore
SplineSet
220 661 m 1
 203 652 l 1
 126 780 l 1
 149 791 l 1
 220 661 l 1
323 664 m 1
 307 656 l 1
 236 778 l 1
 258 790 l 1
 323 664 l 1
410 110 m 2
 410 41 423 18 457 6 c 1
 451 -10 l 1
 410 3 392 29 391 91 c 1
 354 25 299 -10 222 -10 c 0
 124 -10 66 52 66 144 c 0
 66 250 147 308 270 308 c 2
 388 308 l 1
 388 370 l 2
 388 460 355 509 255 509 c 0
 209 509 163 497 112 476 c 1
 105 495 l 1
 158 517 205 529 255 529 c 0
 365 529 410 474 410 372 c 2
 410 110 l 2
222 11 m 0
 303 11 354 52 388 119 c 1
 388 288 l 1
 274 288 l 2
 160 288 90 239 90 144 c 0
 90 62 140 11 222 11 c 0
EndSplineSet
EndChar

